<?xml version="1.0" encoding="utf-8"?>
<!-- Generator: Adobe Illustrator 22.1.0, SVG Export Plug-In . SVG Version: 6.00 Build 0)  -->
<svg version="1.1" id="Layer_1" xmlns="http://www.w3.org/2000/svg" xmlns:xlink="http://www.w3.org/1999/xlink" x="0px" y="0px"
	 viewBox="0 0 100 100" style="enable-background:new 0 0 100 100;" xml:space="preserve">
<style type="text/css">
	.st0{fill:#FFFFFF;}
	.st1{fill:#FDBF7C;}
</style>
<path class="st0" d="M50,0c27.6,0,50,22.4,50,50s-22.4,50-50,50S0,77.6,0,50S22.4,0,50,0z"/>
<g>
	<path class="st1" d="M66.4,61.8c1.3,1,1.5,2.3,1.4,3.8c-0.1,1,0,2,0,3.1c0,1.2-0.2,1.5-1.4,1.9c-2.7,0-5.5,0-8.2,0
		c-5.5,0-11,0-16.4,0c-2.7,0-5.5,0-8.2,0c-1.1-0.4-1.4-0.7-1.4-1.9c0-1.1,0.1-2.2,0-3.3c-0.1-1.4,0.2-2.6,1.4-3.6
		c0.7-0.1,1.4-0.2,2.1-0.2c1.2,0,2.5-0.1,3.7,0c1.3,0.1,2-0.4,2.7-1.3c0.5-0.7,0.9-1.5,2-1.5c3.9,0,7.7,0,11.6,0
		c0.4,0,0.9,0.2,1.2,0.5c0.4,0.3,0.7,0.8,1,1.2c0.5,0.7,1.1,1.1,2.2,1.1C62.2,61.5,64.3,61.7,66.4,61.8z M60.1,67.7
		c0.9,0.9,2.3,0.9,3,0c0.8-0.8,0.6-2.1-0.2-2.9C62,64,60.9,64.1,60.1,65C59.4,65.8,59.4,66.9,60.1,67.7z M39,64.8
		c-0.9-0.8-2-0.7-2.8,0.1c-0.8,0.8-0.8,1.9,0,2.7c0.6,1,2.3,0.9,3,0.1C39.9,67,39.9,65.4,39,64.8z M49.2,68.3c0-2.6,0-5,0-7.5
		c-1.6,0-3.2,0-4.8,0c-0.7,0-1.3,0.6-1.3,1.4c0,1.5,0,3.1,0,4.6c0,0.9,0.5,1.4,1.2,1.4C45.9,68.4,47.5,68.3,49.2,68.3z M50.8,60.8
		c0,2.5,0,5,0,7.5c1.6,0,3.1,0,4.6,0c0.9,0,1.4-0.3,1.4-1.2c0.1-1.7,0-3.5,0-5.2c0-0.7-0.6-1-1.2-1.1C54,60.8,52.4,60.8,50.8,60.8z"
		/>
	<path class="st1" d="M49.3,45.8c-4.5,0-8.9,0-13.4,0c-0.8,0-1.5,0-2.3,0c0-0.3,0-0.5,0-0.7c0-3.3,0-6.7,0-10c0-3.5,2.9-5.7,5.7-5.7
		c7.3,0.1,14.6,0,22,0c1.2,0,2.3,0.4,3.2,1.3c-0.5,0.5-1,1-1.5,1.5c-0.2,0-0.4-0.1-0.6-0.1c-3.2,0-6.3,0-9.5,0
		c-0.9,0-1.5,0.6-1.5,1.6c0,1.7,0,3.4,0,5.1c0,1,0.6,1.5,1.5,1.6c0.6,0,1.2,0,1.8,0c-1.5,1.6-3.1,3.1-4.6,4.7
		c-0.2,0.2-0.3,0.5-0.5,0.7C49.5,45.8,49.4,45.8,49.3,45.8z M42.5,32.2c-1.5,0-3.1,0-4.6,0c-1,0-1.5,0.5-1.5,1.5c0,1.7,0,3.4,0,5.1
		c0,1.1,0.5,1.6,1.6,1.6c3.1,0,6.1,0,9.2,0c1.1,0,1.6-0.5,1.6-1.6c0-1.7,0-3.4,0-5.1c0-1-0.5-1.5-1.5-1.5
		C45.6,32.2,44,32.2,42.5,32.2z"/>
	<path class="st1" d="M66.4,61.8c-2.1-0.1-4.1-0.2-6.2-0.2c-1,0-1.6-0.4-2.2-1.1c-0.3-0.4-0.6-0.9-1-1.2c-0.3-0.3-0.8-0.5-1.2-0.5
		c-3.9,0-7.7,0-11.6,0c-1.1,0-1.5,0.8-2,1.5c-0.7,1-1.5,1.5-2.7,1.3c-1.2-0.1-2.5-0.1-3.7,0c-0.7,0-1.4,0.1-2.1,0.2
		c0-0.1,0-0.2,0-0.3c1.6-1.5,3.1-3.1,4.7-4.6c0.1,0,0.2-0.1,0.3-0.1c2.9,0,5.8,0,8.7,0c0.7,0,1.3-0.5,1.4-1.2c0.1-0.5,0-1,0-1.5
		c-2.5,0-4.9,0-7.3,0c0.3-0.4,0.7-0.8,1-1.3c0.1,0,0.2-0.1,0.3-0.1c2,0,4,0,6,0c0-1.9,0-3.6,0-5.4c0.9,0,1.8,0,2.7,0
		c0,2.6,0,5.3,0,7.9c0,1.1,0.5,1.6,1.6,1.6c3,0,6.1,0,9.1,0c1.1,0,1.6-0.5,1.6-1.6c0-2.6,0-5.3,0-7.9c0.9,0,1.8,0,2.8,0
		c0,4.6,0,9.1,0,13.7C66.4,61.2,66.4,61.5,66.4,61.8z"/>
	<path class="st1" d="M62.9,32.2c0.5-0.5,1-1,1.5-1.5c1.4,1.1,2,2.6,2,4.4c0,3.6,0,7.2,0,10.8c-5.6,0-11.2,0-16.9,0
		c0.2-0.2,0.3-0.5,0.5-0.7c1.5-1.6,3.1-3.1,4.6-4.7c0.1,0,0.2-0.1,0.3-0.1c2.4,0,4.8,0,7.2,0c0.9,0,1.4-0.6,1.4-1.5
		c0-1.7,0-3.5,0-5.2c0-0.6-0.2-1-0.7-1.3C62.9,32.3,62.9,32.2,62.9,32.2z"/>
	<path class="st1" d="M36.3,47.2c0,1.8,0,3.6,0,5.5c2.1,0,4.1,0,6,0c-0.3,0.4-0.7,0.8-1,1.3c-0.1,0-0.2,0-0.3,0c-1.6,0-3.1,0-4.7,0
		c0,0.5,0,0.9,0,1.4c0,0.8,0.4,1.2,1.2,1.3c0.2,0,0.5,0.1,0.7,0.1c-1.6,1.5-3.1,3.1-4.7,4.6c0-2.3,0-4.6,0-6.9c0-2.2,0-4.4,0-6.6
		c0-0.2,0-0.5,0-0.8C34.5,47.2,35.4,47.2,36.3,47.2z"/>
	<path class="st1" d="M33.6,70.5c2.7,0,5.5,0,8.2,0c0,0.4,0,0.8,0,1.2c0,1-0.5,1.5-1.5,1.5c-1.7,0-3.5,0-5.2,0c-1,0-1.5-0.5-1.5-1.5
		C33.6,71.3,33.6,70.9,33.6,70.5z"/>
	<path class="st1" d="M58.2,70.5c2.7,0,5.5,0,8.2,0c0.1,1.8,0.1,2.8-2.4,2.7c-1.3-0.1-2.7,0-4,0c-1.3,0-1.7-0.5-1.7-1.7
		C58.2,71.2,58.2,70.8,58.2,70.5z"/>
</g>
</svg>
