<?xml version="1.0" encoding="utf-8"?>
<!-- Generator: Adobe Illustrator 24.0.3, SVG Export Plug-In . SVG Version: 6.00 Build 0)  -->
<svg version="1.1" id="Layer_1" xmlns="http://www.w3.org/2000/svg" xmlns:xlink="http://www.w3.org/1999/xlink" x="0px" y="0px"
	 viewBox="0 0 100 100" style="enable-background:new 0 0 100 100;" xml:space="preserve">
<style type="text/css">
	.st0{fill:#9BD0A5;}
	.st1{fill:#A6A6AD;}
	.st2{fill:#3E3E42;}
	.st3{opacity:0.1;enable-background:new    ;}
	.st4{fill:#D2D2D6;}
	.st5{fill:#57575E;}
	.st6{fill:#EDEDED;}
	.st7{font-family:'PTMono-Regular';}
	.st8{font-size:2.4875px;}
</style>
<path class="st0" d="M50,0C22.4,0,0,22.4,0,50c0,27.6,22.4,50,50,50c27.6,0,50-22.4,50-50C100,22.4,77.6,0,50,0z"/>
<polygon class="st1" points="57.1,75.8 43.8,75.8 45,69.1 55.8,69.1 "/>
<path class="st2" d="M76.3,71H24.5c-2,0-4.2-2.2-4.2-4.2V31.2c0-2,1.6-3.6,3.6-3.6h53c2,0,3.6,1.6,3.6,3.6v35.5
	C80.5,68.7,78.3,71,76.3,71z"/>
<polygon class="st3" points="56.5,72.8 55.8,69.1 45,69.1 44.3,72.8 "/>
<path class="st4" d="M20.3,63.9v3.4c0,2,1.6,3.6,3.6,3.6h53c2,0,3.6-1.6,3.6-3.6v-3.4c0-0.1-0.1-0.2-0.2-0.2H20.5
	C20.4,63.7,20.3,63.8,20.3,63.9z"/>
<rect x="23.3" y="30.6" class="st5" width="54.2" height="30.1"/>
<circle class="st1" cx="50.4" cy="67.3" r="1.8"/>
<path class="st4" d="M60.1,76.4c0,0.4-0.2,0.6-0.6,0.6H41.4c-0.4,0-0.6-0.2-0.6-0.6v-0.6c0-0.4,0.2-0.6,0.6-0.6h18.1
	c0.4,0,0.6,0.2,0.6,0.6V76.4z"/>
<text transform="matrix(1 0 0 1 25.813 36.5688)"><tspan x="0" y="0" class="st6 st7 st8">&gt;_ </tspan><tspan x="0" y="3" class="st6 st7 st8">const express = require(”express”)</tspan><tspan x="0" y="6" class="st6 st7 st8">const app = express()</tspan></text>
</svg>
