<?xml version="1.0" encoding="utf-8"?>
<!-- Generator: Adobe Illustrator 22.1.0, SVG Export Plug-In . SVG Version: 6.00 Build 0)  -->
<svg version="1.1" id="Layer_1" xmlns="http://www.w3.org/2000/svg" xmlns:xlink="http://www.w3.org/1999/xlink" x="0px" y="0px"
	 viewBox="0 0 100 100" style="enable-background:new 0 0 100 100;" xml:space="preserve">
<style type="text/css">
	.st0{fill:#FFFFFF;}
	.st1{fill:#A88DE9;}
</style>
<path class="st0" d="M50,0c27.6,0,50,22.4,50,50s-22.4,50-50,50S0,77.6,0,50S22.4,0,50,0z"/>
<path class="st1" d="M50,31.4c3.1,0,6.2,0,9.4,0c3.7,0.1,5.3,1.5,5.6,5.1c0.3,4,0.9,7.8,2.4,11.6c3.7,10-2.7,21.7-12.9,24.3
	C44.1,75.1,33.7,68.4,32,57.6c-0.5-3.1-0.3-6.7,0.7-9.7c1.1-3.5,1.8-6.9,2-10.5c0.4-4.9,1.8-6.1,6.6-6.1
	C44.2,31.4,47.1,31.4,50,31.4C50,31.4,50,31.4,50,31.4z M38.5,34.1c-0.3,0.2-0.7,0.3-0.7,0.6c-0.4,2.9-0.8,5.7-1,8.6
	c0,0.2,1,0.8,1.5,0.8c7.8,0.1,15.5,0.1,23.3,0c0.7,0,1.8-1,1.9-1.5c0-2.1-0.2-4.3-0.6-6.4c-0.1-0.8-1-1.4-1.6-2.1
	c-0.5-0.1-1-0.4-1.5-0.4c-6.5,0-13,0-19.5,0C39.5,33.7,39,34,38.5,34.1z M34.3,55.9c-0.1,6.5,6.3,15.4,16.8,14.8
	c7.4-0.4,14.6-7.7,14.2-14.9c-4.9,0-8.9-1.9-11.9-5.8C44.2,55.8,43.2,55,34.3,55.9z"/>
</svg>
