<svg id="et6hxk70h1ti1" xmlns="http://www.w3.org/2000/svg" xmlns:xlink="http://www.w3.org/1999/xlink" viewBox="0 0 60 90" shape-rendering="geometricPrecision" text-rendering="geometricPrecision"><style><![CDATA[#et6hxk70h1ti2 {animation: et6hxk70h1ti2_c_o 9000ms linear infinite normal forwards}@keyframes et6hxk70h1ti2_c_o { 0% {opacity: 0} 77.777778% {opacity: 0} 83.333333% {opacity: 1} 94.444444% {opacity: 1} 100% {opacity: 0} }#et6hxk70h1ti11 {animation: et6hxk70h1ti11_c_o 9000ms linear infinite normal forwards}@keyframes et6hxk70h1ti11_c_o { 0% {opacity: 0} 61.111111% {opacity: 0} 66.666667% {opacity: 1} 77.777778% {opacity: 1} 83.333333% {opacity: 0} 100% {opacity: 0} }#et6hxk70h1ti38 {animation: et6hxk70h1ti38_c_o 9000ms linear infinite normal forwards}@keyframes et6hxk70h1ti38_c_o { 0% {opacity: 0} 44.444444% {opacity: 0} 50% {opacity: 1} 61.111111% {opacity: 1} 66.666667% {opacity: 0} 100% {opacity: 0} }#et6hxk70h1ti43 {animation: et6hxk70h1ti43_c_o 9000ms linear infinite normal forwards}@keyframes et6hxk70h1ti43_c_o { 0% {opacity: 0} 27.777778% {opacity: 0} 33.333333% {opacity: 1} 44.444444% {opacity: 1} 50% {opacity: 0} 100% {opacity: 0} }#et6hxk70h1ti53 {animation: et6hxk70h1ti53_c_o 9000ms linear infinite normal forwards}@keyframes et6hxk70h1ti53_c_o { 0% {opacity: 0} 11% {opacity: 0} 16.666667% {opacity: 1} 27.777778% {opacity: 1} 33.333333% {opacity: 0} 100% {opacity: 0} }#et6hxk70h1ti139 {animation: et6hxk70h1ti139_c_o 9000ms linear infinite normal forwards}@keyframes et6hxk70h1ti139_c_o { 0% {opacity: 0} 5.555556% {opacity: 1} 11% {opacity: 1} 16.666667% {opacity: 0} 100% {opacity: 0} }]]></style><g id="et6hxk70h1ti2" opacity="0"><g id="et6hxk70h1ti3"><g id="et6hxk70h1ti4"><path id="et6hxk70h1ti5" d="M36.600000,46.800000L36.600000,56.800000C37.800000,56.800000,38.900000,56.100000,39.500000,55C39.600000,55.100000,39.700000,55.100000,39.800000,55.100000L39.900000,55.100000C40.100000,55.100000,40.300000,55,40.500000,54.800000C40.600000,54.600000,40.700000,54.400000,40.700000,54.200000L40.700000,53.400000L40.700000,52.200000L40.700000,44.700000L40.300000,44.700000C40.100000,44.700000,39.900000,44.500000,39.900000,44.300000L39.900000,44.200000C39.900000,38.500000,35.200000,33.800000,29.500000,33.800000C23.800000,33.800000,19.100000,38.400000,19.100000,44.200000L19.100000,44.300000C19.100000,44.500000,18.900000,44.700000,18.700000,44.700000L18.300000,44.700000L18.300000,54.300000C18.300000,54.500000,18.400000,54.700000,18.500000,54.900000C18.600000,55.100000,18.800000,55.200000,19.100000,55.200000L19.200000,55.200000C19.300000,55.200000,19.400000,55.200000,19.500000,55.100000C20.100000,56.100000,21.100000,56.800000,22.400000,56.800000L22.400000,46.800000C21.400000,46.800000,20.600000,47.200000,20,47.900000L20,45.100000C20.300000,45,20.500000,44.800000,20.600000,44.500000L20.600000,44.500000L20.600000,44.400000C20.600000,41.900000,21.600000,39.700000,23.200000,38.100000C24.800000,36.500000,27,35.500000,29.500000,35.500000C32,35.500000,34.200000,36.500000,35.800000,38.100000C37.400000,39.700000,38.400000,41.900000,38.400000,44.400000L38.400000,44.500000L38.400000,44.500000C38.400000,44.800000,38.600000,45.100000,39,45.200000L39,48C38.400000,47.300000,37.600000,46.900000,36.600000,46.800000Z" fill="rgb(87,87,94)" stroke="none" stroke-width="1"/><path id="et6hxk70h1ti6" d="M40.300000,44.800000L40.700000,44.800000L41,44.800000C41.200000,44.800000,41.400000,44.600000,41.400000,44.400000L41.400000,44.300000C41.400000,37.800000,36.100000,32.500000,29.600000,32.500000C23.100000,32.500000,17.800000,37.800000,17.800000,44.300000L17.800000,44.400000C17.800000,44.600000,18,44.800000,18.200000,44.800000L18.500000,44.800000L18.900000,44.800000C19.100000,44.800000,19.300000,44.600000,19.300000,44.400000L19.300000,44.300000C19.300000,38.600000,24,33.900000,29.700000,33.900000C35.400000,33.900000,40.100000,38.500000,40.100000,44.300000L40.100000,44.400000C39.900000,44.600000,40.100000,44.800000,40.300000,44.800000Z" fill="rgb(210,210,214)" stroke="none" stroke-width="1"/><path id="et6hxk70h1ti7" d="M17.100000,52.500000C17.100000,53.200000,17.600000,53.700000,18.300000,53.700000L18.300000,50C17.600000,50,17.100000,50.500000,17.100000,51.200000L17.100000,52.500000Z" fill="rgb(210,210,214)" stroke="none" stroke-width="1"/><path id="et6hxk70h1ti8" d="M40.800000,53.700000C41.500000,53.700000,42,53.200000,42,52.500000L42,51.200000C42,50.500000,41.500000,50,40.800000,50L40.800000,53.700000Z" fill="rgb(210,210,214)" stroke="none" stroke-width="1"/><path id="et6hxk70h1ti9" d="M22.700000,46.800000L22.700000,56.800000L23.900000,56.800000C24.100000,56.800000,24.200000,56.600000,24.200000,56.500000L24.200000,47.100000C24.200000,46.900000,24,46.800000,23.900000,46.800000L22.700000,46.800000Z" fill="rgb(210,210,214)" stroke="none" stroke-width="1"/><path id="et6hxk70h1ti10" d="M34.800000,47.200000L34.800000,56.600000C34.800000,56.800000,35,56.900000,35.100000,56.900000L36.300000,56.900000L36.300000,46.900000L35.100000,46.900000C34.900000,46.800000,34.800000,47,34.800000,47.200000Z" fill="rgb(210,210,214)" stroke="none" stroke-width="1"/></g></g></g><g id="et6hxk70h1ti11" opacity="0"><g id="et6hxk70h1ti12"><g id="et6hxk70h1ti13"><polygon id="et6hxk70h1ti14" points="29,37.800000 26.300000,37.800000 25.800000,39.300000 29,39.300000" fill="rgb(121,76,39)" stroke="none" stroke-width="1"/><path id="et6hxk70h1ti15" d="M29,39.300000L25.800000,39.300000L25.800000,39.300000L25.800000,39.300000L26.300000,37.800000L26.300000,37.800000L29.100000,37.800000L29.100000,37.800000L29,39.300000L29,39.300000L29,39.300000ZM25.800000,39.200000L29,39.200000L29,37.800000L26.300000,37.800000L25.800000,39.200000Z" fill="rgb(94,57,33)" stroke="none" stroke-width="1"/></g><g id="et6hxk70h1ti16"><polygon id="et6hxk70h1ti17" points="29,37.800000 31.700000,37.800000 32.200000,39.300000 29,39.300000" fill="rgb(121,76,39)" stroke="none" stroke-width="1"/><path id="et6hxk70h1ti18" d="M32.200000,39.300000L32.200000,39.300000L29,39.300000L29,39.300000L29,39.300000L29,37.800000L29,37.800000L31.800000,37.800000L31.800000,37.800000L32.200000,39.300000L32.200000,39.300000L32.200000,39.300000ZM29,39.200000L32.200000,39.200000L31.700000,37.800000L29,37.800000L29,39.200000Z" fill="rgb(94,57,33)" stroke="none" stroke-width="1"/></g><g id="et6hxk70h1ti19"><polygon id="et6hxk70h1ti20" points="31.700000,37.800000 29,37.800000 28.100000,37.800000 26.300000,37.800000 25.800000,39.300000 28.100000,39.300000 29,39.300000 32.200000,39.300000" fill="rgb(87,87,94)" stroke="none" stroke-width="1"/><path id="et6hxk70h1ti21" d="M32.200000,39.600000L25.800000,39.600000C25.700000,39.600000,25.600000,39.500000,25.600000,39.500000C25.600000,39.400000,25.500000,39.300000,25.600000,39.200000L26.100000,37.700000C26.100000,37.600000,26.200000,37.500000,26.300000,37.500000L31.800000,37.500000C31.900000,37.500000,32,37.600000,32,37.700000L32.500000,39.200000C32.500000,39.300000,32.500000,39.400000,32.500000,39.500000C32.400000,39.500000,32.300000,39.600000,32.200000,39.600000ZM26.200000,38.900000L31.800000,38.900000L31.500000,38.100000L26.400000,38.100000L26.200000,38.900000Z" fill="rgb(87,87,94)" stroke="none" stroke-width="1"/></g><g id="et6hxk70h1ti22"><polygon id="et6hxk70h1ti23" points="29,40.500000 29,40.500000 25.800000,40.500000 27.100000,51.200000 29,51.200000 29,51.200000 30.900000,51.200000 32.200000,40.500000" fill="rgb(210,210,214)" stroke="none" stroke-width="1"/><path id="et6hxk70h1ti24" d="M30.900000,51.500000L27.200000,51.500000C27.100000,51.500000,27,51.400000,26.900000,51.200000L25.500000,40.400000C25.500000,40.300000,25.500000,40.200000,25.600000,40.100000C25.700000,40,25.700000,40,25.800000,40L32.200000,40C32.300000,40,32.400000,40,32.400000,40.100000C32.500000,40.200000,32.500000,40.300000,32.500000,40.400000L31.100000,51.200000C31.100000,51.400000,31,51.500000,30.900000,51.500000ZM27.400000,50.900000L30.700000,50.900000L32,40.800000L26.200000,40.800000L27.400000,50.900000Z" fill="rgb(210,210,214)" stroke="none" stroke-width="1"/></g><g id="et6hxk70h1ti25"><polygon id="et6hxk70h1ti26" points="31.600000,47.600000 26.400000,47.600000 25.900000,43 32.100000,43" fill="rgb(87,87,94)" stroke="none" stroke-width="1"/><path id="et6hxk70h1ti27" d="M31.600000,48L26.400000,48C26.200000,48,26.100000,47.900000,26.100000,47.700000L25.600000,43.100000C25.600000,43,25.600000,42.900000,25.700000,42.800000C25.800000,42.700000,25.800000,42.700000,25.900000,42.700000L32.100000,42.700000C32.200000,42.700000,32.300000,42.700000,32.300000,42.800000C32.300000,42.900000,32.400000,43,32.400000,43.100000L31.900000,47.700000C31.900000,47.900000,31.800000,48,31.600000,48ZM26.700000,47.300000L31.400000,47.300000L31.800000,43.400000L26.300000,43.400000L26.700000,47.300000Z" fill="rgb(87,87,94)" stroke="none" stroke-width="1"/></g><g id="et6hxk70h1ti28"><g id="et6hxk70h1ti29"><g id="et6hxk70h1ti30"><polygon id="et6hxk70h1ti31" points="29,39.300000 29,39.300000 25.300000,39.300000 25.300000,40.500000 29,40.500000 29,40.500000 32.700000,40.500000 32.700000,39.300000" fill="rgb(87,87,94)" stroke="none" stroke-width="1"/></g></g><g id="et6hxk70h1ti32"><g id="et6hxk70h1ti33"><polygon id="et6hxk70h1ti34" points="29,39.300000 29,39.300000 25.300000,39.300000 25.300000,40.500000 29,40.500000 29,40.500000 32.700000,40.500000 32.700000,39.300000" fill="rgb(87,87,94)" stroke="none" stroke-width="1"/></g></g><g id="et6hxk70h1ti35"><g id="et6hxk70h1ti36"><path id="et6hxk70h1ti37" d="M32.700000,40.800000L25.200000,40.800000C25.100000,40.800000,24.900000,40.700000,24.900000,40.500000L24.900000,39.300000C24.900000,39.100000,25,39,25.200000,39L32.700000,39C32.800000,39,33,39.100000,33,39.300000L33,40.500000C33,40.600000,32.900000,40.800000,32.700000,40.800000ZM25.500000,40.200000L32.400000,40.200000L32.400000,39.600000L25.500000,39.600000L25.500000,40.200000Z" fill="rgb(87,87,94)" stroke="none" stroke-width="1"/></g></g></g></g></g><g id="et6hxk70h1ti38" opacity="0"><g id="et6hxk70h1ti39"><path id="et6hxk70h1ti40" d="M44,62L15.800000,62C14.800000,62,14.100000,61.200000,14.100000,60.300000L14.100000,33.800000C14.100000,32.800000,14.900000,32.100000,15.800000,32.100000L44,32.100000C45,32.100000,45.700000,32.900000,45.700000,33.800000L45.700000,60.300000C45.700000,61.200000,44.900000,62,44,62Z" fill="rgb(87,87,94)" stroke="none" stroke-width="1"/><text id="et6hxk70h1ti41" dx="0" dy="0" font-family="Courier" font-size="2.446400" transform="matrix(1 0 0 1 16.15880000000000 37.01680000000000)" fill="rgb(255,255,255)" stroke="none" stroke-width="1"><![CDATA[>_]]></text><text id="et6hxk70h1ti42" dx="0" dy="0" font-family="Courier" font-size="1.800000" transform="matrix(1 0 0 1 16.15880000000000 39.21680000000000)" fill="rgb(255,255,255)" stroke="none" stroke-width="1"><![CDATA[while (! (succeed=try() ))]]></text></g></g><g id="et6hxk70h1ti43" opacity="0"><g id="et6hxk70h1ti44"><g id="et6hxk70h1ti45"><polygon id="et6hxk70h1ti46" points="34.900000,64.100000 25.800000,64.100000 26.600000,59.500000 34.100000,59.500000" fill="rgb(166,166,173)" stroke="none" stroke-width="1"/><path id="et6hxk70h1ti47" d="M48.100000,60.800000L12.600000,60.800000C11.200000,60.800000,9.700000,59.300000,9.700000,57.900000L9.700000,33.500000C9.700000,32.100000,10.800000,31,12.200000,31L48.600000,31C50,31,51.100000,32.100000,51.100000,33.500000L51.100000,57.900000C51,59.200000,49.500000,60.800000,48.100000,60.800000Z" fill="rgb(62,62,66)" stroke="none" stroke-width="1"/><polygon id="et6hxk70h1ti48" points="34.500000,62 34.100000,59.500000 26.600000,59.500000 26.200000,62" opacity="0.1" fill="rgb(0,0,0)" stroke="none" stroke-width="1"/><path id="et6hxk70h1ti49" d="M9.700000,55.900000L9.700000,58.300000C9.700000,59.700000,10.800000,60.800000,12.200000,60.800000L48.600000,60.800000C50,60.800000,51.100000,59.700000,51.100000,58.300000L51.100000,55.900000C51.100000,55.800000,51.100000,55.800000,51,55.800000L9.700000,55.900000C9.700000,55.800000,9.700000,55.800000,9.700000,55.900000Z" fill="rgb(210,210,214)" stroke="none" stroke-width="1"/><rect id="et6hxk70h1ti50" width="37.200000" height="20.700000" rx="0" ry="0" transform="matrix(1 0 0 1 11.70000000000000 33.10000000000000)" fill="rgb(87,87,94)" stroke="none" stroke-width="1"/><circle id="et6hxk70h1ti51" r="1.200000" transform="matrix(1 0 0 1 30.30000000000000 58.30000000000000)" fill="rgb(166,166,173)" stroke="none" stroke-width="1"/><path id="et6hxk70h1ti52" d="M36.900000,64.500000C36.900000,64.700000,36.700000,64.900000,36.500000,64.900000L24.100000,64.900000C23.900000,64.900000,23.700000,64.700000,23.700000,64.500000L23.700000,64.100000C23.700000,63.900000,23.900000,63.700000,24.100000,63.700000L36.500000,63.700000C36.700000,63.700000,36.900000,63.900000,36.900000,64.100000L36.900000,64.500000Z" fill="rgb(210,210,214)" stroke="none" stroke-width="1"/></g></g></g><g id="et6hxk70h1ti53" opacity="0"><g id="et6hxk70h1ti54"><g id="et6hxk70h1ti55"><path id="et6hxk70h1ti56" d="M43.300000,42.200000L16.500000,42.200000C15.800000,42.200000,15.300000,42.700000,15.300000,43.400000L15.300000,59.200000C15.300000,59.900000,15.800000,60.400000,16.500000,60.400000L43.300000,60.400000C44,60.400000,44.500000,59.900000,44.500000,59.200000L44.500000,43.400000C44.500000,42.700000,43.900000,42.200000,43.300000,42.200000Z" fill="rgb(210,210,214)" stroke="none" stroke-width="1"/><path id="et6hxk70h1ti57" d="M45.100000,35.300000L14.600000,35.300000C14,35.300000,13.600000,35.900000,13.700000,36.400000L15,41.200000C15.100000,41.700000,15.600000,42.100000,16.200000,42.100000L43.600000,42.100000C44.100000,42.100000,44.600000,41.700000,44.800000,41.200000L46.100000,36.300000C46.100000,35.900000,45.700000,35.300000,45.100000,35.300000Z" fill="rgb(62,62,66)" stroke="none" stroke-width="1"/><polygon id="et6hxk70h1ti58" points="15.900000,41.300000 14.600000,36.200000 45.100000,36.200000 43.800000,41.300000" fill="rgb(87,87,94)" stroke="none" stroke-width="1"/><path id="et6hxk70h1ti59" d="M32.600000,60.400000L27.200000,60.400000L27.200000,60.300000C27.200000,60,27.500000,59.800000,27.800000,59.800000L32,59.800000C32.300000,59.800000,32.600000,60,32.600000,60.400000L32.600000,60.400000Z" opacity="0.05" fill="rgb(0,0,0)" stroke="none" stroke-width="1"/><path id="et6hxk70h1ti60" d="M34.900000,58.900000C34.900000,59.200000,34.600000,59.500000,34.300000,59.500000L25.400000,59.500000C25.100000,59.500000,24.800000,59.200000,24.800000,58.900000L24.800000,54.100000C24.800000,53.800000,25.100000,53.500000,25.400000,53.500000L34.300000,53.500000C34.600000,53.500000,34.900000,53.800000,34.900000,54.100000L34.900000,58.900000Z" fill="rgb(166,166,173)" stroke="none" stroke-width="1"/><path id="et6hxk70h1ti61" d="M42.400000,52.900000L17.400000,52.900000C17.100000,52.900000,16.800000,52.600000,16.800000,52.300000L16.800000,44.300000C16.800000,44,17.100000,43.700000,17.400000,43.700000L42.400000,43.700000C42.700000,43.700000,43,44,43,44.300000L43,52.300000C43,52.700000,42.700000,52.900000,42.400000,52.900000Z" opacity="0.1" fill="rgb(0,0,0)" stroke="none" stroke-width="1"/><rect id="et6hxk70h1ti62" width="21.500000" height="0.900000" rx="0" ry="0" transform="matrix(1 0 0 1 19.10000000000000 42.20000000000000)" fill="rgb(62,62,66)" stroke="none" stroke-width="1"/><rect id="et6hxk70h1ti63" width="8.900000" height="1.200000" rx="0" ry="0" transform="matrix(1 0 0 1 24.50000000000000 51.10000000000000)" fill="rgb(87,87,94)" stroke="none" stroke-width="1"/><rect id="et6hxk70h1ti64" width="1.200000" height="1.200000" rx="0" ry="0" transform="matrix(1 0 0 1 22.70000000000000 51.10000000000000)" fill="rgb(87,87,94)" stroke="none" stroke-width="1"/><rect id="et6hxk70h1ti65" width="1.200000" height="1.200000" rx="0" ry="0" transform="matrix(1 0 0 1 20.90000000000000 51.10000000000000)" fill="rgb(87,87,94)" stroke="none" stroke-width="1"/><rect id="et6hxk70h1ti66" width="1.200000" height="1.200000" rx="0" ry="0" transform="matrix(1 0 0 1 35.80000000000000 51.10000000000000)" fill="rgb(87,87,94)" stroke="none" stroke-width="1"/><rect id="et6hxk70h1ti67" width="1.200000" height="0.600000" rx="0" ry="0" transform="matrix(1 0 0 1 37.60000000000000 51.70000000000000)" fill="rgb(87,87,94)" stroke="none" stroke-width="1"/><rect id="et6hxk70h1ti68" width="1.200000" height="1.200000" rx="0" ry="0" transform="matrix(1 0 0 1 39.40000000000000 51.10000000000000)" fill="rgb(87,87,94)" stroke="none" stroke-width="1"/><rect id="et6hxk70h1ti69" width="1.200000" height="0.600000" rx="0" ry="0" transform="matrix(1 0 0 1 41.20000000000000 51.70000000000000)" fill="rgb(87,87,94)" stroke="none" stroke-width="1"/><rect id="et6hxk70h1ti70" width="1.200000" height="1.200000" rx="0" ry="0" transform="matrix(1 0 0 1 34 51.10000000000000)" fill="rgb(87,87,94)" stroke="none" stroke-width="1"/><rect id="et6hxk70h1ti71" width="1.200000" height="1.200000" rx="0" ry="0" transform="matrix(1 0 0 1 19.10000000000000 51.10000000000000)" fill="rgb(87,87,94)" stroke="none" stroke-width="1"/><rect id="et6hxk70h1ti72" width="1.200000" height="1.200000" rx="0" ry="0" transform="matrix(1 0 0 1 24.80000000000000 49.70000000000000)" fill="rgb(87,87,94)" stroke="none" stroke-width="1"/><rect id="et6hxk70h1ti73" width="1.200000" height="1.200000" rx="0" ry="0" transform="matrix(1 0 0 1 23 49.70000000000000)" fill="rgb(87,87,94)" stroke="none" stroke-width="1"/><rect id="et6hxk70h1ti74" width="1.200000" height="1.200000" rx="0" ry="0" transform="matrix(1 0 0 1 21.20000000000000 49.70000000000000)" fill="rgb(87,87,94)" stroke="none" stroke-width="1"/><rect id="et6hxk70h1ti75" width="1.200000" height="1.200000" rx="0" ry="0" transform="matrix(1 0 0 1 30.20000000000000 49.70000000000000)" fill="rgb(87,87,94)" stroke="none" stroke-width="1"/><rect id="et6hxk70h1ti76" width="1.200000" height="1.200000" rx="0" ry="0" transform="matrix(1 0 0 1 28.40000000000000 49.70000000000000)" fill="rgb(87,87,94)" stroke="none" stroke-width="1"/><rect id="et6hxk70h1ti77" width="1.200000" height="1.200000" rx="0" ry="0" transform="matrix(1 0 0 1 26.60000000000000 49.70000000000000)" fill="rgb(87,87,94)" stroke="none" stroke-width="1"/><rect id="et6hxk70h1ti78" width="1.200000" height="1.200000" rx="0" ry="0" transform="matrix(1 0 0 1 35.50000000000000 49.70000000000000)" fill="rgb(87,87,94)" stroke="none" stroke-width="1"/><rect id="et6hxk70h1ti79" width="1.200000" height="1.200000" rx="0" ry="0" transform="matrix(1 0 0 1 37.30000000000000 49.70000000000000)" fill="rgb(87,87,94)" stroke="none" stroke-width="1"/><rect id="et6hxk70h1ti80" width="1.200000" height="1.200000" rx="0" ry="0" transform="matrix(1 0 0 1 33.70000000000000 49.70000000000000)" fill="rgb(87,87,94)" stroke="none" stroke-width="1"/><rect id="et6hxk70h1ti81" width="1.200000" height="1.200000" rx="0" ry="0" transform="matrix(1 0 0 1 32 49.70000000000000)" fill="rgb(87,87,94)" stroke="none" stroke-width="1"/><rect id="et6hxk70h1ti82" width="3.300000" height="1.200000" rx="0" ry="0" transform="matrix(1 0 0 1 39.10000000000000 49.70000000000000)" fill="rgb(87,87,94)" stroke="none" stroke-width="1"/><rect id="et6hxk70h1ti83" width="1.200000" height="1.200000" rx="0" ry="0" transform="matrix(1 0 0 1 17.30000000000000 51.10000000000000)" fill="rgb(87,87,94)" stroke="none" stroke-width="1"/><rect id="et6hxk70h1ti84" width="3.300000" height="1.200000" rx="0" ry="0" transform="matrix(1 0 0 1 17.30000000000000 49.70000000000000)" fill="rgb(87,87,94)" stroke="none" stroke-width="1"/><rect id="et6hxk70h1ti85" width="1.200000" height="1.200000" rx="0" ry="0" transform="matrix(1 0 0 1 23.90000000000000 48.20000000000000)" fill="rgb(87,87,94)" stroke="none" stroke-width="1"/><rect id="et6hxk70h1ti86" width="1.200000" height="1.200000" rx="0" ry="0" transform="matrix(1 0 0 1 22.10000000000000 48.20000000000000)" fill="rgb(87,87,94)" stroke="none" stroke-width="1"/><rect id="et6hxk70h1ti87" width="1.200000" height="1.200000" rx="0" ry="0" transform="matrix(1 0 0 1 20.30000000000000 48.20000000000000)" fill="rgb(87,87,94)" stroke="none" stroke-width="1"/><rect id="et6hxk70h1ti88" width="1.200000" height="1.200000" rx="0" ry="0" transform="matrix(1 0 0 1 29.30000000000000 48.20000000000000)" fill="rgb(87,87,94)" stroke="none" stroke-width="1"/><rect id="et6hxk70h1ti89" width="1.200000" height="1.200000" rx="0" ry="0" transform="matrix(1 0 0 1 27.50000000000000 48.20000000000000)" fill="rgb(87,87,94)" stroke="none" stroke-width="1"/><rect id="et6hxk70h1ti90" width="1.200000" height="1.200000" rx="0" ry="0" transform="matrix(1 0 0 1 25.70000000000000 48.20000000000000)" fill="rgb(87,87,94)" stroke="none" stroke-width="1"/><rect id="et6hxk70h1ti91" width="1.200000" height="1.200000" rx="0" ry="0" transform="matrix(1 0 0 1 34.60000000000000 48.20000000000000)" fill="rgb(87,87,94)" stroke="none" stroke-width="1"/><rect id="et6hxk70h1ti92" width="1.200000" height="1.200000" rx="0" ry="0" transform="matrix(1 0 0 1 36.40000000000000 48.20000000000000)" fill="rgb(87,87,94)" stroke="none" stroke-width="1"/><rect id="et6hxk70h1ti93" width="1.200000" height="1.200000" rx="0" ry="0" transform="matrix(1 0 0 1 38.20000000000000 48.20000000000000)" fill="rgb(87,87,94)" stroke="none" stroke-width="1"/><rect id="et6hxk70h1ti94" width="1.200000" height="1.200000" rx="0" ry="0" transform="matrix(1 0 0 1 32.90000000000000 48.20000000000000)" fill="rgb(87,87,94)" stroke="none" stroke-width="1"/><rect id="et6hxk70h1ti95" width="1.200000" height="1.200000" rx="0" ry="0" transform="matrix(1 0 0 1 31.10000000000000 48.20000000000000)" fill="rgb(87,87,94)" stroke="none" stroke-width="1"/><rect id="et6hxk70h1ti96" width="2.400000" height="1.200000" rx="0" ry="0" transform="matrix(1 0 0 1 40 48.20000000000000)" fill="rgb(87,87,94)" stroke="none" stroke-width="1"/><rect id="et6hxk70h1ti97" width="2.400000" height="1.200000" rx="0" ry="0" transform="matrix(1 0 0 1 17.30000000000000 48.20000000000000)" fill="rgb(87,87,94)" stroke="none" stroke-width="1"/><rect id="et6hxk70h1ti98" width="1.200000" height="1.200000" rx="0" ry="0" transform="matrix(1 0 0 1 23.30000000000000 46.70000000000000)" fill="rgb(87,87,94)" stroke="none" stroke-width="1"/><rect id="et6hxk70h1ti99" width="1.200000" height="1.200000" rx="0" ry="0" transform="matrix(1 0 0 1 21.50000000000000 46.70000000000000)" fill="rgb(87,87,94)" stroke="none" stroke-width="1"/><rect id="et6hxk70h1ti100" width="1.200000" height="1.200000" rx="0" ry="0" transform="matrix(1 0 0 1 19.70000000000000 46.70000000000000)" fill="rgb(87,87,94)" stroke="none" stroke-width="1"/><rect id="et6hxk70h1ti101" width="1.200000" height="1.200000" rx="0" ry="0" transform="matrix(1 0 0 1 28.70000000000000 46.70000000000000)" fill="rgb(87,87,94)" stroke="none" stroke-width="1"/><rect id="et6hxk70h1ti102" width="1.200000" height="1.200000" rx="0" ry="0" transform="matrix(1 0 0 1 26.90000000000000 46.70000000000000)" fill="rgb(87,87,94)" stroke="none" stroke-width="1"/><rect id="et6hxk70h1ti103" width="1.200000" height="1.200000" rx="0" ry="0" transform="matrix(1 0 0 1 25.10000000000000 46.70000000000000)" fill="rgb(87,87,94)" stroke="none" stroke-width="1"/><rect id="et6hxk70h1ti104" width="1.200000" height="1.200000" rx="0" ry="0" transform="matrix(1 0 0 1 34 46.70000000000000)" fill="rgb(87,87,94)" stroke="none" stroke-width="1"/><rect id="et6hxk70h1ti105" width="1.200000" height="1.200000" rx="0" ry="0" transform="matrix(1 0 0 1 35.80000000000000 46.70000000000000)" fill="rgb(87,87,94)" stroke="none" stroke-width="1"/><rect id="et6hxk70h1ti106" width="1.200000" height="1.200000" rx="0" ry="0" transform="matrix(1 0 0 1 37.60000000000000 46.70000000000000)" fill="rgb(87,87,94)" stroke="none" stroke-width="1"/><rect id="et6hxk70h1ti107" width="1.200000" height="1.200000" rx="0" ry="0" transform="matrix(1 0 0 1 39.40000000000000 46.70000000000000)" fill="rgb(87,87,94)" stroke="none" stroke-width="1"/><rect id="et6hxk70h1ti108" width="1.200000" height="1.200000" rx="0" ry="0" transform="matrix(1 0 0 1 32.30000000000000 46.70000000000000)" fill="rgb(87,87,94)" stroke="none" stroke-width="1"/><rect id="et6hxk70h1ti109" width="1.200000" height="1.200000" rx="0" ry="0" transform="matrix(1 0 0 1 30.50000000000000 46.70000000000000)" fill="rgb(87,87,94)" stroke="none" stroke-width="1"/><rect id="et6hxk70h1ti110" width="1.200000" height="1.200000" rx="0" ry="0" transform="matrix(1 0 0 1 41.20000000000000 46.70000000000000)" fill="rgb(87,87,94)" stroke="none" stroke-width="1"/><rect id="et6hxk70h1ti111" width="1.800000" height="1.200000" rx="0" ry="0" transform="matrix(1 0 0 1 17.30000000000000 46.70000000000000)" fill="rgb(87,87,94)" stroke="none" stroke-width="1"/><rect id="et6hxk70h1ti112" width="1.200000" height="0.600000" rx="0" ry="0" transform="matrix(1 0 0 1 23.30000000000000 44.30000000000000)" fill="rgb(87,87,94)" stroke="none" stroke-width="1"/><rect id="et6hxk70h1ti113" width="1.200000" height="0.600000" rx="0" ry="0" transform="matrix(1 0 0 1 21.50000000000000 44.30000000000000)" fill="rgb(87,87,94)" stroke="none" stroke-width="1"/><rect id="et6hxk70h1ti114" width="1.200000" height="0.600000" rx="0" ry="0" transform="matrix(1 0 0 1 19.70000000000000 44.30000000000000)" fill="rgb(87,87,94)" stroke="none" stroke-width="1"/><rect id="et6hxk70h1ti115" width="1.200000" height="0.600000" rx="0" ry="0" transform="matrix(1 0 0 1 28.70000000000000 44.30000000000000)" fill="rgb(87,87,94)" stroke="none" stroke-width="1"/><rect id="et6hxk70h1ti116" width="1.200000" height="0.600000" rx="0" ry="0" transform="matrix(1 0 0 1 26.90000000000000 44.30000000000000)" fill="rgb(87,87,94)" stroke="none" stroke-width="1"/><rect id="et6hxk70h1ti117" width="1.200000" height="0.600000" rx="0" ry="0" transform="matrix(1 0 0 1 25.10000000000000 44.30000000000000)" fill="rgb(87,87,94)" stroke="none" stroke-width="1"/><rect id="et6hxk70h1ti118" width="1.200000" height="0.600000" rx="0" ry="0" transform="matrix(1 0 0 1 34 44.30000000000000)" fill="rgb(87,87,94)" stroke="none" stroke-width="1"/><rect id="et6hxk70h1ti119" width="1.200000" height="0.600000" rx="0" ry="0" transform="matrix(1 0 0 1 35.80000000000000 44.30000000000000)" fill="rgb(87,87,94)" stroke="none" stroke-width="1"/><rect id="et6hxk70h1ti120" width="1.200000" height="0.600000" rx="0" ry="0" transform="matrix(1 0 0 1 37.60000000000000 44.30000000000000)" fill="rgb(87,87,94)" stroke="none" stroke-width="1"/><rect id="et6hxk70h1ti121" width="1.200000" height="0.600000" rx="0" ry="0" transform="matrix(1 0 0 1 39.40000000000000 44.30000000000000)" fill="rgb(87,87,94)" stroke="none" stroke-width="1"/><rect id="et6hxk70h1ti122" width="1.200000" height="0.600000" rx="0" ry="0" transform="matrix(1 0 0 1 32.30000000000000 44.30000000000000)" fill="rgb(87,87,94)" stroke="none" stroke-width="1"/><rect id="et6hxk70h1ti123" width="1.200000" height="0.600000" rx="0" ry="0" transform="matrix(1 0 0 1 30.50000000000000 44.30000000000000)" fill="rgb(87,87,94)" stroke="none" stroke-width="1"/><rect id="et6hxk70h1ti124" width="1.200000" height="0.600000" rx="0" ry="0" transform="matrix(1 0 0 1 41.20000000000000 44.30000000000000)" fill="rgb(87,87,94)" stroke="none" stroke-width="1"/><rect id="et6hxk70h1ti125" width="1.800000" height="0.600000" rx="0" ry="0" transform="matrix(1 0 0 1 17.30000000000000 44.30000000000000)" fill="rgb(87,87,94)" stroke="none" stroke-width="1"/><rect id="et6hxk70h1ti126" width="1.200000" height="1.200000" rx="0" ry="0" transform="matrix(1 0 0 1 23.90000000000000 45.20000000000000)" fill="rgb(87,87,94)" stroke="none" stroke-width="1"/><rect id="et6hxk70h1ti127" width="1.200000" height="1.200000" rx="0" ry="0" transform="matrix(1 0 0 1 22.10000000000000 45.20000000000000)" fill="rgb(87,87,94)" stroke="none" stroke-width="1"/><rect id="et6hxk70h1ti128" width="1.200000" height="1.200000" rx="0" ry="0" transform="matrix(1 0 0 1 20.30000000000000 45.20000000000000)" fill="rgb(87,87,94)" stroke="none" stroke-width="1"/><rect id="et6hxk70h1ti129" width="1.200000" height="1.200000" rx="0" ry="0" transform="matrix(1 0 0 1 29.30000000000000 45.20000000000000)" fill="rgb(87,87,94)" stroke="none" stroke-width="1"/><rect id="et6hxk70h1ti130" width="1.200000" height="1.200000" rx="0" ry="0" transform="matrix(1 0 0 1 27.50000000000000 45.20000000000000)" fill="rgb(87,87,94)" stroke="none" stroke-width="1"/><rect id="et6hxk70h1ti131" width="1.200000" height="1.200000" rx="0" ry="0" transform="matrix(1 0 0 1 25.70000000000000 45.20000000000000)" fill="rgb(87,87,94)" stroke="none" stroke-width="1"/><rect id="et6hxk70h1ti132" width="1.200000" height="1.200000" rx="0" ry="0" transform="matrix(1 0 0 1 34.60000000000000 45.20000000000000)" fill="rgb(87,87,94)" stroke="none" stroke-width="1"/><rect id="et6hxk70h1ti133" width="1.200000" height="1.200000" rx="0" ry="0" transform="matrix(1 0 0 1 36.40000000000000 45.20000000000000)" fill="rgb(87,87,94)" stroke="none" stroke-width="1"/><rect id="et6hxk70h1ti134" width="1.200000" height="1.200000" rx="0" ry="0" transform="matrix(1 0 0 1 38.20000000000000 45.20000000000000)" fill="rgb(87,87,94)" stroke="none" stroke-width="1"/><rect id="et6hxk70h1ti135" width="1.200000" height="1.200000" rx="0" ry="0" transform="matrix(1 0 0 1 32.90000000000000 45.20000000000000)" fill="rgb(87,87,94)" stroke="none" stroke-width="1"/><rect id="et6hxk70h1ti136" width="1.200000" height="1.200000" rx="0" ry="0" transform="matrix(1 0 0 1 31.10000000000000 45.20000000000000)" fill="rgb(87,87,94)" stroke="none" stroke-width="1"/><rect id="et6hxk70h1ti137" width="2.400000" height="1.200000" rx="0" ry="0" transform="matrix(1 0 0 1 40 45.20000000000000)" fill="rgb(87,87,94)" stroke="none" stroke-width="1"/><rect id="et6hxk70h1ti138" width="2.400000" height="1.200000" rx="0" ry="0" transform="matrix(1 0 0 1 17.30000000000000 45.20000000000000)" fill="rgb(87,87,94)" stroke="none" stroke-width="1"/></g></g></g><g id="et6hxk70h1ti139" opacity="0"><g id="et6hxk70h1ti140"><path id="et6hxk70h1ti141" d="M38.400000,58.200000L21.500000,58.200000C20.600000,58.200000,19.900000,57.500000,19.900000,56.500000L19.900000,31.700000C19.900000,30.800000,20.600000,30,21.500000,30L38.400000,30C39.300000,30,40,30.700000,40,31.700000L40,56.600000C40,57.400000,39.300000,58.200000,38.400000,58.200000Z" fill="rgb(62,62,66)" stroke="rgb(210,210,214)" stroke-width="0.782500" stroke-miterlimit="10"/></g></g></svg>