<?xml version="1.0" encoding="utf-8"?>
<!-- Generator: Adobe Illustrator 25.2.3, SVG Export Plug-In . SVG Version: 6.00 Build 0)  -->
<svg version="1.1" id="Layer_1" xmlns="http://www.w3.org/2000/svg" xmlns:xlink="http://www.w3.org/1999/xlink" x="0px" y="0px"
	 viewBox="0 0 225 150" style="enable-background:new 0 0 225 150;" xml:space="preserve">
<style type="text/css">
	.st0{fill:#A6A6AD;}
	.st1{fill:#3E3E42;}
	.st2{opacity:0.1;enable-background:new    ;}
	.st3{fill:#D2D2D6;}
	.st4{fill:#57575E;}
	.st5{opacity:5.000000e-02;enable-background:new    ;}
	.st6{fill:#794C27;}
	.st7{fill:#5E3921;}
	.st8{fill:#3E3E42;stroke:#D2D2D6;stroke-width:0.7825;stroke-miterlimit:10;}
	.st9{stroke:#000000;stroke-width:2;stroke-miterlimit:10;}
	.st10{fill:none;stroke:#FFFFFF;stroke-width:0.25;stroke-linecap:round;stroke-linejoin:round;stroke-miterlimit:10;}
</style>
<g id="Layer_1_1_">
	<g>
		<polygon class="st0" points="49.9,135.1 40.8,135.1 41.6,130.5 49.1,130.5 		"/>
		<path class="st1" d="M63.1,131.8H27.6c-1.4,0-2.9-1.5-2.9-2.9v-24.4c0-1.4,1.1-2.5,2.5-2.5h36.4c1.4,0,2.5,1.1,2.5,2.5v24.4
			C66,130.2,64.5,131.8,63.1,131.8z"/>
		<polygon class="st2" points="49.5,133 49.1,130.5 41.6,130.5 41.2,133 		"/>
		<path class="st3" d="M24.7,126.9v2.4c0,1.4,1.1,2.5,2.5,2.5h36.4c1.4,0,2.5-1.1,2.5-2.5v-2.4c0-0.1,0-0.1-0.1-0.1L24.7,126.9
			C24.7,126.8,24.7,126.8,24.7,126.9z"/>
		<rect x="26.7" y="104.1" class="st4" width="37.2" height="20.7"/>
		<circle class="st0" cx="45.3" cy="129.3" r="1.2"/>
		<path class="st3" d="M51.9,135.5c0,0.2-0.2,0.4-0.4,0.4H39.1c-0.2,0-0.4-0.2-0.4-0.4v-0.4c0-0.2,0.2-0.4,0.4-0.4h12.4
			c0.2,0,0.4,0.2,0.4,0.4V135.5z"/>
	</g>
</g>
<g id="Layer_2_1_">
	<g>
		<path class="st3" d="M58.3,71.2H31.5c-0.7,0-1.2,0.5-1.2,1.2v15.8c0,0.7,0.5,1.2,1.2,1.2h26.8c0.7,0,1.2-0.5,1.2-1.2V72.4
			C59.5,71.7,58.9,71.2,58.3,71.2z"/>
		<path class="st1" d="M60.1,64.3H29.6c-0.6,0-1,0.6-0.9,1.1l1.3,4.8c0.1,0.5,0.6,0.9,1.2,0.9h27.4c0.5,0,1-0.4,1.2-0.9l1.3-4.9
			C61.1,64.9,60.7,64.3,60.1,64.3z"/>
		<polygon class="st4" points="30.9,70.3 29.6,65.2 60.1,65.2 58.8,70.3 		"/>
		<path class="st5" d="M47.6,89.4h-5.4v-0.1c0-0.3,0.3-0.5,0.6-0.5H47C47.3,88.8,47.6,89,47.6,89.4L47.6,89.4z"/>
		<path class="st0" d="M49.9,87.9c0,0.3-0.3,0.6-0.6,0.6h-8.9c-0.3,0-0.6-0.3-0.6-0.6v-4.8c0-0.3,0.3-0.6,0.6-0.6h8.9
			c0.3,0,0.6,0.3,0.6,0.6V87.9z"/>
		<path class="st2" d="M57.4,81.9h-25c-0.3,0-0.6-0.3-0.6-0.6v-8c0-0.3,0.3-0.6,0.6-0.6h25c0.3,0,0.6,0.3,0.6,0.6v8
			C58,81.7,57.7,81.9,57.4,81.9z"/>
		<rect x="34.1" y="71.2" class="st1" width="21.5" height="0.9"/>
		<rect x="39.5" y="80.1" class="st4" width="8.9" height="1.2"/>
		<rect x="37.7" y="80.1" class="st4" width="1.2" height="1.2"/>
		<rect x="35.9" y="80.1" class="st4" width="1.2" height="1.2"/>
		<rect x="50.8" y="80.1" class="st4" width="1.2" height="1.2"/>
		<rect x="52.6" y="80.7" class="st4" width="1.2" height="0.6"/>
		<rect x="54.4" y="80.1" class="st4" width="1.2" height="1.2"/>
		<rect x="56.2" y="80.7" class="st4" width="1.2" height="0.6"/>
		<rect x="49" y="80.1" class="st4" width="1.2" height="1.2"/>
		<rect x="34.1" y="80.1" class="st4" width="1.2" height="1.2"/>
		<rect x="39.8" y="78.7" class="st4" width="1.2" height="1.2"/>
		<rect x="38" y="78.7" class="st4" width="1.2" height="1.2"/>
		<rect x="36.2" y="78.7" class="st4" width="1.2" height="1.2"/>
		<rect x="45.2" y="78.7" class="st4" width="1.2" height="1.2"/>
		<rect x="43.4" y="78.7" class="st4" width="1.2" height="1.2"/>
		<rect x="41.6" y="78.7" class="st4" width="1.2" height="1.2"/>
		<rect x="50.5" y="78.7" class="st4" width="1.2" height="1.2"/>
		<rect x="52.3" y="78.7" class="st4" width="1.2" height="1.2"/>
		<rect x="48.7" y="78.7" class="st4" width="1.2" height="1.2"/>
		<rect x="47" y="78.7" class="st4" width="1.2" height="1.2"/>
		<rect x="54.1" y="78.7" class="st4" width="3.3" height="1.2"/>
		<rect x="32.3" y="80.1" class="st4" width="1.2" height="1.2"/>
		<rect x="32.3" y="78.7" class="st4" width="3.3" height="1.2"/>
		<rect x="38.9" y="77.2" class="st4" width="1.2" height="1.2"/>
		<rect x="37.1" y="77.2" class="st4" width="1.2" height="1.2"/>
		<rect x="35.3" y="77.2" class="st4" width="1.2" height="1.2"/>
		<rect x="44.3" y="77.2" class="st4" width="1.2" height="1.2"/>
		<rect x="42.5" y="77.2" class="st4" width="1.2" height="1.2"/>
		<rect x="40.7" y="77.2" class="st4" width="1.2" height="1.2"/>
		<rect x="49.6" y="77.2" class="st4" width="1.2" height="1.2"/>
		<rect x="51.4" y="77.2" class="st4" width="1.2" height="1.2"/>
		<rect x="53.2" y="77.2" class="st4" width="1.2" height="1.2"/>
		<rect x="47.9" y="77.2" class="st4" width="1.2" height="1.2"/>
		<rect x="46.1" y="77.2" class="st4" width="1.2" height="1.2"/>
		<rect x="55" y="77.2" class="st4" width="2.4" height="1.2"/>
		<rect x="32.3" y="77.2" class="st4" width="2.4" height="1.2"/>
		<rect x="38.3" y="75.7" class="st4" width="1.2" height="1.2"/>
		<rect x="36.5" y="75.7" class="st4" width="1.2" height="1.2"/>
		<rect x="34.7" y="75.7" class="st4" width="1.2" height="1.2"/>
		<rect x="43.7" y="75.7" class="st4" width="1.2" height="1.2"/>
		<rect x="41.9" y="75.7" class="st4" width="1.2" height="1.2"/>
		<rect x="40.1" y="75.7" class="st4" width="1.2" height="1.2"/>
		<rect x="49" y="75.7" class="st4" width="1.2" height="1.2"/>
		<rect x="50.8" y="75.7" class="st4" width="1.2" height="1.2"/>
		<rect x="52.6" y="75.7" class="st4" width="1.2" height="1.2"/>
		<rect x="54.4" y="75.7" class="st4" width="1.2" height="1.2"/>
		<rect x="47.3" y="75.7" class="st4" width="1.2" height="1.2"/>
		<rect x="45.5" y="75.7" class="st4" width="1.2" height="1.2"/>
		<rect x="56.2" y="75.7" class="st4" width="1.2" height="1.2"/>
		<rect x="32.3" y="75.7" class="st4" width="1.8" height="1.2"/>
		<rect x="38.3" y="73.3" class="st4" width="1.2" height="0.6"/>
		<rect x="36.5" y="73.3" class="st4" width="1.2" height="0.6"/>
		<rect x="34.7" y="73.3" class="st4" width="1.2" height="0.6"/>
		<rect x="43.7" y="73.3" class="st4" width="1.2" height="0.6"/>
		<rect x="41.9" y="73.3" class="st4" width="1.2" height="0.6"/>
		<rect x="40.1" y="73.3" class="st4" width="1.2" height="0.6"/>
		<rect x="49" y="73.3" class="st4" width="1.2" height="0.6"/>
		<rect x="50.8" y="73.3" class="st4" width="1.2" height="0.6"/>
		<rect x="52.6" y="73.3" class="st4" width="1.2" height="0.6"/>
		<rect x="54.4" y="73.3" class="st4" width="1.2" height="0.6"/>
		<rect x="47.3" y="73.3" class="st4" width="1.2" height="0.6"/>
		<rect x="45.5" y="73.3" class="st4" width="1.2" height="0.6"/>
		<rect x="56.2" y="73.3" class="st4" width="1.2" height="0.6"/>
		<rect x="32.3" y="73.3" class="st4" width="1.8" height="0.6"/>
		<rect x="38.9" y="74.2" class="st4" width="1.2" height="1.2"/>
		<rect x="37.1" y="74.2" class="st4" width="1.2" height="1.2"/>
		<rect x="35.3" y="74.2" class="st4" width="1.2" height="1.2"/>
		<rect x="44.3" y="74.2" class="st4" width="1.2" height="1.2"/>
		<rect x="42.5" y="74.2" class="st4" width="1.2" height="1.2"/>
		<rect x="40.7" y="74.2" class="st4" width="1.2" height="1.2"/>
		<rect x="49.6" y="74.2" class="st4" width="1.2" height="1.2"/>
		<rect x="51.4" y="74.2" class="st4" width="1.2" height="1.2"/>
		<rect x="53.2" y="74.2" class="st4" width="1.2" height="1.2"/>
		<rect x="47.9" y="74.2" class="st4" width="1.2" height="1.2"/>
		<rect x="46.1" y="74.2" class="st4" width="1.2" height="1.2"/>
		<rect x="55" y="74.2" class="st4" width="2.4" height="1.2"/>
		<rect x="32.3" y="74.2" class="st4" width="2.4" height="1.2"/>
	</g>
</g>
<g id="Layer_4">
	<path class="st4" d="M205,96h-28.2c-1,0-1.7-0.8-1.7-1.7V67.8c0-1,0.8-1.7,1.7-1.7H205c1,0,1.7,0.8,1.7,1.7v26.5
		C206.7,95.2,205.9,96,205,96z"/>
	<g>
		<polygon class="st6" points="191,109.8 188.3,109.8 187.8,111.3 191,111.3 		"/>
		<path class="st7" d="M191,111.3h-3.2l0,0l0,0l0.5-1.5l0,0h2.8l0,0L191,111.3L191,111.3L191,111.3z M187.8,111.2h3.2v-1.4h-2.7
			L187.8,111.2z"/>
	</g>
	<g>
		<polygon class="st6" points="191,109.8 193.7,109.8 194.2,111.3 191,111.3 		"/>
		<path class="st7" d="M194.2,111.3L194.2,111.3H191l0,0l0,0v-1.5l0,0h2.8l0,0L194.2,111.3L194.2,111.3L194.2,111.3z M191,111.2h3.2
			l-0.5-1.4H191V111.2z"/>
	</g>
	<g>
		<polygon class="st4" points="193.7,109.8 191,109.8 190.1,109.8 188.3,109.8 187.8,111.3 190.1,111.3 191,111.3 194.2,111.3 		"/>
		<path class="st4" d="M194.2,111.6h-6.4c-0.1,0-0.2-0.1-0.2-0.1c0-0.1-0.1-0.2,0-0.3l0.5-1.5c0-0.1,0.1-0.2,0.2-0.2h5.5
			c0.1,0,0.2,0.1,0.2,0.2l0.5,1.5c0,0.1,0,0.2,0,0.3C194.4,111.5,194.3,111.6,194.2,111.6z M188.2,110.9h5.6l-0.3-0.8h-5.1
			L188.2,110.9z"/>
	</g>
	<g>
		<polygon class="st3" points="191,112.5 191,112.5 187.8,112.5 189.1,123.2 191,123.2 191,123.2 192.9,123.2 194.2,112.5 		"/>
		<path class="st3" d="M192.9,123.5h-3.7c-0.1,0-0.2-0.1-0.3-0.3l-1.4-10.8c0-0.1,0-0.2,0.1-0.3c0.1-0.1,0.1-0.1,0.2-0.1h6.4
			c0.1,0,0.2,0,0.2,0.1c0.1,0.1,0.1,0.2,0.1,0.3l-1.4,10.8C193.1,123.4,193,123.5,192.9,123.5z M189.4,122.9h3.3l1.3-10.1h-5.8
			L189.4,122.9z"/>
	</g>
	<g>
		<polygon class="st4" points="193.6,119.6 188.4,119.6 187.9,115 194.1,115 		"/>
		<path class="st4" d="M193.6,120h-5.2c-0.2,0-0.3-0.1-0.3-0.3l-0.5-4.6c0-0.1,0-0.2,0.1-0.3s0.1-0.1,0.2-0.1h6.2
			c0.1,0,0.2,0,0.2,0.1s0.1,0.2,0.1,0.3l-0.5,4.6C193.9,119.9,193.8,120,193.6,120z M188.7,119.3h4.7l0.4-3.9h-5.5L188.7,119.3z"/>
	</g>
	<g>
		<g>
			<g>
				<polygon class="st4" points="191,111.3 191,111.3 187.3,111.3 187.3,112.5 191,112.5 191,112.5 194.7,112.5 194.7,111.3 				"/>
			</g>
		</g>
		<g>
			<g>
				<polygon class="st4" points="191,111.3 191,111.3 187.3,111.3 187.3,112.5 191,112.5 191,112.5 194.7,112.5 194.7,111.3 				"/>
			</g>
		</g>
		<g>
			<g>
				<path class="st4" d="M194.7,112.8h-7.5c-0.1,0-0.3-0.1-0.3-0.3v-1.2c0-0.2,0.1-0.3,0.3-0.3h7.5c0.1,0,0.3,0.1,0.3,0.3v1.2
					C195,112.6,194.9,112.8,194.7,112.8z M187.5,112.2h6.9v-0.6h-6.9V112.2z"/>
			</g>
		</g>
	</g>
</g>
<g id="Layer_5">
	<g>
		<path class="st4" d="M197.6,40.8v10c1.2,0,2.3-0.7,2.9-1.8c0.1,0.1,0.2,0.1,0.3,0.1h0.1c0.2,0,0.4-0.1,0.6-0.3
			c0.1-0.2,0.2-0.4,0.2-0.6v-0.8v-1.2v-7.5h-0.4c-0.2,0-0.4-0.2-0.4-0.4v-0.1c0-5.7-4.7-10.4-10.4-10.4s-10.4,4.6-10.4,10.4v0.1
			c0,0.2-0.2,0.4-0.4,0.4h-0.4v9.6c0,0.2,0.1,0.4,0.2,0.6c0.1,0.2,0.3,0.3,0.6,0.3h0.1c0.1,0,0.2,0,0.3-0.1c0.6,1,1.6,1.7,2.9,1.7
			v-10c-1,0-1.8,0.4-2.4,1.1v-2.8c0.3-0.1,0.5-0.3,0.6-0.6l0,0v-0.1c0-2.5,1-4.7,2.6-6.3c1.6-1.6,3.8-2.6,6.3-2.6s4.7,1,6.3,2.6
			c1.6,1.6,2.6,3.8,2.6,6.3v0.1l0,0c0,0.3,0.2,0.6,0.6,0.7V42C199.4,41.3,198.6,40.9,197.6,40.8z"/>
		<path class="st3" d="M201.3,38.8h0.4h0.3c0.2,0,0.4-0.2,0.4-0.4v-0.1c0-6.5-5.3-11.8-11.8-11.8s-11.8,5.3-11.8,11.8v0.1
			c0,0.2,0.2,0.4,0.4,0.4h0.3h0.4c0.2,0,0.4-0.2,0.4-0.4v-0.1c0-5.7,4.7-10.4,10.4-10.4s10.4,4.6,10.4,10.4v0.1
			C200.9,38.6,201.1,38.8,201.3,38.8z"/>
		<path class="st3" d="M178.1,46.5c0,0.7,0.5,1.2,1.2,1.2V44c-0.7,0-1.2,0.5-1.2,1.2V46.5z"/>
		<path class="st3" d="M201.8,47.7c0.7,0,1.2-0.5,1.2-1.2v-1.3c0-0.7-0.5-1.2-1.2-1.2V47.7z"/>
		<path class="st3" d="M183.7,40.8v10h1.2c0.2,0,0.3-0.2,0.3-0.3v-9.4c0-0.2-0.2-0.3-0.3-0.3H183.7z"/>
		<path class="st3" d="M195.8,41.2v9.4c0,0.2,0.2,0.3,0.3,0.3h1.2v-10h-1.2C195.9,40.8,195.8,41,195.8,41.2z"/>
	</g>
</g>
<g id="Layer_3">
	<path class="st8" d="M53.4,54.2H36.5c-0.9,0-1.6-0.7-1.6-1.7V27.7c0-0.9,0.7-1.7,1.6-1.7h16.9c0.9,0,1.6,0.7,1.6,1.7v24.9
		C55,53.4,54.3,54.2,53.4,54.2z"/>
</g>
<path class="st9" d="M184.3,69.5"/>
<polyline class="st10" points="178.7,70.3 180.8,71.5 178.7,72.6 "/>
<line class="st10" x1="181.2" y1="72.7" x2="183.7" y2="72.7"/>
</svg>
