<?xml version="1.0" encoding="utf-8"?>
<!-- Generator: Adobe Illustrator 22.1.0, SVG Export Plug-In . SVG Version: 6.00 Build 0)  -->
<svg version="1.1" id="Layer_1" xmlns="http://www.w3.org/2000/svg" xmlns:xlink="http://www.w3.org/1999/xlink" x="0px" y="0px"
	 viewBox="0 0 512 512" style="enable-background:new 0 0 512 512;" xml:space="preserve">
<style type="text/css">
	.st0{fill:#F4F4F4;}
	.st1{fill:#E8E8E8;}
	.st2{fill:#7B12F8;}
	.st3{fill:#470F96;}
	.st4{fill:#DEDCDD;}
	.st5{fill:#470F96;stroke:#FFFFFF;stroke-miterlimit:10;}
	.st6{fill:#F6F1FD;}
	.st7{fill:#7811F6;}
	.st8{fill:#8112F8;}
</style>
<path class="st0" d="M61,487.5v-398L155.1,0l272.8,0c12.4,0,22.5,10.1,22.5,22.5v467c0,12.4-10.1,22.5-22.5,22.5H85.5
	C72,512,61,501,61,487.5z"/>
<path class="st1" d="M61,89.5v400.1c0,12.4,10.1,22.5,22.5,22.5h40.4c-12.4,0-22.5-10.1-22.5-22.5V89.5L195.5,0l-40.4,0L61,89.5z"/>
<path class="st2" d="M450.4,51V22.5c0-12.4-10.1-22.5-22.5-22.5L155.1,0l-53.6,51H450.4z"/>
<path class="st3" d="M184.6,0l-29.5,0l-53.6,51h83.2V0z"/>
<path class="st4" d="M61,89.5h71.6c12.4,0,22.5-10.1,22.5-22.5V0L61,89.5z"/>
<path class="st2" d="M61,369.5v120c0,12.4,10.1,22.5,22.5,22.5h344.4c12.4,0,22.5-10.1,22.5-22.5v-120H61z"/>
<path class="st5" d="M101.4,489.5v-120H61v120c0,1.9,0.2,3.8,0.7,5.6c0.2,0.7,0.4,1.4,0.7,2.1c0.8,2.1,1.8,4,3.1,5.7
	c0.2,0.3,0.4,0.6,0.7,0.9c0.5,0.6,0.9,1.1,1.5,1.6c1.8,1.8,3.9,3.3,6.2,4.4c0.7,0.3,1.3,0.6,2,0.9c0.7,0.2,1.4,0.5,2.1,0.7
	c1.4,0.4,2.9,0.6,4.5,0.7c0.4,0,0.8,0,1.2,0h40.4C111.5,512,101.5,501.9,101.4,489.5L101.4,489.5z"/>
<g id="tzAWKj.tif">
	<g>
		<path class="st6" d="M219.3,130.2c13.5,0,27,0,40.6,0c17.1,0,34.1-0.1,51.2,0c6.8,0,13.7,0.1,20.5,0.6
			c10.9,0.9,18.9,6.4,24.3,16.1c3.5,6.2,4.1,12.9,4.6,19.8c0.8,10,0.9,20.2,5,29.6c1.7,3.8,4.5,7.4,7.4,10.4
			c7.6,7.8,10.7,20.1,0.6,29.7c-7.9,7.6-10.8,17.2-11.9,27.6c-0.8,7.7-0.6,15.7-2.2,23.2c-2.5,12.2-9.3,21.4-22,24.8
			c-4,1.1-8.2,1.7-12.3,2.2c-4.2,0.5-8.4,0.6-12.7,0.6c-7,0.1-14,0-21,0c-7.9,0-15.8,0.1-23.7,0c-6.6-0.1-13.2-0.5-19.8-0.5
			c-4.4,0-8.8,0.5-13.1,0.5c-7.9-0.1-15.8,0-23.7-0.7c-7.1-0.6-14.1-2.4-19.6-7.1c-5.1-4.4-9.4-9.8-10.4-16.9c-1.1-8-2-16-3.1-24.1
			c-0.6-4.6-1.6-9.1-2.5-13.6c-1.2-6.5-5.2-11.3-9.7-15.7c-4.5-4.5-7.1-9.8-6.6-16.3c0.2-2.3,0.8-4.9,2.1-6.8
			c2.2-3.5,4.8-6.7,7.6-9.7c4.9-5.2,6.5-11.7,7.8-18.3c0.5-2.5,0.9-5.1,1.2-7.7c1-7.8,1.6-15.6,3.1-23.3c2.5-12.2,10.4-19.9,22.2-23
			c5.1-1.4,10.5-1.4,15.8-2C219.3,129.9,219.3,130.1,219.3,130.2z M198,296.1c3.3,2.8,7.2,3.6,11.4,3.6c32.3,0,64.6,0,96.8,0
			c8.1,0,16.2,0.1,24.3,0c10.5-0.1,18.3-7.8,19.6-16.9c0.8-5.4,0.2-11,0.5-16.4c0.4-5.7,0.7-11.6,1.9-17.2
			c2.6-12,5.9-23.7,20.5-26.8c0-1.5,0-2.9,0-4.3c0-5.2,0-5.2-4.9-7.1c-0.5-0.2-0.9-0.5-1.3-0.7c-8.5-4.6-11.5-12.8-13.6-21.3
			c-2.7-10.5-2.8-21.3-2.6-32.2c0.2-12.7-8.7-21.7-21.3-21.7c-39.7,0-79.3,0-119,0c-1.2,0-2.4,0.1-3.6,0.2
			c-11.3,0.9-18,11.5-18.3,21.3c-0.2,7.7,0,15.5-0.7,23.2c-0.9,9.4-2.9,18.7-9.6,26.1c-1.7,1.9-4,3.3-6.2,4.6
			c-1.8,1.1-4.8,1.1-5.7,2.6c-1,1.6-0.3,4.3-0.3,6.5c0,0.4-0.2,0.9,0,1.2c0.6,0.8,1.2,2.1,2,2.3c6.2,1,10.2,4.9,13.2,10
			c4,6.8,5.8,14.2,6.5,21.9c0.7,7.7,0.7,15.5,0.9,23.3C188.8,285.8,191.2,292.1,198,296.1z"/>
		<path class="st7" d="M206.7,135.3c1.2-0.1,2.4-0.2,3.6-0.2c39.7,0,79.3,0,119,0c12.7,0,21.5,9,21.3,21.7
			c-0.2,10.8-0.1,21.6,2.6,32.2c2.2,8.5,5.1,16.8,13.6,21.3c0.4,0.2,0.9,0.5,1.3,0.7c4.9,1.9,4.9,1.9,4.9,7.1c0,1.4,0,2.8,0,4.3
			c-14.6,3.1-17.9,14.8-20.5,26.8c-1.2,5.6-1.5,11.4-1.9,17.2c-0.4,5.5,0.3,11.1-0.5,16.4c-1.4,9.1-9.1,16.8-19.6,16.9
			c-8.1,0.1-16.2,0-24.3,0c-32.3,0-64.6,0-96.8,0c-4.2,0-8.1-0.8-11.4-3.6c0.4-1.2,0.9-2.3,1.3-3.5c0.3-0.9,0.6-1.9,1.1-2.7
			c0.8-1.4,1.7-2.6,2.6-3.9c1.3-1.9,2.4-3.8,3.9-5.5c2.4-2.7,5.1-5.1,7.6-7.7c1.1-1.1,2.2-2.3,2.8-3.7c1.9-4.6,4.4-8.6,8.3-11.9
			c3.2-2.7,6.5-5.5,6-10.5c-0.1-1.4,0.6-2.9,1-4.9c0.6,1.4,0.9,2.2,1.2,3c1.2-11.2,2-22.3,2.5-33.4c0.4-9,0.4-17.9,0.7-26.9
			c0.1-1.7,1.1-3.4,1.6-5.1c0.1,5.9,0.1,11.7,0.2,17.6c0,21.1,0,42.3-0.1,63.4c0,2.2,1.2,2.1,2.7,2.1c11.7,0,23.5,0.2,35.2-0.1
			c8.7-0.2,16.7-2.5,22.9-9.3c7.9-8.7,8.2-28.3-5.8-34.9c-2.4-1.1-4.9-2-7.6-3.1c0.5-0.2,0.9-0.4,1.3-0.6
			c8.4-3.3,13.4-10.8,13.2-19.8c-0.1-6.2-2.9-11.2-7.3-15.4c0.5-0.4,1.1-0.8,1.5-1.1c-1.4-1.5-2.7-2.9-4-4.2
			c1.8-0.2,3.3,0.3,4.7,0.4c2.3,0.2,4.6,0.4,4.6-3.1c0-0.8,1.1-1.5,1.7-2.3c0.6-0.8,1.2-1.5,1.8-2.3c0.8-0.9,1.5-1.7,2.3-2.6
			c0.4-0.5,1.1-0.8,1.4-1.3c2.1-4.2,4.6-7.2,8.6-10.5c0.2-0.2,0.4-0.5,0.4-0.8c0.1-2.6,2.3-3.1,4-4c1.1-0.6,2.6-0.9,3.1-1.7
			c1.8-3.1,3.2-6.5,5.1-10.2c-1.5,0-2.6,0-3.8,0c-38.2,0-76.4,0-114.7,0C209.1,135.7,207.9,135.4,206.7,135.3z"/>
		<path class="st8" d="M238.8,179.4c-0.6,1.7-1.6,3.4-1.6,5.1c-0.4,9-0.3,17.9-0.7,26.9c-0.5,11.1-1.3,22.1-2.5,33.4
			c-0.3-0.8-0.6-1.6-1.2-3c-0.5,2-1.2,3.5-1,4.9c0.5,5-2.8,7.9-6,10.5c-3.9,3.2-6.4,7.3-8.3,11.9c-0.6,1.4-1.7,2.6-2.8,3.7
			c-2.5,2.6-5.2,5-7.6,7.7c-1.5,1.7-2.6,3.7-3.9,5.5c-0.9,1.3-1.8,2.6-2.6,3.9c-0.5,0.8-0.7,1.8-1.1,2.7c-0.4,1.2-0.9,2.3-1.3,3.5
			c-6.9-4-9.3-10.3-9.4-17.9c-0.2-7.8-0.2-15.6-0.9-23.3c-0.7-7.7-2.5-15.2-6.5-21.9c-3-5.1-7-9-13.2-10c-0.8-0.1-1.4-1.4-2-2.3
			c-0.2-0.3,0-0.8,0-1.2c0-2.2-0.7-4.9,0.3-6.5c0.9-1.5,3.8-1.5,5.7-2.6c2.2-1.3,4.5-2.7,6.2-4.6c6.7-7.3,8.7-16.6,9.6-26.1
			c0.7-7.7,0.5-15.5,0.7-23.2c0.3-9.8,7-20.4,18.3-21.3c1.2,0.1,2.4,0.4,3.5,0.4c38.2,0,76.4,0,114.7,0c1.2,0,2.3,0,3.8,0
			c-1.8,3.8-3.3,7.1-5.1,10.2c-0.5,0.9-2,1.2-3.1,1.7c-1.8,0.9-3.9,1.4-4,4c0,0.3-0.2,0.6-0.4,0.8c-4,3.3-6.5,6.4-8.6,10.5
			c-0.3,0.5-0.9,0.8-1.4,1.3c-0.8,0.8-1.6,1.7-2.3,2.6c-0.6,0.7-1.2,1.5-1.8,2.3c-0.6,0.8-1.7,1.5-1.7,2.3c0.1,3.5-2.3,3.3-4.6,3.1
			c-1.5-0.1-2.9-0.6-4.7-0.4c1.3,1.4,2.6,2.8,4,4.2c-0.5,0.3-1,0.7-1.5,1.1c-0.6-0.3-1.2-0.6-1.8-0.9c-3.6-1.5-7.3-3-10.9-4.4
			c-1.5-0.2-3-0.6-4.5-0.6c-12.3,0-24.6,0-36.8,0c-0.2,0.2-0.3,0.3-0.5,0.5C238.9,175.8,238.8,177.6,238.8,179.4z"/>
		<path class="st6" d="M280.8,174.1c3.6,1.5,7.3,3,10.9,4.4c0.6,0.3,1.2,0.6,1.8,0.9c4.4,4.2,7.1,9.2,7.3,15.4
			c0.2,9-4.8,16.5-13.2,19.8c-0.4,0.2-0.8,0.4-1.3,0.6c2.7,1.1,5.2,2,7.6,3.1c14,6.6,13.7,26.2,5.8,34.9c-6.2,6.8-14.2,9.1-22.9,9.3
			c-11.7,0.3-23.5,0.1-35.2,0.1c-1.5,0-2.7,0-2.7-2.1c0.1-21.1,0.1-42.3,0.1-63.4c0.7-0.8,1.3-1.7,2.1-2.4c0.5-0.5,1.2-0.8,1.8-1
			c1.2-0.4,2.5-0.3,3.6-0.9c2.2-1.3,4.3-2.8,6.4-4.2c0,7.4,0,14.9,0,22.3c7.3,0,14.2,0.1,21-0.1c1.5,0,3-0.6,4.4-1.1
			c5.6-2.1,9-7.3,8.4-12.7c-0.8-7-4.2-10.7-11-11.5c-3.9-0.5-7.9-0.4-11.8-0.6c0.6-0.9,1-2.2,1.8-2.7c4.5-2.3,9-4.4,13.6-6.6
			C279.8,175.3,280.2,174.6,280.8,174.1z M253.3,221.6c0,10.4,0,19.9,0,29.5c5.7,0,11.2,0,16.6,0c1.4,0,2.8,0.1,4.2-0.1
			c2-0.2,4-0.5,6-1c7.1-1.8,10.5-6.3,10.5-13.6c0-7-3.5-12-10.6-13C271.2,222.1,262.3,222.1,253.3,221.6z"/>
		<path class="st6" d="M239.5,173.5c-0.2,0.2-0.3,0.3-0.5,0.5C239.1,173.8,239.3,173.6,239.5,173.5z"/>
		<path class="st7" d="M253.3,221.6c9,0.5,18,0.6,26.7,1.8c7.1,1,10.6,6,10.6,13c0,7.3-3.4,11.8-10.5,13.6c-1.9,0.5-4,0.8-6,1
			c-1.4,0.2-2.8,0.1-4.2,0.1c-5.5,0-10.9,0-16.6,0C253.3,241.4,253.3,232,253.3,221.6z"/>
		<path class="st7" d="M252.9,188.5c0.1-1.1,0.2-2.1,0.4-3.6c3.6,0,7.1,0,10.5,0c3.9,0.2,7.9,0.1,11.8,0.6c6.8,0.8,10.3,4.6,11,11.5
			c0.6,5.4-2.8,10.5-8.4,12.7c-1.4,0.5-2.9,1.1-4.4,1.1c-6.8,0.1-13.7,0.1-21,0.1C252.9,203.4,252.9,196,252.9,188.5z M264.9,191.8
			c-6,0.4-7.2,1.6-7.2,7.5c0,1.4-0.2,2.9,0,4.2c0.3,2.3,1.1,4.6,3.7,4.9c5.4,0.6,10.7-0.4,15.6-2.7c2.6-1.2,3.5-3.9,3.1-6.7
			c-0.3-2.6-1.5-4.6-4.3-5.1C272.1,193.2,268.5,192.5,264.9,191.8z"/>
		<path class="st8" d="M264.9,191.8c3.6,0.7,7.3,1.4,10.9,2.1c2.9,0.5,4,2.6,4.3,5.1c0.4,2.8-0.6,5.5-3.1,6.7
			c-4.9,2.3-10.2,3.3-15.6,2.7c-2.6-0.3-3.4-2.7-3.7-4.9c-0.2-1.4,0-2.8,0-4.2C257.7,193.4,258.9,192.2,264.9,191.8z"/>
	</g>
</g>
</svg>
