<?xml version="1.0" encoding="utf-8"?>
<!-- Generator: Adobe Illustrator 22.1.0, SVG Export Plug-In . SVG Version: 6.00 Build 0)  -->
<svg version="1.1" id="Layer_1" xmlns="http://www.w3.org/2000/svg" xmlns:xlink="http://www.w3.org/1999/xlink" x="0px" y="0px"
	 viewBox="0 0 100 100" style="enable-background:new 0 0 100 100;" xml:space="preserve">
<style type="text/css">
	.st0{fill:#FFFFFF;}
	.st1{fill:#ea6871;}
</style>
<path class="st0" d="M50,0c27.6,0,50,22.4,50,50s-22.4,50-50,50S0,77.6,0,50S22.4,0,50,0z"/>
<path class="st1" d="M35.1,30.8c0.1-3.3,2.7-6,6-6.1c3.2-0.2,6.2,2.2,6.5,5.6c0.1,1.6,0.7,2.4,1.9,3.3c4.4,3.4,8.7,6.8,13,10.3
	c0.9,0.7,1.6,1,2.7,0.7c2.5-0.7,5.1,0.4,6.6,2.5c1.5,2.1,1.6,4.8,0.1,6.9c-1.5,2.2-3.6,3.2-6.3,2.9c-0.7,0-1.6,0.1-2.2,0.5
	c-3,2.3-6,4.7-8.9,7.1c-2,1.6-3.7,1.6-4.9,0.1c-1.2-1.5-0.8-3.3,1.2-4.9c2.7-2.2,5.5-4.4,8.3-6.6c1.8-1.4,1.8-2.8-0.1-4.3
	c-4.6-3.7-9.2-7.4-13.9-11c-0.6-0.5-1.7-0.7-2.5-0.6C38.6,37.8,35.1,34.8,35.1,30.8z"/>
<path class="st1" d="M35.1,71c0-3.4,2.8-6.2,6.3-6.3c3.4,0,6.3,2.8,6.3,6.2c0,3.5-2.9,6.5-6.4,6.4C37.9,77.2,35.1,74.4,35.1,71z"/>
</svg>
