<?xml version="1.0" encoding="utf-8"?>
<!-- Generator: Adobe Illustrator 22.1.0, SVG Export Plug-In . SVG Version: 6.00 Build 0)  -->
<svg version="1.1" id="Layer_1" xmlns="http://www.w3.org/2000/svg" xmlns:xlink="http://www.w3.org/1999/xlink" x="0px" y="0px"
	 viewBox="0 0 100 100" style="enable-background:new 0 0 100 100;" xml:space="preserve">
<style type="text/css">
	.st0{fill:#FFFFFF;}
	.st1{fill:#9ACFA4;}
</style>
<path class="st0" d="M50,0c27.6,0,50,22.4,50,50s-22.4,50-50,50S0,77.6,0,50S22.4,0,50,0z"/>
<g>
	<path class="st1" d="M59.1,26c-1.7-0.3-3.4-0.8-5.2-0.9c-2.5-0.2-5.1-0.2-7.6,0c-1.9,0.1-3.9,0.4-5.7,1c-5.8,2.2-8.4,7.2-8.5,12.3
		c-0.2,8.8-0.1,17.5,0,26.3c0,3.2,1.5,6,3.5,8.5c2.3,3,5.8,4.1,9.2,4.4c4.4,0.3,8.9,0.6,13.4-0.6c4.3-1.1,9.2-5.8,9.7-10.2
		c0.2-2,0.1-4.1,0-6.1c0-2,0.2-4-0.1-5.8c-4.7,0-9.1,0-13.4,0c-0.4,0.4-0.7,0.7-1.1,1.1c0,2.8,0,5.6,0,8.7c-1.2,0.6-2.4,1.2-3.5,1.8
		c-1.2-0.7-2.2-1.3-3.2-1.9c0-8.9,0-17.6,0-26.5c1.1-0.6,2.3-1.2,3.5-1.8c1.2,0.7,2.2,1.3,3.3,1.9c0,3,0,5.8,0,8.5
		c0.5,0.5,0.8,0.9,1,1.1c4.6,0,9,0,13.5,0c0-3.7,0-7.2,0-10.8c0-1.9-0.8-3.4-1.7-5C64.5,29.2,62.2,27.3,59.1,26z"/>
</g>
</svg>
