<?xml version="1.0" encoding="utf-8"?>
<!-- Generator: Adobe Illustrator 22.1.0, SVG Export Plug-In . SVG Version: 6.00 Build 0)  -->
<svg version="1.1" id="Layer_1" xmlns="http://www.w3.org/2000/svg" xmlns:xlink="http://www.w3.org/1999/xlink" x="0px" y="0px"
	 viewBox="0 0 512 512" style="enable-background:new 0 0 512 512;" xml:space="preserve">
<style type="text/css">
	.st0{fill:#F4F4F4;}
	.st1{fill:#E8E8E8;}
	.st2{fill:#3EBFFF;}
	.st3{fill:#2F5BBC;}
	.st4{fill:#DEDCDD;}
	.st5{enable-background:new    ;}
	.st6{fill:#495663;}
</style>
<path class="st0" d="M425.9,512H83.5C71.1,512,61,501.9,61,489.5v-467C61,10.1,71.1,0,83.5,0h272.8l94.1,89.5v398
	C450.4,501,439.4,512,425.9,512z"/>
<path class="st1" d="M356.3,0h-40.4L410,89.5v400.1c0,12.4-10.1,22.5-22.5,22.5h40.4c12.4,0,22.5-10.1,22.5-22.5V89.5L356.3,0z"/>
<path class="st2" d="M409.9,51L356.3,0H83.5C71.1,0,61,10.1,61,22.5V51H409.9z"/>
<path class="st3" d="M326.8,51H410L356.3,0h-29.5V51z"/>
<path class="st4" d="M356.3,0v67c0,12.4,10.1,22.5,22.5,22.5h71.6L356.3,0z"/>
<path class="st2" d="M61,369.5v120c0,12.4,10.1,22.5,22.5,22.5h344.4c12.4,0,22.5-10.1,22.5-22.5v-120H61z"/>
<path class="st3" d="M409.9,489.5c0,12.4-10.1,22.5-22.5,22.5h40.4c0.4,0,0.8,0,1.2,0c1.5-0.1,3-0.3,4.5-0.7
	c0.7-0.2,1.4-0.4,2.1-0.7c0.7-0.3,1.4-0.5,2-0.9c2.3-1.1,4.4-2.6,6.2-4.4c0.5-0.5,1-1,1.5-1.6c0.2-0.3,0.4-0.6,0.7-0.9
	c1.3-1.7,2.3-3.7,3.1-5.7c0.3-0.7,0.5-1.4,0.7-2.1c0.5-1.8,0.7-3.7,0.7-5.6v-120h-40.4L409.9,489.5L409.9,489.5z"/>
<g class="st5">
	<path class="st6" d="M147.2,188.5c7.4-7.7,17.9-12.7,29.5-12.7c19.5,0,34.9,12.2,39.8,31.5h-12.2c-4.5-12.8-15-19.3-27.6-19.3
		c-8.2,0-15.6,3.5-21,9.2c-5.4,5.6-8.8,13.2-8.8,22c0,8.5,3.4,16.1,8.8,21.7c5.4,5.6,12.8,9.2,21,9.2c12.9,0,23.9-7.4,28.3-20.4
		h12.1c-4.9,19.4-20.5,32.6-40.4,32.6c-11.6,0-22.1-4.9-29.5-12.7c-7.3-7.8-12.2-18.5-12.2-30.4C135,207.1,139.9,196.3,147.2,188.5z
		"/>
	<path class="st6" d="M269.9,198.3c-1.7-7.7-10-11-17.4-10.9c-5.7,0.1-12.1,2.1-15.5,6.5c-1.7,2.2-2.3,5-2.1,7.9
		c0.6,8.8,10.2,9.9,19.4,10.7c11.7,1.5,26.2,4.5,29.5,18.2c0.4,1.8,0.6,3.9,0.6,5.6c0,16.5-16.3,26-31.7,26
		c-13.2,0-29.2-7.8-30.7-23.1l-0.1-2.3l12.4-0.2l0.1,1.8v-0.5c0.9,7.9,10.5,12.1,18.4,12.1c9.2,0,19.2-5.1,19.2-13.9
		c0-0.9-0.1-1.8-0.4-2.9c-1.5-6.5-10.2-7.6-18.8-8.4c-13.3-1.3-28.9-4.3-30.3-22.1v0.1c-0.5-5.7,1-11.5,4.6-16.2
		c5.7-7.4,16-11.3,25.9-11.3c13.2,0,26.8,6.8,29,22.5L269.9,198.3z"/>
	<path class="st6" d="M337.4,198.3c-1.7-7.7-10-11-17.4-10.9c-5.7,0.1-12.1,2.1-15.5,6.5c-1.7,2.2-2.3,5-2.1,7.9
		c0.6,8.8,10.2,9.9,19.4,10.7c11.7,1.5,26.2,4.5,29.5,18.2c0.4,1.8,0.6,3.9,0.6,5.6c0,16.5-16.3,26-31.7,26
		c-13.2,0-29.2-7.8-30.7-23.1l-0.1-2.3l12.4-0.2l0.1,1.8v-0.5c0.9,7.9,10.5,12.1,18.4,12.1c9.2,0,19.2-5.1,19.2-13.9
		c0-0.9-0.1-1.8-0.4-2.9c-1.5-6.5-10.2-7.6-18.8-8.4c-13.3-1.3-28.9-4.3-30.3-22.1v0.1c-0.5-5.7,1-11.5,4.6-16.2
		c5.7-7.4,16-11.3,25.9-11.3c13.2,0,26.8,6.8,29,22.5L337.4,198.3z"/>
</g>
</svg>
