<?xml version="1.0" encoding="utf-8"?>
<!-- Generator: Adobe Illustrator 22.1.0, SVG Export Plug-In . SVG Version: 6.00 Build 0)  -->
<svg version="1.1" id="Layer_1" xmlns="http://www.w3.org/2000/svg" xmlns:xlink="http://www.w3.org/1999/xlink" x="0px" y="0px"
	 viewBox="0 0 512 512" style="enable-background:new 0 0 512 512;" xml:space="preserve">
<style type="text/css">
	.st0{fill:#F4F4F4;}
	.st1{fill:#E8E8E8;}
	.st2{fill:#2BA977;}
	.st3{fill:#144F36;}
	.st4{fill:#DEDCDD;}
</style>
<path class="st0" d="M427.9,512H83.5C71.1,512,61,501.9,61,489.5v-467C61,10.1,71.1,0,83.5,0h272.8l94.1,89.5v400.1
	C450.4,501.9,440.3,512,427.9,512z"/>
<path class="st1" d="M356.3,0h-40.4L410,89.5v400.1c0,12.4-10.1,22.5-22.5,22.5h40.4c12.4,0,22.5-10.1,22.5-22.5V89.5L356.3,0z"/>
<path class="st2" d="M409.9,51L356.3,0H83.5C71.1,0,61,10.1,61,22.5V51H409.9z"/>
<path class="st3" d="M326.8,51H410L356.3,0h-29.5V51z"/>
<path class="st4" d="M356.3,0v67c0,12.4,10.1,22.5,22.5,22.5h71.6L356.3,0z"/>
<path class="st2" d="M61,369.5v120c0,12.4,10.1,22.5,22.5,22.5h344.4c12.4,0,22.5-10.1,22.5-22.5v-120H61z"/>
<path class="st3" d="M409.9,489.5c0,12.4-10.1,22.5-22.5,22.5h40.4c12.4,0,22.5-10.1,22.5-22.5v-120h-40.4V489.5z"/>
<g>
	<path class="st2" d="M228.4,134.7h29.4v134.7c-15.1,2.8-26.1,4-38.1,4c-35.9,0-54.6-16.1-54.6-46.9c0-29.7,19.8-48.9,50.5-48.9
		c4.8,0,8.4,0.4,12.8,1.5V134.7L228.4,134.7z M229.4,203.4c-3.4-1.1-6.3-1.5-9.9-1.5c-14.9,0-23.5,9.1-23.5,25
		c0,15.5,8.2,24,23.3,24c3.3,0,5.9-0.2,10.1-0.7V203.4L229.4,203.4z"/>
	<path class="st2" d="M305.8,181.2v67.4c0,23.2-1.7,34.4-6.8,44c-4.8,9.3-11,15.1-24,21.5l-27.3-12.9c13-6,19.3-11.4,23.3-19.5
		c4.2-8.3,5.5-17.9,5.5-43.3v-57.4L305.8,181.2L305.8,181.2z M273.5,134.7h29.4v29.9h-29.4V134.7z"/>
</g>
</svg>
