<?xml version="1.0" encoding="utf-8"?>
<!-- Generator: Adobe Illustrator 24.0.3, SVG Export Plug-In . SVG Version: 6.00 Build 0)  -->
<svg version="1.1" id="Layer_1" xmlns="http://www.w3.org/2000/svg" xmlns:xlink="http://www.w3.org/1999/xlink" x="0px" y="0px"
	 viewBox="0 0 100 100" style="enable-background:new 0 0 100 100;" xml:space="preserve">
<style type="text/css">
	.st0{fill:#F58D80;}
	.st1{fill:#A6A6AD;}
	.st2{fill:#3E3E42;}
	.st3{opacity:0.1;enable-background:new    ;}
	.st4{fill:#D2D2D6;}
	.st5{fill:#57575E;}
	.st6{fill:#3A4D57;}
	.st7{fill:#F3EFD2;}
	.st8{fill:#415661;}
	.st9{fill:#E1574C;}
	.st10{fill:#C7C9CA;}
	.st11{fill:#D2D4D5;}
	.st12{fill:#D65449;}
	.st13{fill:#D6554A;}
	.st14{fill:#E7E3C7;}
	.st15{fill:#B4B5B6;}
	.st16{fill:#BDBFC0;}
	.st17{fill:#BCBEBF;}
</style>
<path class="st0" d="M50.5,0.5c-27,0-48.8,22.1-48.8,49.4c0,27.3,21.9,49.4,48.8,49.4c27,0,48.8-22.1,48.8-49.4
	C99.3,22.7,77.5,0.5,50.5,0.5z"/>
<polygon class="st1" points="57.1,75.8 43.8,75.8 45,69.1 55.8,69.1 "/>
<path class="st2" d="M76.3,71H24.5c-2,0-4.2-2.2-4.2-4.2V31.2c0-2,1.6-3.6,3.6-3.6h53c2,0,3.6,1.6,3.6,3.6v35.5
	C80.5,68.7,78.3,71,76.3,71z"/>
<polygon class="st3" points="56.5,72.8 55.8,69.1 45,69.1 44.3,72.8 "/>
<path class="st4" d="M20.3,63.9v3.4c0,2,1.6,3.6,3.6,3.6h53c2,0,3.6-1.6,3.6-3.6v-3.4c0-0.1-0.1-0.2-0.2-0.2H20.5
	C20.4,63.7,20.3,63.8,20.3,63.9z"/>
<rect x="23.3" y="30.6" class="st5" width="54.2" height="30.1"/>
<circle class="st1" cx="50.4" cy="67.3" r="1.8"/>
<path class="st4" d="M60.1,76.4c0,0.4-0.2,0.6-0.6,0.6H41.4c-0.4,0-0.6-0.2-0.6-0.6v-0.6c0-0.4,0.2-0.6,0.6-0.6h18.1
	c0.4,0,0.6,0.2,0.6,0.6V76.4z"/>
<g>
	<g>
		<path class="st6" d="M43.2,51.7C43.2,51.7,43.3,51.6,43.2,51.7c0.1-0.4,0.3-0.7,0.5-0.9c0.6-0.5,1.2-1,1.8-1.3
			c0.4-0.2,0.9-0.5,1.3-0.8c0.4-0.3,0.6-0.7,0.7-1.2c0.3-1.1,0.1-2.2-0.7-3c-0.2-0.2-0.2-0.4,0-0.6c0.3-0.3,0.6-0.6,0.9-0.8
			c0.6,0.6,1.2,1.1,1.8,1.7c0.5,0.4,0.9,0.9,1.4,1.3c0,0-0.1,0.1-0.1,0.1c-0.2,0.2-0.4,0.4-0.6,0.6c-0.9,0.9-1.9,1.9-2.8,2.8
			c-1.2,1.2-2.4,2.3-3.6,3.5c0,0-0.1,0.1-0.1,0.1c-0.3-0.2-0.4-0.5-0.5-0.8c0,0,0-0.1,0-0.1C43.2,52,43.2,51.8,43.2,51.7z"/>
		<path class="st7" d="M59.5,43.7c0,0,0,0.1-0.1,0.1c-1,1-1.9,1.9-2.9,2.9c0,0,0,0,0,0c-0.1-0.1-0.2-0.2-0.2-0.3
			c-0.6-0.6-1.3-1.2-1.9-1.8c-0.3-0.3-0.7-0.6-1.1-0.9c-0.1-0.1-0.2-0.2-0.3-0.3c-0.7-0.7-1.4-1.3-2.1-2c-0.3-0.3-0.6-0.5-0.9-0.8
			c0,0,0.1-0.1,0.1-0.1c0.8-0.8,1.7-1.7,2.5-2.5c0.2-0.2,0.4-0.4,0.6-0.6c0,0,0.1,0,0.1,0c0.2,0.2,0.4,0.4,0.5,0.5
			c-0.2,0.2-0.4,0.4-0.6,0.6c-0.5,0.5-1.1,1-1.6,1.6c-0.1,0.1-0.1,0.3,0,0.4c0.1,0.1,0.2,0.1,0.4-0.1c0.7-0.7,1.4-1.4,2.1-2.1
			c0,0,0.1-0.1,0.1-0.1c0.2,0.2,0.3,0.3,0.5,0.5c-0.2,0.2-0.4,0.4-0.6,0.6c-0.6,0.5-1.1,1.1-1.6,1.6c-0.1,0.1-0.1,0.2,0,0.3
			c0.1,0.1,0.2,0.1,0.3,0c0,0,0.1-0.1,0.1-0.1c0.5-0.5,1-1,1.5-1.5c0.2-0.2,0.5-0.4,0.7-0.6c0.2,0.2,0.3,0.3,0.5,0.5
			c-0.2,0.2-0.4,0.4-0.6,0.6c-0.6,0.5-1.1,1.1-1.7,1.7c0,0-0.1,0.2,0,0.2c0,0.1,0.1,0.1,0.2,0.1c0.1,0,0.2-0.1,0.3-0.1
			c0.7-0.7,1.4-1.4,2.1-2.1c0,0,0.1-0.1,0.1-0.1c0.2,0.3,0.1,0.6,0,0.9c-0.1,0.1-0.3,0.3-0.4,0.4c-0.1,0.1-0.1,0.1-0.2,0.2
			c0,0-0.1,0-0.1,0c-0.4,0.4-0.8,0.8-1.1,1.1c0,0-0.1,0.2,0,0.2c0,0.1,0.1,0.1,0.2,0.1c0.1,0,0.2,0,0.3-0.1c0.3-0.3,0.6-0.6,0.9-0.8
			c0.2,0.2,0.4,0.2,0.6,0.2c0,0-0.1,0.1-0.1,0.1c-0.2,0.2-0.4,0.4-0.5,0.5c0,0-0.1,0.1-0.1,0.1c-0.1,0.1-0.2,0.3-0.1,0.5
			c0.1,0.2,0.2,0.3,0.4,0.3c0.3,0.1,0.4-0.1,0.6-0.3c0.1,0,0.1-0.1,0.2-0.1c0,0.1,0,0.2,0,0.3c-0.2,0.2-0.3,0.3-0.5,0.5
			c-0.1,0.1-0.1,0.2-0.1,0.3c0.1,0.1,0.2,0.1,0.4,0c0.2-0.2,0.3-0.3,0.5-0.5c0.2,0,0.4,0,0.6-0.3c0,0,0.1-0.1,0.1-0.1
			c0.3-0.3,0.5-0.6,0.9-0.8c0.2,0,0.4,0,0.6-0.1c0,0-0.1,0.1-0.1,0.1c-0.1,0.1-0.3,0.3-0.5,0.4c-0.5,0.5-1,1-1.6,1.6
			c-0.1,0.1-0.2,0.3-0.1,0.4c0.1,0.1,0.2,0.1,0.4,0c0.7-0.7,1.4-1.4,2.1-2.1c0,0,0.1-0.1,0.1-0.2C59.1,43.3,59.3,43.5,59.5,43.7z"/>
		<path class="st8" d="M43.7,53.1c0,0,0.1-0.1,0.1-0.1c1.2-1.2,2.4-2.3,3.6-3.5c0.9-0.9,1.9-1.9,2.8-2.8c0.2-0.2,0.4-0.4,0.6-0.6
			c0,0,0.1-0.1,0.1-0.1c0,0,0,0,0.1,0c0.7,0.7,1.4,1.3,2.1,2c0.3,0.3,0.7,0.6,1.1,1c-0.3,0.3-0.5,0.5-0.8,0.8
			c-0.1,0.1-0.2,0.2-0.3,0.3c-0.3,0.3-0.4,0.3-0.7,0c-0.5-0.4-1-0.7-1.6-0.8c-1-0.2-1.8,0.1-2.5,0.8c-0.3,0.3-0.6,0.7-0.8,1.1
			c-0.4,0.8-0.8,1.5-1.4,2C45.3,53.7,44.3,53.7,43.7,53.1z"/>
		<path class="st9" d="M57.9,42.9c-0.4,0.2-0.6,0.5-0.9,0.8c0,0-0.1,0.1-0.1,0.1c-0.4,0-0.5-0.1-0.6-0.4c0-0.1,0-0.2,0-0.3
			c-0.1,0.1-0.2,0.2-0.2,0.3c0,0,0,0,0,0c0,0,0,0,0,0c-0.1,0-0.1,0.1-0.2,0.1c0,0-0.1,0-0.1,0c-0.4,0.1-0.6-0.1-0.6-0.5
			c0,0,0-0.1,0-0.1c0.2-0.2,0.4-0.3,0.5-0.5c0,0,0.1-0.1,0.1-0.1c0.1-0.1,0.2-0.2,0.3-0.2c-0.4,0-0.6-0.1-0.7-0.4c0-0.1,0-0.2,0-0.3
			c0.1-0.1,0.3-0.3,0.4-0.4c0.4-0.1,0.5-0.9,0.2-1.2c-0.8-0.8-1.6-1.6-2.3-2.3c0,0-0.1,0-0.1-0.1c0-0.1,0.1-0.1,0.1-0.2
			c0.2-0.2,0.5-0.2,0.7,0c0.4,0.4,0.8,0.8,1.2,1.2c0.9,0.9,1.8,1.8,2.6,2.7c0.6,0.6,1.1,1.1,1.7,1.7c0.3,0.3,0.2,0.5-0.1,0.8
			c-0.2-0.2-0.5-0.4-0.7-0.6c-0.3-0.3-0.9-0.3-1.2,0C57.9,42.8,57.9,42.8,57.9,42.9z"/>
		<path class="st10" d="M51,46C51,46,50.9,46,51,46c-0.5-0.5-1-0.9-1.5-1.4c-0.6-0.6-1.2-1.1-1.8-1.7c0.3-0.3,0.5-0.5,0.8-0.8
			c0.3-0.3,0.7-0.7,1-1c0.1-0.1,0.3-0.3,0.5-0.4c0.3,0.3,0.6,0.5,0.9,0.8c0.7,0.6,1.4,1.3,2.1,2c0.1,0.1,0.2,0.2,0.3,0.3
			c-0.4,0.4-0.7,0.7-1.1,1.1c-0.2,0.2-0.5,0.5-0.7,0.7C51.3,45.7,51.1,45.8,51,46z M49.8,43.2c0.3,0,0.6-0.2,0.5-0.5
			c0-0.3-0.2-0.5-0.5-0.5c-0.3,0-0.5,0.2-0.5,0.5C49.3,43,49.5,43.2,49.8,43.2z M50.4,43.9c0,0.3,0.3,0.5,0.5,0.5
			c0.3,0,0.5-0.2,0.5-0.5c0-0.3-0.2-0.6-0.6-0.5C50.6,43.4,50.4,43.6,50.4,43.9z"/>
		<path class="st11" d="M51,46c0.2-0.2,0.3-0.3,0.5-0.5c0.2-0.2,0.5-0.5,0.7-0.7c0.4-0.4,0.7-0.7,1.1-1.1c0.4,0.3,0.7,0.6,1.1,0.9
			c0.6,0.6,1.3,1.2,1.9,1.8c0.1,0.1,0.2,0.2,0.2,0.3c-0.2,0.2-0.4,0.3-0.6,0.5c-0.3,0.2-0.5,0.5-0.8,0.7c-0.3,0.3-0.6,0.6-1,0.9
			c0,0-0.1,0-0.1,0.1c-0.4-0.3-0.7-0.6-1.1-1C52.4,47.3,51.7,46.6,51,46z M54.6,47.1c0-0.3-0.3-0.5-0.5-0.5c-0.3,0-0.5,0.3-0.5,0.5
			c0,0.3,0.3,0.6,0.5,0.5C54.4,47.6,54.6,47.4,54.6,47.1z M53.5,45.9c0-0.3-0.2-0.5-0.5-0.5c-0.3,0-0.5,0.2-0.5,0.5
			c0,0.3,0.2,0.5,0.5,0.5C53.2,46.4,53.5,46.1,53.5,45.9z"/>
		<path class="st12" d="M53.5,37.2c0,0,0.1,0,0.1,0.1c0.8,0.8,1.6,1.6,2.3,2.3c0.3,0.3,0.2,1-0.2,1.2c0.1-0.3,0.2-0.6,0-0.9
			c-0.1-0.1-0.2-0.2-0.3-0.3c-0.2-0.2-0.3-0.3-0.5-0.5c-0.1-0.1-0.2-0.2-0.3-0.3c-0.2-0.2-0.3-0.3-0.5-0.5c-0.1-0.1-0.2-0.2-0.4-0.4
			c-0.2-0.2-0.4-0.4-0.5-0.5C53.4,37.4,53.4,37.3,53.5,37.2z"/>
		<path class="st13" d="M57.9,42.9c0-0.1,0.1-0.1,0.1-0.2c0.3-0.3,0.9-0.2,1.2,0c0.2,0.2,0.5,0.4,0.7,0.6c-0.1,0.1-0.2,0.2-0.3,0.3
			c-0.2-0.2-0.4-0.4-0.7-0.6c-0.1-0.1-0.3-0.1-0.4-0.2C58.3,42.9,58.1,42.9,57.9,42.9z"/>
		<path class="st14" d="M55.4,39.6c0.1,0.1,0.2,0.2,0.3,0.3c0,0-0.1,0.1-0.1,0.1c-0.7,0.7-1.4,1.4-2.1,2.1c-0.1,0.1-0.2,0.1-0.3,0.1
			c-0.1,0-0.2-0.1-0.2-0.1c0-0.1,0-0.2,0-0.2c0.5-0.6,1.1-1.1,1.7-1.7C55,40,55.2,39.8,55.4,39.6z"/>
		<path class="st14" d="M53.8,38c0.1,0.1,0.2,0.2,0.4,0.4c0,0-0.1,0-0.1,0.1c-0.7,0.7-1.4,1.4-2.1,2.1c-0.1,0.1-0.3,0.2-0.4,0.1
			c-0.1-0.1-0.1-0.3,0-0.4c0.5-0.5,1-1.1,1.6-1.6C53.4,38.4,53.6,38.2,53.8,38z"/>
		<path class="st14" d="M58.4,42.8c0.1,0.1,0.3,0.1,0.4,0.2c0,0.1-0.1,0.1-0.1,0.2c-0.7,0.7-1.4,1.4-2.1,2.1c-0.1,0.1-0.3,0.1-0.4,0
			c-0.1-0.1-0.1-0.2,0.1-0.4c0.5-0.5,1-1,1.6-1.6c0.1-0.1,0.3-0.3,0.5-0.4C58.4,42.9,58.4,42.9,58.4,42.8z"/>
		<path class="st14" d="M54.7,38.8c0.1,0.1,0.2,0.2,0.3,0.3c-0.2,0.2-0.5,0.4-0.7,0.6c-0.5,0.5-1,1-1.5,1.5c0,0-0.1,0.1-0.1,0.1
			c-0.1,0.1-0.2,0.1-0.3,0c-0.1-0.1-0.1-0.2,0-0.3c0.5-0.5,1.1-1.1,1.6-1.6C54.2,39.2,54.4,39,54.7,38.8z"/>
		<path class="st14" d="M55.2,42c-0.3,0.3-0.6,0.6-0.9,0.8C54.2,42.9,54.1,43,54,43c-0.1,0-0.1-0.1-0.2-0.1c0-0.1,0-0.2,0-0.2
			c0.4-0.4,0.8-0.8,1.1-1.1c0,0,0.1,0,0.1,0C55,41.6,55,41.8,55.2,42z"/>
		<path class="st14" d="M56.3,44c-0.2,0.2-0.3,0.3-0.5,0.5c-0.1,0.1-0.3,0.1-0.4,0c-0.1-0.1-0.1-0.2,0.1-0.3
			c0.2-0.2,0.3-0.3,0.5-0.5C56.1,43.8,56.2,43.9,56.3,44z"/>
		<path class="st13" d="M55.2,42c-0.1-0.2-0.1-0.4,0-0.6c0.1-0.1,0.1-0.1,0.2-0.2c0,0.1,0,0.2,0,0.3c0.1,0.3,0.3,0.4,0.7,0.4
			c-0.1,0.1-0.2,0.2-0.3,0.2C55.6,42.2,55.3,42.2,55.2,42z"/>
		<path class="st13" d="M55.1,42.9c0,0,0,0.1,0,0.1c0,0.4,0.2,0.6,0.6,0.5c0,0,0.1,0,0.1,0c-0.2,0.2-0.3,0.3-0.6,0.3
			c-0.2,0-0.3-0.2-0.4-0.3c0-0.2,0-0.3,0.1-0.5C55.1,42.9,55.1,42.9,55.1,42.9z"/>
		<path class="st13" d="M56.3,44c-0.1-0.1-0.2-0.2-0.3-0.3c0-0.1,0-0.2,0-0.3c0,0,0,0,0,0c0,0,0,0,0,0c0.1-0.1,0.1-0.2,0.2-0.3
			c0,0.1,0,0.2,0,0.3c0.1,0.3,0.2,0.4,0.6,0.4C56.7,44,56.5,44.1,56.3,44z"/>
		<path class="st7" d="M56,43.4C56,43.4,56,43.4,56,43.4C56,43.4,56,43.4,56,43.4z"/>
		<path class="st15" d="M49.8,43.2c-0.3,0-0.5-0.2-0.5-0.5c0-0.3,0.2-0.5,0.5-0.5c0.3,0,0.5,0.2,0.5,0.5
			C50.3,43,50.1,43.2,49.8,43.2z"/>
		<path class="st15" d="M50.4,43.9c0-0.3,0.2-0.5,0.5-0.5c0.3,0,0.6,0.2,0.6,0.5c0,0.3-0.3,0.5-0.5,0.5
			C50.7,44.4,50.4,44.2,50.4,43.9z"/>
		<path class="st16" d="M54.6,47.1c0,0.3-0.2,0.5-0.5,0.5c-0.3,0-0.5-0.2-0.5-0.5c0-0.3,0.3-0.5,0.5-0.5
			C54.3,46.5,54.7,46.7,54.6,47.1z"/>
		<path class="st17" d="M53.5,45.9c0,0.3-0.3,0.5-0.5,0.5c-0.3,0-0.5-0.2-0.5-0.5c0-0.3,0.2-0.5,0.5-0.5
			C53.2,45.3,53.5,45.6,53.5,45.9z"/>
	</g>
</g>
</svg>
