<?xml version="1.0" encoding="utf-8"?>
<!-- Generator: Adobe Illustrator 22.1.0, SVG Export Plug-In . SVG Version: 6.00 Build 0)  -->
<svg version="1.1" id="Layer_1" xmlns="http://www.w3.org/2000/svg" xmlns:xlink="http://www.w3.org/1999/xlink" x="0px" y="0px"
	 viewBox="0 0 512 512" style="enable-background:new 0 0 512 512;" xml:space="preserve">
<style type="text/css">
	.st0{fill:#F4F4F4;}
	.st1{fill:#E8E8E8;}
	.st2{fill:#F34F28;}
	.st3{fill:#A5331C;}
	.st4{fill:#DEDCDD;}
	.st5{fill:#A5331C;stroke:#FFFFFF;stroke-miterlimit:10;}
</style>
<path class="st0" d="M61,487.5v-398L155.1,0l272.8,0c12.4,0,22.5,10.1,22.5,22.5v467c0,12.4-10.1,22.5-22.5,22.5H85.5
	C72,512,61,501,61,487.5z"/>
<path class="st1" d="M61,89.5v400.1c0,12.4,10.1,22.5,22.5,22.5h40.4c-12.4,0-22.5-10.1-22.5-22.5V89.5L195.5,0l-40.4,0L61,89.5z"/>
<path class="st2" d="M450.4,51V22.5c0-12.4-10.1-22.5-22.5-22.5L155.1,0l-53.6,51H450.4z"/>
<path class="st3" d="M184.6,0l-29.5,0l-53.6,51h83.2V0z"/>
<path class="st4" d="M61,89.5h71.6c12.4,0,22.5-10.1,22.5-22.5V0L61,89.5z"/>
<path class="st2" d="M61,369.5v120c0,12.4,10.1,22.5,22.5,22.5h344.4c12.4,0,22.5-10.1,22.5-22.5v-120H61z"/>
<path class="st5" d="M101.4,489.5v-120H61v120c0,1.9,0.2,3.8,0.7,5.6c0.2,0.7,0.4,1.4,0.7,2.1c0.8,2.1,1.8,4,3.1,5.7
	c0.2,0.3,0.4,0.6,0.7,0.9c0.5,0.6,0.9,1.1,1.5,1.6c1.8,1.8,3.9,3.3,6.2,4.4c0.7,0.3,1.3,0.6,2,0.9c0.7,0.2,1.4,0.5,2.1,0.7
	c1.4,0.4,2.9,0.6,4.5,0.7c0.4,0,0.8,0,1.2,0h40.4C111.5,512,101.5,501.9,101.4,489.5L101.4,489.5z"/>
<g>
	<path class="st2" d="M368,218c0,3.7,0,7.3,0,11c-1.2,1.1-2.5,2.1-3.7,3.2c-28.2,28.2-56.4,56.4-84.6,84.6c-2,2-4.4,3.5-6.7,5.2
		c-3,0-6,0-9,0c-1.8-1.6-3.6-3.1-5.3-4.8c-28.3-28.3-56.7-56.6-85-85c-1.1-1.1-2.5-2.1-3.7-3.2c0-4.3,0-8.7,0-13
		c1.2-1.1,2.5-2.1,3.7-3.2c18.6-18.6,37.2-37.2,55.8-55.8c1.1-1.1,2.3-2.2,3.5-3.2c7.8,7.8,15.3,15.3,22.9,22.9
		c-2.3,9.4-0.4,13.6,5.9,18.4c1.1,0.8,2.1,2.5,2.1,3.8c0.1,17.6,0.1,35.3,0.1,52.8c-8.6,3.5-9.8,10.7-8.9,17.3
		c0.6,4.6,8.2,10.5,13.5,11c4.7,0.5,12.7-5.1,14.4-9.9c2.5-7.3,0.1-13.2-7.6-18.6c0-18.2,0-36.3,0-55.7c5.4,5.5,9.7,10.3,14.5,14.6
		c4.5,4,7.1,8.2,6.3,14.6c-0.6,4.5,4.3,10.6,8.3,12.2c9.7,4,21.1-3.2,19.8-13.5c-1.2-9.4-7.6-15.5-16.8-13.7
		c-1.3,0.3-3.4-0.4-4.4-1.4c-6.4-6.1-12.6-12.4-18.7-18.7c-0.8-0.8-1.4-2.5-1.1-3.4c3.9-9.6-8.5-21.5-18.9-17.6
		c-7.8-7.8-15.5-15.5-22.2-22.2c6.9-7.5,13.9-15.1,20.8-22.6c3.7,0,7.3,0,11,0c1.8,1.6,3.6,3.1,5.3,4.8c28,27.9,55.9,55.9,83.8,83.8
		C364.9,214.4,366.4,216.2,368,218z"/>
</g>
</svg>
