<?xml version="1.0" encoding="utf-8"?>
<!-- Generator: Adobe Illustrator 22.1.0, SVG Export Plug-In . SVG Version: 6.00 Build 0)  -->
<svg version="1.1" id="Layer_1" xmlns="http://www.w3.org/2000/svg" xmlns:xlink="http://www.w3.org/1999/xlink" x="0px" y="0px"
	 viewBox="0 0 512 512" style="enable-background:new 0 0 512 512;" xml:space="preserve">
<style type="text/css">
	.st0{fill:#F4F4F4;}
	.st1{fill:#E8E8E8;}
	.st2{fill:#E535AB;}
	.st3{fill:#660C4C;}
	.st4{fill:#DEDCDD;}
</style>
<path class="st0" d="M427.9,512H83.5C71.1,512,61,501.9,61,489.5v-467C61,10.1,71.1,0,83.5,0h272.8l94.1,89.5v400.1
	C450.4,501.9,440.3,512,427.9,512z"/>
<path class="st1" d="M356.3,0h-40.4L410,89.5v400.1c0,12.4-10.1,22.5-22.5,22.5h40.4c12.4,0,22.5-10.1,22.5-22.5V89.5L356.3,0z"/>
<path class="st2" d="M409.9,51L356.3,0H83.5C71.1,0,61,10.1,61,22.5V51H409.9z"/>
<path class="st3" d="M326.8,51H410L356.3,0h-29.5V51z"/>
<path class="st4" d="M356.3,0v67c0,12.4,10.1,22.5,22.5,22.5h71.6L356.3,0z"/>
<path class="st2" d="M61,369.5v120c0,12.4,10.1,22.5,22.5,22.5h344.4c12.4,0,22.5-10.1,22.5-22.5v-120H61z"/>
<path class="st3" d="M409.9,489.5c0,12.4-10.1,22.5-22.5,22.5h40.4c12.4,0,22.5-10.1,22.5-22.5v-120h-40.4V489.5z"/>
<g>
	<g>
		<g>
			<rect x="137.9" y="195" transform="matrix(0.5 -0.866 0.866 0.5 -67.1295 281.2492)" class="st2" width="144.2" height="7.5"/>
		</g>
	</g>
	<g>
		<g>
			<rect x="169.2" y="249.3" class="st2" width="144.2" height="7.5"/>
		</g>
	</g>
	<g>
		<g>
			<rect x="206.3" y="229.5" transform="matrix(0.5 -0.866 0.866 0.5 -129.7934 317.4475)" class="st2" width="7.5" height="83.3"/>
		</g>
	</g>
	<g>
		<g>
			<rect x="268.9" y="121" transform="matrix(0.5 -0.866 0.866 0.5 -4.4895 317.4434)" class="st2" width="7.5" height="83.3"/>
		</g>
	</g>
	<g>
		<g>
			<rect x="168.4" y="158.8" transform="matrix(0.866 -0.5 0.5 0.866 -53.1504 126.8076)" class="st2" width="83.3" height="7.5"/>
		</g>
	</g>
	<g>
		<g>
			<rect x="269" y="126.7" transform="matrix(0.866 -0.5 0.5 0.866 -62.8436 162.9957)" class="st2" width="7.5" height="144.2"/>
		</g>
	</g>
	<g>
		<g>
			<rect x="175" y="175.2" class="st2" width="7.5" height="83.3"/>
		</g>
	</g>
	<g>
		<g>
			<rect x="300.3" y="175.2" class="st2" width="7.5" height="83.3"/>
		</g>
	</g>
	<g>
		<g>
			<rect x="236.5" y="267.8" transform="matrix(0.866 -0.5 0.5 0.866 -99.0141 172.6601)" class="st2" width="72.4" height="6.5"/>
		</g>
	</g>
	<path class="st2" d="M317.7,260.9c-4.3,7.5-14,10.1-21.5,5.8c-7.5-4.3-10.1-14-5.8-21.5c4.3-7.5,14-10.1,21.5-5.8
		C319.5,243.8,322,253.4,317.7,260.9"/>
	<path class="st2" d="M192.2,188.5c-4.3,7.5-14,10.1-21.5,5.8c-7.5-4.3-10.1-14-5.8-21.5c4.3-7.5,14-10.1,21.5-5.8
		C194,171.4,196.6,181,192.2,188.5"/>
	<path class="st2" d="M165.1,260.9c-4.3-7.5-1.8-17.1,5.8-21.5c7.5-4.3,17.1-1.8,21.5,5.8c4.3,7.5,1.8,17.1-5.8,21.5
		C179,271,169.4,268.4,165.1,260.9"/>
	<path class="st2" d="M290.5,188.5c-4.3-7.5-1.8-17.1,5.8-21.5c7.5-4.3,17.1-1.8,21.5,5.8c4.3,7.5,1.8,17.1-5.8,21.5
		C304.4,198.6,294.8,196,290.5,188.5"/>
	<path class="st2" d="M241.4,305c-8.7,0-15.7-7-15.7-15.7s7-15.7,15.7-15.7s15.7,7,15.7,15.7C257.1,297.9,250,305,241.4,305"/>
	<path class="st2" d="M241.4,160.1c-8.7,0-15.7-7-15.7-15.7s7-15.7,15.7-15.7s15.7,7,15.7,15.7S250,160.1,241.4,160.1"/>
</g>
</svg>
