<?xml version="1.0" encoding="utf-8"?>
<!-- Generator: Adobe Illustrator 22.1.0, SVG Export Plug-In . SVG Version: 6.00 Build 0)  -->
<svg version="1.1" id="Layer_1" xmlns="http://www.w3.org/2000/svg" xmlns:xlink="http://www.w3.org/1999/xlink" x="0px" y="0px"
	 viewBox="0 0 512 512" style="enable-background:new 0 0 512 512;" xml:space="preserve">
<style type="text/css">
	.st0{fill:#F4F4F4;}
	.st1{fill:#E8E8E8;}
	.st2{fill:#FBA826;}
	.st3{fill:#E09721;}
	.st4{fill:#DEDCDD;}
	.st5{enable-background:new    ;}
	.st6{fill:#495663;}
</style>
<path class="st0" d="M425.9,512H83.5C71.1,512,61,501.9,61,489.5v-467C61,10.1,71.1,0,83.5,0h272.8l94.1,89.5v398
	C450.4,501,439.4,512,425.9,512z"/>
<path class="st1" d="M356.3,0h-40.4L410,89.5v400.1c0,12.4-10.1,22.5-22.5,22.5h40.4c12.4,0,22.5-10.1,22.5-22.5V89.5L356.3,0z"/>
<path class="st2" d="M409.9,51L356.3,0H83.5C71.1,0,61,10.1,61,22.5V51H409.9z"/>
<path class="st3" d="M326.8,51H410L356.3,0h-29.5V51z"/>
<path class="st4" d="M356.3,0v67c0,12.4,10.1,22.5,22.5,22.5h71.6L356.3,0z"/>
<path class="st2" d="M61,369.5v120c0,12.4,10.1,22.5,22.5,22.5h344.4c12.4,0,22.5-10.1,22.5-22.5v-120H61z"/>
<path class="st3" d="M409.9,489.5c0,12.4-10.1,22.5-22.5,22.5h40.4c0.4,0,0.8,0,1.2,0c1.5-0.1,3-0.3,4.5-0.7
	c0.7-0.2,1.4-0.4,2.1-0.7c0.7-0.3,1.4-0.5,2-0.9c2.3-1.1,4.4-2.6,6.2-4.4c0.5-0.5,1-1,1.5-1.6c0.2-0.3,0.4-0.6,0.7-0.9
	c1.3-1.7,2.3-3.7,3.1-5.7c0.3-0.7,0.5-1.4,0.7-2.1c0.5-1.8,0.7-3.7,0.7-5.6v-120h-40.4L409.9,489.5L409.9,489.5z"/>
<g class="st5">
	<path class="st6" d="M148.8,219.2h30.6v-30.5h10.6V261h-10.6v-31.5h-30.6V261h-10.4v-72.3h10.4V219.2z"/>
	<path class="st6" d="M214.9,261.3v-62.2h-21.9v-10.6h54.2v10.6h-21.8v62.2H214.9z"/>
	<path class="st6" d="M262.7,261h-10.4v-72.4h8.5l23.9,35.2l23.9-35.2h8.3V261h-10.3v-51l-18.9,28.1h-5.9L262.7,210V261z"/>
	<path class="st6" d="M335.2,250.6h34V261h-44.5v-72.3h10.4V250.6z"/>
</g>
</svg>
