<?xml version="1.0" encoding="utf-8"?>
<!-- Generator: Adobe Illustrator 22.1.0, SVG Export Plug-In . SVG Version: 6.00 Build 0)  -->
<svg version="1.1" id="Layer_1" xmlns="http://www.w3.org/2000/svg" xmlns:xlink="http://www.w3.org/1999/xlink" x="0px" y="0px"
	 viewBox="0 0 512 512" style="enable-background:new 0 0 512 512;" xml:space="preserve">
<style type="text/css">
	.st0{fill:#F4F4F4;}
	.st1{fill:#E8E8E8;}
	.st2{fill:#FC7B00;}
	.st3{fill:#261300;}
	.st4{fill:#DEDCDD;}
	.st5{fill:#FA7A01;}
	.st6{fill:#FC7A00;}
	.st7{fill:#FB7A00;}
	.st8{fill:#291400;}
</style>
<path class="st0" d="M427.9,512H83.5C71.1,512,61,501.9,61,489.5v-467C61,10.1,71.1,0,83.5,0h272.8l94.1,89.5v400.1
	C450.4,501.9,440.3,512,427.9,512z"/>
<path class="st1" d="M356.3,0h-40.4l94.1,89.5v400.1c0,12.4-10.1,22.5-22.5,22.5h40.4c12.4,0,22.5-10.1,22.5-22.5V89.5L356.3,0z"/>
<path class="st2" d="M409.9,51L356.3,0H83.5C71.1,0,61,10.1,61,22.5V51H409.9z"/>
<path class="st3" d="M326.8,51h83.2L356.3,0h-29.5V51z"/>
<path class="st4" d="M356.3,0v67c0,12.4,10.1,22.5,22.5,22.5h71.6L356.3,0z"/>
<path class="st2" d="M61,369.5v120c0,12.4,10.1,22.5,22.5,22.5h344.4c12.4,0,22.5-10.1,22.5-22.5v-120H61z"/>
<path class="st3" d="M409.9,489.5c0,12.4-10.1,22.5-22.5,22.5h40.4c12.4,0,22.5-10.1,22.5-22.5v-120h-40.4V489.5z"/>
<g>
	<path class="st5" d="M176.4,279.4c0-38.4,0-76.8,0-115.2c39.4,0,78.7,0,118.1,0c0,38.4,0,76.8,0,115.2
		C255,279.4,215.7,279.4,176.4,279.4z M289.5,169.3c-36.1,0-72,0-108,0c0,35.1,0,70.1,0,105.1c36,0,72,0,108,0
		C289.5,239.3,289.5,204.3,289.5,169.3z"/>
	<path class="st3" d="M289.5,169.3c0,35.1,0,70,0,105.1c-36,0-71.9,0-108,0c0-35,0-70,0-105.1C217.5,169.3,253.4,169.3,289.5,169.3z
		 M246.5,244.7c-0.1-0.5-0.1-0.8-0.2-1.1c-5.1-17.4-10.3-34.8-15.4-52.2c-0.2-0.7-0.5-1-1.3-1c-3,0-6.1,0-9.1,0
		c-0.8,0-1.1,0.3-1.2,1.1c-0.1,1.5-0.3,3-0.7,4.4c-4.4,15.7-8.9,31.4-13.4,47.2c-0.1,0.5-0.2,1-0.3,1.6c0.5,0,0.9,0.1,1.3,0.1
		c2,0,3.9,0,5.9,0c0.9,0,1.3-0.2,1.6-1.2c1.1-4.2,2.2-8.4,3.3-12.6c0.3-1.1,0.6-1.5,1.8-1.5c4.3,0.1,8.6,0.1,13,0
		c1.1,0,1.5,0.4,1.8,1.4c1.1,4.3,2.3,8.5,3.5,12.7c0.1,0.4,0.5,1.1,0.8,1.1C240.7,244.7,243.5,244.7,246.5,244.7z M262.6,224.7
		c0-6.2,0-12.5,0-18.7c0-1.1-0.3-1.4-1.4-1.3c-2.1,0.1-4.2,0-6.4,0c-0.9,0-1.2,0.3-1.2,1.2c0,12.5,0,25.1,0,37.6
		c0,1,0.4,1.2,1.3,1.2c2.1,0,4.2-0.1,6.4,0c1,0,1.3-0.3,1.3-1.3C262.6,237.2,262.6,231,262.6,224.7z M263.3,194.1c0-3-2-5.1-5-5.1
		c-3,0-5.1,2-5.1,5c0,3.2,1.8,5.1,4.9,5.1C261.3,199.2,263.3,197.2,263.3,194.1z"/>
	<path class="st6" d="M246.5,244.7c-3,0-5.9,0-8.7,0c-0.3,0-0.7-0.7-0.8-1.1c-1.2-4.2-2.4-8.5-3.5-12.7c-0.3-1-0.6-1.4-1.8-1.4
		c-4.3,0.1-8.6,0.1-13,0c-1.2,0-1.6,0.4-1.8,1.5c-1,4.2-2.2,8.4-3.3,12.6c-0.2,0.9-0.7,1.2-1.6,1.2c-2-0.1-3.9,0-5.9,0
		c-0.4,0-0.8,0-1.3-0.1c0.1-0.6,0.2-1.1,0.3-1.6c4.5-15.7,9-31.4,13.4-47.2c0.4-1.4,0.6-2.9,0.7-4.4c0.1-0.8,0.3-1.1,1.2-1.1
		c3,0,6.1,0,9.1,0c0.7,0,1.1,0.3,1.3,1c5.1,17.4,10.2,34.8,15.4,52.2C246.4,243.8,246.4,244.2,246.5,244.7z M219.6,221.3
		c3.8,0,7.5,0,11.4,0c-1.9-7.6-3.8-15-5.8-22.5C223.4,206.3,221.5,213.8,219.6,221.3z"/>
	<path class="st2" d="M262.6,224.7c0,6.2,0,12.5,0,18.7c0,1-0.3,1.3-1.3,1.3c-2.1-0.1-4.2-0.1-6.4,0c-0.9,0-1.3-0.2-1.3-1.2
		c0-12.5,0-25.1,0-37.6c0-0.9,0.3-1.2,1.2-1.2c2.1,0,4.2,0.1,6.4,0c1,0,1.4,0.3,1.4,1.3C262.6,212.3,262.6,218.5,262.6,224.7z"/>
	<path class="st7" d="M263.3,194.1c0,3.1-2,5-5.2,5c-3.1,0-4.9-2-4.9-5.1c0-3,2.1-5,5.1-5C261.3,189.1,263.3,191.1,263.3,194.1z"/>
	<path class="st8" d="M219.6,221.3c1.9-7.5,3.7-14.9,5.6-22.5c1.9,7.5,3.8,14.9,5.8,22.5C227.2,221.3,223.4,221.3,219.6,221.3z"/>
</g>
</svg>
