<?xml version="1.0" encoding="utf-8"?>
<!-- Generator: Adobe Illustrator 22.1.0, SVG Export Plug-In . SVG Version: 6.00 Build 0)  -->
<svg version="1.1" id="Layer_1" xmlns="http://www.w3.org/2000/svg" xmlns:xlink="http://www.w3.org/1999/xlink" x="0px" y="0px"
	 viewBox="0 0 512 512" style="enable-background:new 0 0 512 512;" xml:space="preserve">
<style type="text/css">
	.st0{fill:#F4F4F4;}
	.st1{fill:#E8E8E8;}
	.st2{fill:#F6D867;}
	.st3{fill:#E0C55E;}
	.st4{fill:#DEDCDD;}
	.st5{enable-background:new    ;}
	.st6{fill:#495663;}
</style>
<path class="st0" d="M427.9,512H83.5C71.1,512,61,501.9,61,489.5v-467C61,10.1,71.1,0,83.5,0h272.8l94.1,89.5v400.1
	C450.4,501.9,440.3,512,427.9,512z"/>
<path class="st1" d="M356.3,0h-40.4L410,89.5v400.1c0,12.4-10.1,22.5-22.5,22.5h40.4c12.4,0,22.5-10.1,22.5-22.5V89.5L356.3,0z"/>
<path class="st2" d="M409.9,51L356.3,0H83.5C71.1,0,61,10.1,61,22.5V51H409.9z"/>
<path class="st3" d="M326.8,51H410L356.3,0h-29.5V51z"/>
<path class="st4" d="M356.3,0v67c0,12.4,10.1,22.5,22.5,22.5h71.6L356.3,0z"/>
<path class="st2" d="M61,369.5v120c0,12.4,10.1,22.5,22.5,22.5h344.4c12.4,0,22.5-10.1,22.5-22.5v-120H61z"/>
<path class="st3" d="M409.9,489.5c0,12.4-10.1,22.5-22.5,22.5h40.4c12.4,0,22.5-10.1,22.5-22.5v-120h-40.4V489.5z"/>
<g class="st5">
	<path class="st6" d="M238.2,237.4c0,25.1-20.6,36.5-46.5,36.5v-12.2c19.1,0,34.3-7.6,34.3-24.3v-35.7h-22.8v-12h34.9V237.4z"/>
	<path class="st6" d="M291.2,211.3c-1.7-7.6-9.9-10.8-17.2-10.7c-5.7,0.1-11.9,2-15.3,6.4c-1.7,2.2-2.3,4.9-2,7.8
		c0.6,8.7,10.1,9.8,19.1,10.6c11.6,1.4,25.9,4.5,29.1,17.9c0.4,1.8,0.6,3.9,0.6,5.5c0,16.3-16.1,25.7-31.3,25.7
		c-13,0-28.8-7.7-30.4-22.8l-0.1-2.3l12.3-0.2l0.1,1.8v-0.5c0.8,7.8,10.4,11.9,18.2,11.9c9,0,18.9-5.1,18.9-13.7
		c0-0.8-0.1-1.8-0.4-2.9c-1.4-6.4-10.1-7.5-18.5-8.3c-13.1-1.3-28.5-4.2-29.9-21.8v0.1c-0.5-5.7,1-11.3,4.6-16
		c5.7-7.3,15.8-11.2,25.5-11.2c13,0,26.5,6.7,28.7,22.2L291.2,211.3z"/>
</g>
</svg>
