<?xml version="1.0" encoding="utf-8"?>
<!-- Generator: Adobe Illustrator 22.1.0, SVG Export Plug-In . SVG Version: 6.00 Build 0)  -->
<svg version="1.1" id="Layer_1" xmlns="http://www.w3.org/2000/svg" xmlns:xlink="http://www.w3.org/1999/xlink" x="0px" y="0px"
	 viewBox="0 0 100 100" style="enable-background:new 0 0 100 100;" xml:space="preserve">
<style type="text/css">
	.st0{fill:#FFFFFF;}
	.st1{fill:#FEDE9A;}
</style>
<path class="st0" d="M50,0c27.6,0,50,22.4,50,50s-22.4,50-50,50S0,77.6,0,50S22.4,0,50,0z"/>
<g>
	<path class="st1" d="M62.9,35.3c0,0-0.3-1.3,1.1-1.3c1.4,0,1.3,1.5,1.3,2.1c-0.1,0.7,0,1.3,0.7,1.5c0.7,0.2,1,0.1,0.9,0.8
		c-0.1,0.7-1.4,0.8-1.1,1.6c0.1,0.8,0.1,1.5-0.7,1.7c-0.8,0.2-1.5-0.9-1.5-0.9s-0.5,1.6-1.1,1.6s-1.4-0.8-0.7-2.1
		c0.7-1.3,0.3-1.5-0.1-1.4c-0.5,0.1-1.7,0-1.4-1.6c0,0-0.1-1,1-1C62.5,36.3,63.2,37.5,62.9,35.3z"/>
	<path class="st1" d="M54.1,34.1c0,0,1.1-0.1,1.4-0.6c0.3-0.6,0.6-0.9,1.3-0.7c0.6,0.2,0.5,0.8,0.6,1.3s0.5,0.6,1,0.2
		c0.6-0.3,2.5,0.8-0.2,2.1c0,0-1.1,0.1-0.8,0.8c0.3,0.7,1,0.7,0.5,1.7c-0.7,1-2.1,0.9-2.3-0.2c-0.2-1.1-1.5-0.3-1.7,0.2
		c-0.2,0.6-1.9,1.3-2.1-0.9c0,0,0.1-0.9,0.8-1.1c0.7-0.2,1.3-0.8,0.7-1.6C52.4,34.1,53.6,33.3,54.1,34.1z"/>
	<path class="st1" d="M45.6,35.1c0,0,5.8-8.3,12.7-9.1c6.9-0.8,12.6,4.6,13,9.7c0.5,5.1-5.9,15.8-7.1,17.5l-1,1.5l-1.7,2.7l-1.3,1.4
		H60l-0.3-0.3l-0.5,0.3v0.6l-0.2,0.3l-0.6,0.5L58,60.7l-0.2,0.6l-0.3,0.9L57,63.1l-0.6,0.3l-0.3-0.2V64l-0.3,0.3c0,0,0,0.1-0.1,0.2
		c-0.1,0.2-0.3,0.7-0.3,0.7l-0.2,0.6c0,0-0.1,0.5-0.1,0.6s-0.1,0.6-0.1,0.7s-0.1,0.7-0.1,0.7s-0.3,0.7-0.3,0.8
		c0,0.1-0.1,0.9-0.1,0.9l0.2,1.3l0.3,1.3l0.8,1.5l0.3,0.8l0.6,0.8l0.6,0.3l0.5,0.3l0.3,0.3v0.3l0.6,0.8l0.5,0.5l0.2,0.5l0.5,0.2
		l0.3,0.2l0.2,0.5l0.5,0.5l0.5,0.2l0.1,0.5v0.5L60.9,81l-0.6-0.7L60,80.1l-0.3-0.5l-0.3-0.3l-0.3-0.5l-0.3-0.3l-0.7-0.2l-0.3,0.1
		l-0.1-0.5L57,77.7l-0.5-0.3l-0.2-0.6l-0.1-0.1l-0.5-0.5h-0.2l-0.5-0.3l-0.3-0.3l-0.5-0.5L54,74.5l-0.2-0.6l-0.3-0.8l-0.1-0.3
		L53,72.2l0.1-0.5l-0.2-0.5l-0.3-0.2l-0.1-0.3l-0.1-0.5l-0.1-1.7l-0.2-1l0.2-1l0.2-0.7l0.3-1.1L53,64l0.2-0.6l0.1-0.8l0.6-1.1
		l0.6-0.6l0.8-0.7c0,0,0.3-0.2,0.5-0.3c0.1-0.1,0.3-0.5,0.3-0.5l0.1-0.8l0.5-0.3l0.3-0.3l0.1-0.3l0.7-0.5l0.3-0.1l0.3-0.3l0.5-0.7
		l0.3-0.7l0.7-0.8l0.2-0.7l0.6-0.7l0.3-0.6l0.1-0.7l0.6-0.2l0.6-0.5l0.6-0.9l0.6-0.7L64,49l0.2-0.5l-0.1-0.7l0.6-0.2l0.2-0.5
		l0.2-0.5l0.2-0.3l0.2-0.5l0.1-0.2l0.3-0.8l0.2-0.2v-0.9l0.1-0.3l0.2-0.7l0.1-0.9v-0.7l0.2-0.6l0.2-0.7l0.1-0.5l0.1-0.6l0.1-0.5
		l0.3-1v-0.5L68,36v-0.6l-0.1-0.8l-0.1-0.8c0,0-0.8-2.9-5.1-4.2c-3.4-1.1-6.7,0-7.9,1.1c-1.7,1.6-3.4,3-3.9,3.2
		c-0.5,0.2-2.9,1.3-3,3.8c0,0,0.2,0.3,0.1,0.6c-0.1,0.2-0.7,0.7-0.8,1.1c-0.1,0.5-0.2,0.7-0.5,1.6c-0.2,0.9-1,3.2-2.3,2.9
		c0,0-0.2-0.3-0.2-0.8c0-0.6-0.2-0.3-0.2-1.1c0-0.8-0.3-1.1-0.5-1.9c-0.2-0.8-1.5-5.6-3.4-6.1c-1.5-0.3-4.2,0.5-5.6,1.6
		c-1.4,1.1-3.2,3.1-4.6,5.7c-1.4,2.6-1.3,5.1,0.6,8.5c1.8,3.2,3.3,4.3,3.3,4.3l0.6,0.3l0.8,0.9l1,0.8l0.6,0.5l0.7,0.3l0.5,0.5
		l0.9,0.6l1,0.9l0.6,0.2l0.8,0.6l0.6,0.6l1.1,0.7l0.7,0.6l0.7,0.5l0.6,0.5l1.1,0.9l0.7,0.7l0.8,0.8l0.8,0.7l0.9,0.8l1,1.3l0.3,0.9
		l0.1,0.3l-0.3-0.1l-0.1,0.6l0.5,0.9l0.8,0.7l-0.2,0.7l-0.6-0.3l-0.3-0.8l-0.7-1l-0.6-0.6V68L49,67.4l-0.8-0.2l-1-0.6L46.8,66
		l-0.6-0.8L45.7,65l-0.6-0.1H45l-0.2-0.2l-0.3-0.2l-0.1-0.3L43.6,64l-0.6-0.1l-1-0.6l-0.3-0.5L41,62.5l-0.5-0.3l-0.5-0.2l-0.3-0.1
		l-0.6-0.3l-0.3-0.2l-0.3-0.5l-0.7-0.3l-0.5-0.1l-0.5-0.1l-0.1-0.3l-0.6-0.2l-0.5-0.1l-0.3-0.2l-0.2-0.2l-0.9-0.6l-0.9-0.7
		c0,0-1.1-1.1-2.3-2.4s-2.3-2.6-2.7-3.5c-0.6-0.9-1.3-2.7-1.4-3.1c-0.1-0.3-0.2-0.6-0.2-0.6l-0.2-0.9l-0.2-1.4v-0.5v-1.4l0.3-1.3
		l0.6-2.3c0,0,1.3-3.7,5.9-7.5s8.6-2.5,10.2-0.9C44.8,33.8,45.1,35.1,45.6,35.1z"/>
</g>
</svg>
