<?xml version="1.0" encoding="utf-8"?>
<!-- Generator: Adobe Illustrator 22.1.0, SVG Export Plug-In . SVG Version: 6.00 Build 0)  -->
<svg version="1.1" id="Layer_1" xmlns="http://www.w3.org/2000/svg" xmlns:xlink="http://www.w3.org/1999/xlink" x="0px" y="0px"
	 viewBox="0 0 512 512" style="enable-background:new 0 0 512 512;" xml:space="preserve">
<style type="text/css">
	.st0{fill:#F4F4F4;}
	.st1{fill:#E8E8E8;}
	.st2{fill:#8CC84B;}
	.st3{fill:#4A6D1D;}
	.st4{fill:#DEDCDD;}
	.st5{fill:#4A6D1D;stroke:#FFFFFF;stroke-miterlimit:10;}
</style>
<path class="st0" d="M61,487.5v-398L155.1,0l272.8,0c12.4,0,22.5,10.1,22.5,22.5v467c0,12.4-10.1,22.5-22.5,22.5H85.5
	C72,512,61,501,61,487.5z"/>
<path class="st1" d="M61,89.5v400.1c0,12.4,10.1,22.5,22.5,22.5h40.4c-12.4,0-22.5-10.1-22.5-22.5V89.5L195.5,0l-40.4,0L61,89.5z"/>
<path class="st2" d="M450.4,51V22.5c0-12.4-10.1-22.5-22.5-22.5L155.1,0l-53.6,51H450.4z"/>
<path class="st3" d="M184.6,0l-29.5,0l-53.6,51h83.2V0z"/>
<path class="st4" d="M61,89.5h71.6c12.4,0,22.5-10.1,22.5-22.5V0L61,89.5z"/>
<path class="st2" d="M61,369.5v120c0,12.4,10.1,22.5,22.5,22.5h344.4c12.4,0,22.5-10.1,22.5-22.5v-120H61z"/>
<path class="st5" d="M101.4,489.5v-120H61v120c0,1.9,0.2,3.8,0.7,5.6c0.2,0.7,0.4,1.4,0.7,2.1c0.8,2.1,1.8,4,3.1,5.7
	c0.2,0.3,0.4,0.6,0.7,0.9c0.5,0.6,0.9,1.1,1.5,1.6c1.8,1.8,3.9,3.3,6.2,4.4c0.7,0.3,1.3,0.6,2,0.9c0.7,0.2,1.4,0.5,2.1,0.7
	c1.4,0.4,2.9,0.6,4.5,0.7c0.4,0,0.8,0,1.2,0h40.4C111.5,512,101.5,501.9,101.4,489.5L101.4,489.5z"/>
<g>
	<path class="st2" d="M257.5,135.5c4-2.3,9.2-2.3,13.3,0c20.2,11.4,40.4,22.8,60.6,34.2c3.8,2.1,6.3,6.4,6.3,10.7V249
		c0,4.6-2.8,8.9-6.8,11c-20.1,11.3-40.2,22.7-60.3,34c-4.1,2.3-9.4,2.2-13.4-0.4c-6-3.5-12.1-7-18.1-10.5c-1.2-0.7-2.6-1.3-3.5-2.5
		c0.8-1,2.1-1.2,3.3-1.6c2.5-0.8,4.8-2.1,7.1-3.3c0.6-0.4,1.3-0.2,1.9,0.1c5.2,3,10.3,6,15.4,8.9c1.1,0.6,2.2-0.2,3.2-0.7
		c19.7-11.2,39.5-22.3,59.2-33.4c0.7-0.4,1.1-1.1,1.1-1.9c0-22.6,0-45.3,0-67.9c0.1-0.9-0.4-1.7-1.3-2.1
		c-20-11.3-40.1-22.6-60.1-33.9c-0.7-0.5-1.6-0.5-2.4,0c-20,11.3-40.1,22.6-60.1,33.9c-0.8,0.4-1.4,1.2-1.3,2.1
		c0,22.6,0,45.3,0,67.9c-0.1,0.8,0.4,1.6,1.1,1.9c5.3,3,10.7,6,16.1,9.1c3,1.6,6.7,2.6,10,1.3c2.9-1.1,5-4,4.9-7.2
		c0-22.5,0-45,0-67.5c-0.1-1,0.9-1.8,1.8-1.7c2.6,0,5.1,0,7.7,0c1.1,0,1.8,1.1,1.7,2.1c0,22.6,0,45.3,0,67.9c0,6-2.5,12.6-8.1,15.6
		c-6.9,3.6-15.4,2.8-22.2-0.6c-5.9-2.9-11.5-6.4-17.3-9.5c-4-2.1-6.8-6.4-6.8-11v-68.6c0-4.5,2.6-8.8,6.5-10.9
		C217.3,158.2,237.4,146.9,257.5,135.5z"/>
	<path class="st2" d="M275.1,183c8.8-0.6,18.2-0.3,26.1,4c6.1,3.3,9.5,10.3,9.6,17.1c-0.2,0.9-1.1,1.4-2,1.4c-2.5,0-5.1,0-7.6,0
		c-1.1,0-1.7-1-1.8-1.9c-0.7-3.2-2.5-6.5-5.6-8c-4.7-2.4-10.1-2.2-15.3-2.2c-3.7,0.2-7.8,0.5-10.9,2.7c-2.4,1.7-3.2,5-2.3,7.7
		c0.8,1.9,3.1,2.6,4.9,3.1c10.6,2.8,21.8,2.5,32.1,6.1c4.3,1.5,8.5,4.4,10,8.9c1.9,6,1.1,13.2-3.2,18.1c-3.5,4-8.5,6.1-13.6,7.3
		c-6.7,1.5-13.7,1.5-20.5,0.9c-6.4-0.7-13.1-2.4-18-6.8c-4.2-3.7-6.3-9.4-6.1-14.9c0-0.9,1-1.6,1.9-1.5c2.6,0,5.1,0,7.7,0
		c1-0.1,1.8,0.8,1.8,1.8c0.5,3.1,1.6,6.3,4.3,8.2c5.2,3.4,11.7,3.1,17.7,3.2c4.9-0.2,10.5-0.3,14.5-3.6c2.1-1.9,2.8-5,2.2-7.7
		c-0.6-2.3-3-3.3-5-4c-10.4-3.3-21.8-2.1-32.1-5.8c-4.2-1.5-8.3-4.3-9.9-8.6c-2.2-6.1-1.2-13.6,3.5-18.3
		C262.1,185.5,268.7,183.7,275.1,183L275.1,183z"/>
</g>
</svg>
