<?xml version="1.0" encoding="utf-8"?>
<!-- Generator: Adobe Illustrator 25.2.3, SVG Export Plug-In . SVG Version: 6.00 Build 0)  -->
<svg version="1.1" id="Layer_1" xmlns="http://www.w3.org/2000/svg" xmlns:xlink="http://www.w3.org/1999/xlink" x="0px" y="0px"
	 viewBox="0 0 100 100" style="enable-background:new 0 0 100 100;" xml:space="preserve">
<style type="text/css">
	.st0{fill:#FFFFFF;}
	.st1{fill:#9B9B9B;}
</style>
<path class="st0" d="M50,0c27.6,0,50,22.4,50,50s-22.4,50-50,50S0,77.6,0,50S22.4,0,50,0z"/>
<g id="Layer_2_1_">
	<g id="Layer_1-2">
		<path class="st1" d="M19.2,43.6c3,0,5.5,1.4,5.5,5c0,3.6-2,5.5-5.6,5.5h-1.2v5.3h-4.1V43.6H19.2z M18.6,50.7c1.3,0,2-0.5,2-2
			c0-1.1-0.8-1.8-1.9-1.8h-0.8v3.8L18.6,50.7z"/>
		<path class="st1" d="M25.6,56.3c0-5.4,0.8-9.5,3.4-12.7h3.8c2.6,3.2,3.4,7.3,3.4,12.7v3.1h-4.1v-4.1h-2.4v4.1h-4.1V56.3z
			 M32.2,52.3c-0.2-2-0.6-3.9-1.3-5.7c-0.7,1.8-1.1,3.8-1.3,5.7H32.2z"/>
		<path class="st1" d="M49.8,43.6h5.8c2.4,0,4.3,1,4.6,3.6c0.1,1.2-0.1,2.6-1.1,3.5c1.2,0.8,1.3,1.9,1.3,4c0,3.6-1.8,4.8-5.1,4.8
			h-5.5V43.6z M56.1,48.2c0-1.3-0.3-1.7-1.4-1.7h-0.8v3.1h0.6C55.7,49.6,56.1,49.3,56.1,48.2z M54.5,56.4c1.4,0,1.7-0.5,1.7-2.1
			c0-1.4-0.4-2-1.4-2h-0.8v4.2H54.5z"/>
		<path class="st1" d="M69.6,43.4c-4.5,0-8.1,3.6-8.1,8.1s3.6,8.1,8.1,8.1c4.5,0,8.1-3.6,8.1-8.1S74.1,43.4,69.6,43.4z M69.6,55.8
			c-2,0-3.7-1.9-3.7-4.3c0-2.4,1.6-4.3,3.7-4.3c2,0,3.7,1.9,3.7,4.3C73.3,53.9,71.7,55.8,69.6,55.8z"/>
		<path class="st1" d="M78.4,43.9v-0.3h4.1c0.1,4.4,0.5,7.1,1,8.1c0.5-1,0.9-3.7,1-8.1h4.1v0.7c0,3.7-1,7.4-3.1,10.5v4.5h-4.1v-4.5
			C79.4,51.9,78.4,48.2,78.4,43.9z"/>
		<path class="st1" d="M37.2,43.9v-0.3h4.1c0.1,4.4,0.5,7.1,1,8.1c0.5-1,0.9-3.7,1-8.1h4.1v0.7c0,3.7-1,7.4-3.1,10.5v4.5h-4.1v-4.5
			C38.2,51.9,37.2,48.2,37.2,43.9z"/>
	</g>
</g>
</svg>
