<?xml version="1.0" encoding="utf-8"?>
<!-- Generator: Adobe Illustrator 22.1.0, SVG Export Plug-In . SVG Version: 6.00 Build 0)  -->
<svg version="1.1" id="Layer_1" xmlns="http://www.w3.org/2000/svg" xmlns:xlink="http://www.w3.org/1999/xlink" x="0px" y="0px"
	 viewBox="0 0 512 512" style="enable-background:new 0 0 512 512;" xml:space="preserve">
<style type="text/css">
	.st0{fill:#F4F4F4;}
	.st1{fill:#E8E8E8;}
	.st2{fill:#27A1BD;}
	.st3{fill:#001B26;}
	.st4{fill:#DEDCDD;}
	.st5{fill:#07CEFC;}
	.st6{fill:#10C9FC;}
	.st7{fill:#08CBFB;}
	.st8{fill:#09BBE2;}
	.st9{fill:#737E82;}
	.st10{fill:#03C8F7;}
	.st11{fill:#31CBEA;}
	.st12{fill:#02CCFB;}
	.st13{fill:#4EB8D5;}
	.st14{fill:#11B8E4;}
	.st15{fill:#31C7E1;}
	.st16{fill:#05C9F7;}
	.st17{fill:#3DCDF4;}
	.st18{fill:#066482;}
	.st19{fill:#003A4F;}
	.st20{fill:#12D0F6;}
	.st21{fill:#020917;}
	.st22{fill:#020C16;}
	.st23{fill:#021A26;}
	.st24{fill:#031622;}
	.st25{fill:#05CBFA;}
	.st26{fill:#40C9E7;}
	.st27{fill:#0CCBFA;}
	.st28{fill:#031E2B;}
</style>
<path class="st0" d="M427.9,512H83.5C71.1,512,61,501.9,61,489.5v-467C61,10.1,71.1,0,83.5,0h272.8l94.1,89.5v400.1
	C450.4,501.9,440.3,512,427.9,512z"/>
<path class="st1" d="M356.3,0h-40.4l94.1,89.5v400.1c0,12.4-10.1,22.5-22.5,22.5h40.4c12.4,0,22.5-10.1,22.5-22.5V89.5L356.3,0z"/>
<path class="st2" d="M409.9,51L356.3,0H83.5C71.1,0,61,10.1,61,22.5V51H409.9z"/>
<path class="st3" d="M326.8,51h83.2L356.3,0h-29.5V51z"/>
<path class="st4" d="M356.3,0v67c0,12.4,10.1,22.5,22.5,22.5h71.6L356.3,0z"/>
<path class="st2" d="M61,369.5v120c0,12.4,10.1,22.5,22.5,22.5h344.4c12.4,0,22.5-10.1,22.5-22.5v-120H61z"/>
<path class="st3" d="M409.9,489.5c0,12.4-10.1,22.5-22.5,22.5h40.4c12.4,0,22.5-10.1,22.5-22.5v-120h-40.4V489.5z"/>
<g>
	<path class="st5" d="M287.6,144.5c10.6,0.1,21.1,0.2,31.7,0.4c0.2,0.4,0.3,0.7,0.5,1.1c-0.1,2.6-0.1,5.2-0.2,7.8
		c-1.2-0.4-2.4-0.7-3.6-1.1c0,0.1-0.1,0.5-0.2,0.8c-0.2,12.5-0.3,25-0.5,37.5c0,0.9-0.3,1.8-0.3,2.7c0,4.4,0.1,8.9,0.1,13.3
		c-0.3,12.5-0.7,25.1-0.9,37.6c-0.1,5.1,0.3,10.1,0.3,15.2c0,3.8-0.1,7.7-0.1,11.5c0,0.6-0.1,1.3-0.1,1.9c0,1.7,0.1,3.4-0.1,5.1
		c-0.1,1-0.6,2-0.9,3c0-1.5,0-3,0-4.4c0.5-41.8,0.9-83.7,1.4-125.5c-1.3-0.6-2.6-1.6-3.9-1.6c-31.3-0.4-62.5-0.8-93.8-1.2
		c0.2-0.6,0.4-1.1,0.6-1.7c13.5,0.2,27,0.3,40.4,0.4c1,0,2.7-0.1,3-0.7c0.8-1.7,2.2-1.4,3.5-1.4c6.8,0.1,13.6,0.2,20.4,0.2
		C285.8,145.5,286.7,144.9,287.6,144.5z"/>
	<path class="st6" d="M217.6,147c-0.2,0.6-0.4,1.1-0.6,1.7c-11.2-0.1-22.4-0.2-33.6-0.4c-4.4,0-4.7,0.3-4.8,4.7
		c-0.2,18.8-0.4,37.6-0.7,56.4c-0.6,1.4-1.1,2.7-2.1,5c-0.3-1.7-0.7-2.6-0.7-3.5c0-7,0.1-14,0.2-21c0-2,0.2-4.1,0.2-6.1
		c0-4.2,0-8.4-0.1-12.6c0-0.4-0.9-0.8-1.5-1.2c0.1-7.4,0.1-14.8,0.2-22.2c0.2-0.1,0.4-0.2,0.7-0.3c-0.2-0.1-0.4-0.2-0.7-0.3
		c0-1.3,0-2.6,0-3.9c18.7,0.2,37.4,0.4,56.1,0.6c-0.8,0.5-1.6,1.5-2.4,1.6c-2.7,0.2-5.4-0.1-8,0.1
		C219.1,145.5,218.4,146.5,217.6,147z"/>
	<path class="st2" d="M173.5,148.5c0,7.4,0,14.8,0,22.2c0,17.1-0.1,34.1-0.1,51.2c0,0.9,0.3,1.8,0.5,2.7c-0.2,1.5-0.5,2.9-0.5,4.4
		c0,16.1,0,32.3,0,48.4c0,0.4,0,0.8,0,1.1c0,0.7,0,1.5,0,2.2c0,0.4,0,0.8,0,1.1c0,1.3,0,2.6,0,3.9c0.2,0.2,0.4,0.4,0.5,0.5
		c0.2,0,0.3,0,0.5,0.1c1.2,0.2,2.5,0.5,3.7,0.5c30.5,0,61,0,91.5,0c16.1,0,32.2,0,48.2,0.1c-0.9,0.2-1.8,0.5-2.6,0.5
		c-46.4,0-92.8,0-139.2,0c-1.1,0-2.2-0.3-3.3-0.4c-0.1-3.5-0.2-7-0.2-10.5c0-42.4,0-84.9,0-127.3c0-1.7,0.1-3.3,0.1-5
		c0.2,0,0.4,0,0.6,0c0,1.3,0,2.6,0.1,3.9C173.5,148.1,173.5,148.3,173.5,148.5z"/>
	<path class="st7" d="M217.6,147c0.8-0.5,1.6-1.5,2.4-1.6c2.7-0.2,5.4,0.1,8-0.1c0.8-0.1,1.6-1,2.4-1.6c1.7,0,3.3,0,5,0.1
		c0.4,0.4,0.9,1.1,1.3,1.1c3.8,0.1,7.5,0.2,11.3,0.1c0.4,0,0.9-0.7,1.3-1c0.2,0,0.4,0,0.6,0c1.5,1.6,5.7,1.7,7.2,0.1
		c10.2,0.1,20.4,0.2,30.5,0.3c-0.9,0.4-1.8,1-2.7,1c-6.8,0-13.6-0.1-20.4-0.2c-1.3,0-2.7-0.3-3.5,1.4c-0.3,0.6-2,0.7-3,0.7
		C244.5,147.4,231,147.2,217.6,147z"/>
	<path class="st2" d="M319.6,153.7c0.1-2.6,0.1-5.2,0.2-7.8c0-0.4,0-0.7,0-1.1c0.2,0,0.4,0,0.6,0c-0.2,26.1-0.5,52.2-0.7,78.3
		c-0.2,20.4-0.5,40.9-0.7,61.3c0,0.9-0.1,1.8-0.1,2.8c-0.2-0.1-0.4-0.1-0.6-0.2c0-0.2-0.1-0.4-0.1-0.6c0.1-6.5,0.2-12.9,0.2-19.4
		c0-0.7,0-1.5,0-2.2c0-2.4,0.1-4.8,0.1-7.2c0-0.6,0-1.1,0-1.7c0.1-4.4,0.1-8.9,0.2-13.3c0-0.4,0-0.8,0-1.1
		c0.1-5.5,0.1-11.1,0.2-16.6c0-0.2,0-0.4,0-0.6c0-1.3,0-2.6,0-3.9c0-1.5,0-3,0.1-4.5c0.2-17.8,0.4-35.5,0.5-53.3
		C319.5,159.7,319.5,156.7,319.6,153.7z"/>
	<path class="st6" d="M249.3,144.1c-0.4,0.4-0.9,1-1.3,1c-3.8,0-7.5,0-11.3-0.1c-0.4,0-0.9-0.7-1.3-1.1
		C240,144,244.6,144,249.3,144.1z"/>
	<path class="st6" d="M257,144.1c-1.6,1.6-5.7,1.6-7.2-0.1C252.2,144.1,254.6,144.1,257,144.1z"/>
	<path class="st8" d="M319.8,144.9c0,0.4,0,0.7,0,1.1c-0.2-0.4-0.3-0.7-0.5-1.1C319.4,144.9,319.6,144.9,319.8,144.9z"/>
	<path class="st9" d="M319,286.3c0.2,0,0.4,0.1,0.6,0.1c0.3,2.4-1.1,2.6-3.1,2.6c-45.2,0-90.4,0-135.6,0c-1.9,0-3.9,0.1-5.8,0.1
		c-1.7,0.1-2.4-0.6-2.2-2.3c1.1,0.2,2.2,0.4,3.3,0.5c46.4,0,92.8,0,139.2,0c0.9,0,1.8-0.3,2.6-0.5c0.2-0.2,0.3-0.3,0.5-0.5l0,0
		C318.7,286.3,318.8,286.3,319,286.3z"/>
	<path class="st10" d="M318.3,267c-0.1,6.5-0.2,12.9-0.2,19.4c-0.1,0.2-0.3,0.4-0.4,0.6c0,0,0,0,0,0c-7.4-0.1-14.9-0.2-22.3-0.4
		c-0.2-0.3-0.3-0.9-0.5-0.9c-5.6-0.1-11.1-0.2-16.7-0.2c-0.2,0-0.4,0.6-0.5,0.9c-3.1,0-6.3-0.1-9.4-0.1c-0.7-0.4-1.4-1-2.2-1.1
		c-2.1-0.2-4.3,0-6.4-0.2c-1.3-0.1-2.6-0.5-3.9-0.8c0-0.3,0.1-0.6,0.1-0.8c3.6,0,7.1,0.1,10.7,0.1c1.1,0,2.3,0.1,2.2-1.6
		c4.6,0,9.3,0.1,13.9,0.1c0.6,0.5,1.2,1.6,1.8,1.5c0.7-0.1,1.4-0.9,2.1-1.5c7.6,0.1,15.1,0.2,22.7,0.2c1,0,1.9-0.3,2.9-0.5
		c0.2-0.2,0.5-0.3,0.7-0.5c0.2,0,0.3,0,0.4,0c0.3-1,0.8-2,0.9-3c0.2-1.7,0.1-3.4,0.1-5.1c0-0.6,0.1-1.3,0.1-1.9
		c0.1-3.8,0.2-7.7,0.1-11.5c-0.1-5.1-0.4-10.1-0.3-15.2c0.2-12.5,0.6-25.1,0.9-37.6c0.4,0,0.7,0,1.1,0c0.1,4.5,0.1,9.1,0.2,13.6
		c0,1.4,0,2.7,0,4.1c0.1,5.2,0.5,10.3,0.4,15.5c-0.2,7.2-0.9,14.3-1.1,21.5c0,1.2,1.3,2.5,2,3.7C318,265.9,318.2,266.5,318.3,267z"
		/>
	<path class="st11" d="M178,209.3c0.2-18.8,0.4-37.6,0.7-56.4c0.1-4.4,0.4-4.7,4.8-4.7c11.2,0.1,22.4,0.2,33.6,0.4
		c31.3,0.4,62.5,0.7,93.8,1.2c1.3,0,2.6,1,3.9,1.6c-0.1,0-0.3,0-0.4,0c-1.1-0.2-2.1-0.6-3.2-0.6c-42.7-0.5-85.5-1-128.2-1.5
		c-1,0-2,0-3.2,0c0,1.4,0,2.4,0,3.4c-0.4,32.8-0.8,65.7-1.1,98.5c-0.1,9.5-0.1,19-0.2,28.6c0.2,0.2,0.3,0.5,0.5,0.7
		c0,0.2,0,0.3,0,0.5c-0.6-0.6-1.8-1.2-1.8-1.8c0.1-9.2,0.3-18.4,0.5-27.5c0-1-0.3-2-0.5-2.9C177.3,235.6,177.6,222.5,178,209.3z"/>
	<path class="st12" d="M316.3,207c-0.4,0-0.7,0-1.1,0c0-4.4-0.1-8.9-0.1-13.3c0-0.9,0.3-1.8,0.3-2.7c0.2-12.5,0.3-25,0.5-37.5
		c0-0.3,0.1-0.7,0.2-0.8c1.3,0.4,2.4,0.7,3.6,1.1c0,3-0.1,5.9-0.1,8.9c-0.8,0.1-1.6,0.1-2.7,0.2C316.6,177.7,316.5,192.3,316.3,207z
		"/>
	<path class="st13" d="M314.3,151.4c0.1,0,0.3,0,0.4,0c-0.5,41.8-0.9,83.7-1.4,125.5c0,1.5,0,3,0,4.4c-0.1,0-0.3,0-0.4,0
		c-0.1-0.1-0.2-0.1-0.3-0.1c0-0.5,0.1-0.9,0.1-1.4c0.5-41.5,0.9-83,1.4-124.4C314.1,154.2,314.2,152.8,314.3,151.4z"/>
	<path class="st7" d="M178,209.3c-0.3,13.1-0.6,26.3-1,39.4c-0.4-1.1-1-2.1-1.1-3.2c-0.1-3.7,0.3-7.4,0-11.1c-0.3-3.1-1.8-6-0.4-9.2
		c0.1-0.3-1-1-1.6-1.5c-0.2-0.9-0.4-1.8-0.4-2.7c0.2-17,0.4-34.1,0.6-51.1c0.5,0.4,1.4,0.8,1.5,1.2c0.1,4.2,0.1,8.4,0.1,12.6
		c0,2-0.2,4.1-0.2,6.1c-0.1,7-0.2,14-0.2,21c0,0.9,0.3,1.9,0.7,3.5C176.8,212.1,177.4,210.7,178,209.3z"/>
	<path class="st14" d="M173.5,148.5c0-0.2,0-0.4,0-0.6c0.2,0.1,0.4,0.2,0.7,0.3C174,148.3,173.8,148.4,173.5,148.5z"/>
	<path class="st12" d="M174,224.6c0.6,0.5,1.7,1.3,1.6,1.5c-1.3,3.2,0.2,6.1,0.6,9.2c0.4,3.6,0,7.4,0.2,11.1c0,1.1,0.7,2.1,1.1,3.2
		c0.2,1,0.5,2,0.5,2.9c0,9.2-0.2,18.4-0.2,27.5c0,0.6,1.2,1.2,1.8,1.8c0,0,0,0,0,0c0.2,0.3,0.4,0.5,0.6,0.8c0.2-0.3,0.4-0.5,0.6-0.8
		c29.6,0,59.2,0,88.8,0c0.1,1.7-1.1,1.6-2.2,1.6c-3.6,0-7.1,0-10.7,0c0,0.3-0.1,0.6-0.1,0.8c1.3,0.3,2.6,0.7,4,0.8
		c2.1,0.1,4.3-0.1,6.4,0.1c0.7,0.1,1.4,0.7,2.2,1c-31.5,0-63,0-94.4,0c-0.2,0-0.3,0-0.5-0.1c-0.2-0.2-0.4-0.4-0.5-0.5
		c0-1.3,0-2.6,0-3.9c0-0.4,0-0.8,0-1.1c0-0.7,0-1.5,0-2.2c0-0.4,0-0.8,0-1.1c0-16.1,0-32.3,0-48.4C173.5,227.5,173.8,226,174,224.6z
		"/>
	<path class="st15" d="M174.5,286.2c31.5,0,63,0,94.4,0c3.1,0,6.3,0,9.4,0c5.9,0,11.8,0,17.8,0c7.4,0,14.9,0.1,22.3,0.1
		c-0.2,0.2-0.3,0.3-0.5,0.5c-16.1,0-32.2-0.1-48.2-0.1c-30.5,0-61,0-91.5,0C177,286.7,175.8,286.4,174.5,286.2z"/>
	<path class="st14" d="M173.5,277.3c0,0.4,0,0.8,0,1.1C173.5,278.1,173.5,277.7,173.5,277.3z"/>
	<path class="st14" d="M173.5,280.6c0,0.4,0,0.8,0,1.1C173.5,281.4,173.5,281,173.5,280.6z"/>
	<path class="st14" d="M173.5,285.6c0.2,0.2,0.4,0.4,0.5,0.5C173.9,286,173.7,285.8,173.5,285.6z"/>
	<path class="st16" d="M316.3,207c0.2-14.7,0.3-29.3,0.5-44.2c1.1-0.1,1.9-0.1,2.7-0.2c-0.2,17.8-0.4,35.5-0.5,53.3
		c-1.7,1.5-1.7,3-0.1,4.5c0,1.3,0,2.6,0,3.9c-0.1,0.1-0.2,0.1-0.2,0.2c0,0.1,0.1,0.3,0.2,0.4c-0.1,5.5-0.1,11.1-0.2,16.6
		c0,0.4,0,0.8,0,1.1c-0.1,4.4-0.1,8.9-0.2,13.3c0,0.6,0,1.1,0,1.7c0,2.4-0.1,4.8-0.1,7.2c-0.2,0.2-0.3,0.4-0.5,0.6
		c-0.7-1.2-2.1-2.5-2-3.7c0.2-7.2,0.9-14.3,1.1-21.5c0.1-5.1-0.2-10.3-0.4-15.5c0-1.3,0-2.7,0-4.1
		C316.4,216.1,316.4,211.6,316.3,207z"/>
	<path class="st8" d="M318.9,220.4c-1.7-1.5-1.7-3,0.1-4.5C318.9,217.4,318.9,218.9,318.9,220.4z"/>
	<path class="st8" d="M318.4,264.5c0.2-0.2,0.3-0.4,0.5-0.6c0,0.7,0,1.5,0,2.2C318.7,265.7,318.6,265.1,318.4,264.5z"/>
	<path class="st8" d="M318.9,256.8c0-0.6,0-1.1,0-1.7C318.9,255.7,318.9,256.2,318.9,256.8z"/>
	<path class="st8" d="M318.9,241.8c0-0.4,0-0.8,0-1.1C318.9,241,318.9,241.4,318.9,241.8z"/>
	<path class="st8" d="M318.5,286.3c0.1-0.2,0.3-0.4,0.4-0.6c0,0.2,0.1,0.4,0.1,0.6C318.8,286.3,318.7,286.3,318.5,286.3z"/>
	<path class="st8" d="M318.9,224c-0.1-0.1-0.1-0.3-0.2-0.4c0,0,0.1-0.1,0.2-0.2C318.9,223.6,318.9,223.8,318.9,224z"/>
	<path class="st17" d="M269.5,281.8c-29.6,0-59.2,0-88.8,0c-0.4,0-0.8,0-1.2,0c0,0,0,0,0,0c0-0.2,0-0.3,0-0.5
		c0.1-0.1,0.1-0.2,0.1-0.4c0.3,0,0.6,0.1,0.9,0.1c0.9,0.1,1.8,0.2,2.8,0.2c41.5,0,82.9,0,124.4,0c1,0,2-0.2,3-0.2c0.3,0,0.6,0,0.9,0
		c0.4,0.1,0.9,0.2,1.3,0.3c-1,0.2-1.9,0.5-2.9,0.5c-7.6,0.1-15.1,0.1-22.7,0.1c-1.3,0-2.6,0-3.9,0
		C278.8,281.8,274.2,281.8,269.5,281.8z"/>
	<path class="st12" d="M296.2,286.2c-5.9,0-11.8,0-17.8,0c0.2-0.3,0.4-0.9,0.5-0.9c5.6,0,11.1,0,16.7,0
		C295.9,285.3,296,285.9,296.2,286.2z"/>
	<path class="st12" d="M283.4,281.8c1.3,0,2.6,0,3.9,0c-0.7,0.5-1.3,1.4-2.1,1.5C284.7,283.4,284,282.4,283.4,281.8z"/>
	<path class="st18" d="M312.9,281.2c-0.4-0.1-0.9-0.2-1.3-0.3c0.1-0.3,0.2-0.6,0.2-0.8c0.2,0,0.3-0.1,0.5-0.1c0.2,0,0.4,0.1,0.5,0.1
		c0.1,0.2,0.3,0.3,0.4,0.5c0.1,0,0.2,0,0.3,0.1C313.4,280.9,313.1,281.1,312.9,281.2z"/>
	<path class="st19" d="M312.6,281.4c-0.1-0.2-0.3-0.3-0.4-0.5c0-0.2,0-0.4,0-0.6c0-0.4,0-0.7,0-1.1c0-0.4,0-0.7,0-1.1
		c0-0.3,0.1-0.6,0.1-0.8c0.5-41.1,0.9-82.3,1.4-123.4c0-0.7-0.1-1.4-0.2-2.4c-20.2-0.2-40.2-0.5-60.3-0.7c-23-0.3-46.1-0.6-69.1-0.8
		c-3.6,0-3.6,0-3.7,3.7c-0.2,21.1-0.5,42.2-0.7,63.3c-0.2,20.9-0.4,41.8-0.6,62.7c-0.2,0-0.4,0-0.5,0.1c0.1-9.5,0.1-19,0.2-28.6
		c0.4-32.8,0.7-65.7,1.1-98.5c0-1,0-2,0-3.4c1.2,0,2.2,0,3.2,0c42.7,0.5,85.5,1,128.2,1.5c1.1,0,2.1,0.4,3.2,0.6
		c-0.1,1.4-0.2,2.8-0.2,4.1c-0.5,41.5-0.9,83-1.4,124.4C312.7,280.5,312.6,280.9,312.6,281.4z"/>
	<path class="st18" d="M179.1,280.6c0.2,0,0.4,0,0.5-0.1c0.1,0.1,0.1,0.2,0,0.4c0,0.1,0,0.3-0.1,0.4
		C179.4,281,179.3,280.8,179.1,280.6z"/>
	<path class="st20" d="M179.6,281.8c0.4,0,0.8,0,1.2,0c-0.2,0.3-0.4,0.5-0.6,0.8C179.9,282.4,179.8,282.1,179.6,281.8z"/>
	<path class="st21" d="M178.9,280.1c0.1-0.1,0.1-0.2,0-0.4c0.2-20.9,0.4-41.8,0.6-62.7c0.2-21.1,0.5-42.2,0.7-63.3
		c0-3.8,0-3.8,3.7-3.7c23,0.3,46.1,0.6,69.1,0.8c0,0.4,0,0.7,0,1.1c-0.2,0-0.4,0-0.6,0c-1,0.2-2,0.5-2.9,0.5
		c-4.9-0.2-9.9-0.4-14.8-0.7c-3.3-0.2-6.6-0.5-9.9-0.6c-0.8,0-1.5,0.3-2.3,0.5c-6.1-0.1-12.2-0.1-18.3-0.2
		c-6.7-0.1-13.4-0.2-20.1-0.2c-0.9,0-1.8,0.7-2.7,1c-0.5,41.1-0.9,82.3-1.5,123.4c0,2.5,0.6,3.3,3.2,3.3
		c37.4,0.3,74.9,0.8,112.3,1.2c5,0.1,10,0.1,15,0.2c0.2,0.2,0.4,0.4,0.6,0.6c-0.1,0.3-0.2,0.6-0.2,0.8c-0.3,0-0.6,0-0.9,0
		c-0.4-0.1-0.8-0.4-1.3-0.4c-42.1-0.5-84.1-0.9-126.2-1.3c-0.9,0-1.8,0.2-2.7,0.3C179.6,280.2,179.2,280.2,178.9,280.1z"/>
	<path class="st18" d="M180.6,281c0.9-0.1,1.8-0.3,2.7-0.3c42.1-0.1,84.1-0.1,126.2-0.1c0.4,0,0.8,0.3,1.3,0.4c-1,0.1-2,0.2-3,0.2
		c-41.5,0-82.9,0-124.4,0C182.4,281.2,181.5,281.1,180.6,281z"/>
	<path class="st22" d="M311.8,280.1c-0.2-0.2-0.4-0.4-0.7-0.6c0.2-0.4,0.4-0.7,0.6-1.1c0.3,0,0.7,0,1,0c0,0.4,0,0.7,0.1,1.1
		c-0.2,0.2-0.4,0.3-0.5,0.5C312.2,280.1,312,280.1,311.8,280.1z"/>
	<path class="st21" d="M312.3,280c0.2-0.2,0.4-0.3,0.5-0.5c0,0.2,0,0.4,0,0.6C312.7,280.1,312.5,280.1,312.3,280z"/>
	<path class="st22" d="M253,151.9c0-0.4,0-0.7,0-1.1c20,0.2,40.1,0.5,60.3,0.7c0.1,0.9,0.2,1.6,0.2,2.4
		c-0.5,41.1-0.9,82.3-1.4,123.4c0,0.3,0,0.6-0.1,0.8c-0.3,0-0.7,0-1,0c0.1-11.8,0.3-23.7,0.4-35.5c0-3,0.1-5.9,0.1-8.9
		c0-2.8,0.1-5.5,0.1-8.3c0.1-5.2,0.1-10.3,0.2-15.5c0-1-0.3-1.9-0.5-2.9c0.2-2.1,0.6-4.2,0.6-6.3c0.2-14.1,0.4-28.3,0.5-42.4
		c0-1.4-0.2-2.8-0.6-4.1c-0.1-0.5-1-0.7-1.6-1.1c-0.7-0.2-1.5-0.4-2.2-0.6c-3.7,0-7.4-0.1-11.1-0.1c-3.7,0.1-7.4,0.3-11.1,0.4
		c-2.2,0-4.4-0.1-6.7-0.1c-1-0.2-1.9-0.5-2.9-0.6C268.5,152,260.8,152,253,151.9z"/>
	<path class="st21" d="M311.8,277.3c0.3,0,0.7,0,1,0c0,0.4,0,0.7,0,1.1c-0.4,0-0.7,0-1,0C311.8,278.1,311.8,277.7,311.8,277.3
		L311.8,277.3z"/>
	<path class="st3" d="M296.9,152.4c3.7,0,7.4,0.1,11.1,0.1c0.7,0.2,1.5,0.4,2.2,0.6c0.5,0.4,1.4,0.6,1.6,1.1
		c0.4,1.3,0.6,2.7,0.6,4.1c-0.1,14.1-0.3,28.3-0.5,42.4c0,2.1-0.4,4.2-0.6,6.3c-0.4,5.5-0.9,11.1-1.1,16.6c0,0.5,1,1.1,1.5,1.7
		c0,2.8-0.1,5.5-0.1,8.3c-0.5,0.4-1.5,0.8-1.5,1.3c-0.2,2.1-0.2,4.2-0.1,6.3c0,0.5,1,0.9,1.5,1.3c-0.1,11.8-0.3,23.7-0.4,35.5
		c0,0,0,0,0,0c-4.5,0.3-8.9,0.6-13.4,1c-0.7,0.1-1.4,0.7-2.2,1c-37.4-0.4-74.9-0.9-112.3-1.2c-2.6,0-3.2-0.7-3.2-3.3
		c0.5-41.1,1-82.3,1.5-123.4c6.7,0.1,13.4,0.2,20.1,0.2c0.9,0,1.8-0.7,2.7-1c6.1,0.1,12.2,0.1,18.3,0.2c3.7,0.4,7.5,0.8,11.2,1.2
		c0.3,0,0.7-0.7,1-1c4.9,0.2,9.9,0.5,14.8,0.7c1,0,2-0.3,2.9-0.5c0.8,0.4,1.6,1.1,2.4,1.1c7.3,0.2,14.6,0.2,21.9,0.3
		c0.8,0,1.6-0.3,2.3-0.5c2.2,0,4.4,0.1,6.7,0.1c3.5,0.2,7.1,0.3,10.6,0.4C296.6,153.3,296.7,152.7,296.9,152.4z M254,214.1
		c0.2,0.2,0.4,0.4,0.5,0.6c0.2,0.7,0.3,1.6,0.7,1.9c1.8,1.4,2.2,3.2,2,5.3c-1.8,0.6-0.7,1.4,0,1.8c0.7,0.4,1.7,0.6,2.5,0.8
		c0,2.6-1.7,5.2-2.9,4.4c-0.9-0.6-1.1-2.4-1.5-3.3c-0.9,0-2.2,0-3.7,0c0.3-0.4,0.2-0.3,0.2-0.2c0.2,5,0.5,9.9,0.7,14.9
		c0,0.4,0,1-0.2,1.3c-1.6,2.1-1.3,3.8,1.5,4.9c-0.9,0.6-1.5,1.1-2.2,1.5c3.6,2.5,7.4,3.3,10.2,2.4c-0.5-0.7-1-1.5-1.5-2.3
		c0,0,0,0,0,0c1,0,2.2-0.5,2.8,0c3.3,2.3,6.9,3,10.7,2.9c0.8,0,1.8-0.3,2.3-0.8c0.3-0.2,0-1.8-0.4-1.9c-0.8-0.3-1.9-0.2-2.8-0.1
		c-1.1,0.1-2.3,0.5-3.4,0.7c2.2-2.9,5.1-2.3,7.8-2c0.7,0.1,1.2,1.8,2,3.2c1.3,0,2.9,0.2,4.6,0c0.6-0.1,1.6-0.9,1.7-1.5
		c0.6-4.7,1.1-9.3,1.3-14c0.2-4.2,0.4-8.3,0.1-12.5c-0.2-2.2,1.4-5.1-1.5-6.2c0.2-1.6,0.5-2.9,0.6-4.3c0.1-1.5,0.2-2.9,0.3-4.4
		c0.1-2.2,0.2-4.5,0.3-6.7c0.1-1.2-0.1-2.5,0.3-3.6c0.4-1.2,0.7-2.4-1-2.3c-2.5,0.2-3.1-1.2-3.2-3c-1.2,0.5-2.1,0.8-3.1,1.2
		c0-0.2,0-0.4,0-0.6c0.8-1,1.6-2,2.5-3.1c-2.7,0.4-5.4,0.7-8.3,1.1c0.1,0.6,0.3,1.1,0.6,2.2c-2-0.3-3.7-0.6-5.4-0.8
		c-0.2-0.1-0.5-0.4-0.7-0.3c-2.8,1-5.5,2-8.3,3c-0.9-0.3-1.9-0.5-3.3-0.9c-1.1-0.1-2.6-0.5-3.8-0.1c-0.8,0.3-0.9,2-1.3,3.1
		c-1.4-3.4-2.5-6.9-1.3-10.2c-1.3-1.5-2.2-3-3.5-4.1c-2.1-1.9-4.3-3.7-6.7-5.3c-1.6-1.1-3.5-1.8-5.5-2.7c-0.1,0.2,0.1-0.3,0.2-0.5
		c-3-1.2-5.8-0.8-8.4,0.8c-0.2,0.1-0.5,0-0.8,0c-2.4-0.2-4.8-0.4-7.1-0.5c-2.2,0-4.5,0.3-5.3-1.8c-2.1,0.8-3.9,1.5-5.8,2.2
		c0.3-0.9,0.6-1.8,1.1-3.3c-2.3,0-4.3-0.1-6.2-0.1c-1.3,0-2.8-0.3-3.1,1.8c-0.6,3.8,0,5.3,2.2,6.1c0.6,0.2,1.4,0.8,1.5,1.3
		c0.3,2.4,0.4,4.7,0.5,7.1c0.1,2.2-0.1,4.4,0,6.5c0.1,2.1,0,3.6-2.6,4c-0.7,0.1-1.7,1.4-1.7,2.1c-0.2,4.1-0.3,8.1-0.1,12.2
		c0,0.7,0.8,1.9,1.5,2.1c1.8,0.5,2.2,1.6,2.3,3.3c0,2.1,0.2,4.2,0.5,6.3c0.2,1.5,1.1,3,0.9,4.4c-0.4,4-2.2,7.8-1.3,12
		c0.1,0.4-1.4,1.6-2.2,1.7c-1.7,0.2-2.2,1.1-2.1,2.6c0,1,0.1,2,0,3c-0.2,1.7,0.5,2.5,2.2,2.2c3.3-0.4,6.7-0.8,9.8-1.2
		c0.7,0.7,1.5,1.4,2.1,1.9c0.4-1.9,0.7-3.1,1-4.4c0.5,0.6,1.1,1.2,1.8,2c0.3-0.6,0.6-1.1,0.7-1.3c1.1,0.6,2.5,1.4,2.5,1.3
		c1-1.5,2.5-3.1,2.7-4.7c0.3-3.5-0.1-7.2-0.1-10.8c0-3.1,0.1-6.3,0.1-9.2c1.7,0,2.6,0.2,3.5,0c3.7-0.8,7.3-1.6,10.9-2.6
		c2.3-0.7,5.3-1.4,6.4-3c1.1-1.6,2.5-2.4,3.8-3.5c0.9-0.9,2.4-1.1,3.7-1.6c0.7,1-0.7,3.5,2.2,2.8c0.1,0.5,0.2,0.9,0.3,1.6
		C252.9,215.7,253.4,214.9,254,214.1z M242.5,175.4c0.4-0.7,0.8-1.1,0.8-1.5c0-0.3-0.6-0.9-0.7-0.9c-0.4,0.2-1,0.6-1.1,0.9
		C241.4,174.3,241.9,174.7,242.5,175.4z M234.8,223.5c-0.1-0.2-0.1-0.4-0.2-0.4c-0.1,0-0.3,0.1-0.5,0.1c0.1,0.2,0.1,0.4,0.2,0.4
		C234.5,223.7,234.7,223.5,234.8,223.5z"/>
	<path class="st23" d="M279.1,152.7c-0.8,0.2-1.6,0.5-2.3,0.5c-7.3,0-14.6-0.1-21.9-0.3c-0.8,0-1.6-0.7-2.4-1.1c0.2,0,0.4,0,0.6,0
		c7.7,0.1,15.5,0.2,23.2,0.3C277.2,152.2,278.2,152.5,279.1,152.7z"/>
	<path class="st23" d="M204.2,151.3c-0.9,0.4-1.8,1-2.7,1c-6.7,0-13.4-0.1-20.1-0.2c0.9-0.4,1.8-1,2.7-1
		C190.8,151.1,197.5,151.3,204.2,151.3z"/>
	<path class="st24" d="M296.2,279.5c0.7-0.4,1.4-1,2.2-1.1c4.5-0.5,8.9-0.8,13.4-1.2c0,0.4,0,0.7,0,1.1c-0.2,0.4-0.4,0.7-0.6,1.1
		C306.2,279.5,301.2,279.5,296.2,279.5z"/>
	<path class="st24" d="M234.7,151.7c-0.3,0.4-0.7,1-1,1c-3.7-0.3-7.5-0.8-11.2-1.2c0.8-0.2,1.6-0.5,2.3-0.5
		C228.1,151.2,231.4,151.5,234.7,151.7z"/>
	<path class="st24" d="M311.6,225.3c-0.5-0.6-1.5-1.2-1.5-1.7c0.3-5.5,0.7-11.1,1.1-16.6c0.2,1,0.5,1.9,0.5,2.9
		C311.8,215,311.7,220.1,311.6,225.3z"/>
	<path class="st24" d="M311.7,241.8c-0.5-0.4-1.5-0.8-1.5-1.3c-0.2-2.1-0.2-4.2,0-6.3c0-0.5,1-0.9,1.5-1.3
		C311.7,235.9,311.7,238.8,311.7,241.8z"/>
	<path class="st23" d="M296.9,152.4c-0.2,0.3-0.4,0.9-0.5,0.9c-3.5-0.1-7.1-0.3-10.6-0.4C289.5,152.7,293.2,152.5,296.9,152.4z"/>
	<path class="st23" d="M310.2,153.1c-0.7-0.2-1.5-0.4-2.2-0.6C308.8,152.7,309.5,152.9,310.2,153.1z"/>
	<path class="st23" d="M260.3,248c0.5,0.8,1,1.6,1.5,2.3c-2.9,0.9-6.6,0.1-10.2-2.4c0.7-0.5,1.3-0.9,2.2-1.5
		c-2.8-1.2-3.1-2.8-1.5-4.9c0.2-0.3,0.2-0.9,0.2-1.3c-0.2-5-0.5-9.9-0.7-14.9c0-0.1,0.1-0.1-0.2,0.2c1.6,0,2.8,0,3.7,0
		c0.4,1,0.6,2.7,1.5,3.3c1.2,0.8,2.9-1.8,2.9-4.4c-0.8-0.2-1.8-0.3-2.5-0.8c-0.7-0.4-1.8-1.2,0-1.8c2.3,0.8,4.5,1.6,6.8,2.3
		c1.6,0.5,3.3,0.7,5,1.1c0.3,0.2,0.6,0.4,1,0.6c-0.2,0.8-0.4,1.6-0.5,2.4c1.5,1.3,4.5,1.6,2.7,4.9c-3,0-6.2-0.2-9.4-0.1
		c-0.8,0-1.6,0.7-2.4,1.1c-1.4-0.5-2.9-0.9-4.3-1.4c-0.4,0.1-1.1,0.3-1.1,0.4c-0.1,2.6-0.2,5.1-0.1,7.7c0,0.6,0.6,1.4,1.2,1.6
		c2.1,0.7,4.3,1.1,6.4,1.7c0.2,0.2,0.4,0.3,0.6,0.5c0.5,0,1,0.1,1.5,0.1c1.6,0,3.2,0.1,4.7,0.1c0.6,0,1.1-0.1,1.7-0.1
		c0.3,0,0.7-0.1,1-0.1c0.3-0.1,0.6-0.2,0.9-0.3c1.9-0.8,3.9-1.5,5.8-2.3l0,0c0.8-0.6,1.6-1.3,2.4-1.9c0,0,0.1-0.1,0.1-0.1
		c0.5-0.6,1-1.2,1.5-1.8c0,0,0,0,0,0c3.2-4.4,3.3-9.2,1.4-14.1c-0.1-0.2-0.3-0.4-0.4-0.6l-0.1-0.1c-0.5-0.7-1-1.5-1.5-2.2l-0.1-0.1
		c-0.3-0.3-0.5-0.6-0.8-0.9l0,0c-0.3-0.3-0.6-0.5-0.9-0.8l-0.1-0.1c-2.1-1.4-4.2-2.8-6.3-4.2l0,0c-2.6-1.8-5.3-3.5-7.9-5.3L266,210
		c-1.1-3.7-0.1-6.3,3.4-6.6c3.2-0.3,6.4,0.7,9.7,1.1c0.8,0.1,1.5,0.3,2.3,0.5c0.3,0,0.7,0,1,0c0.4-0.3,1.1-0.5,1.1-0.8
		c0.1-2,0-4.1,0.2-6.1c0.1-1.8-0.6-2.9-2.3-3.1c-3.8-0.5-7.7-0.9-11.5-1.3c-0.2-0.7-0.3-1.4-0.5-2.2c1.7,0.3,3.4,0.5,5.4,0.8
		c-0.3-1.1-0.4-1.6-0.6-2.2c2.8-0.4,5.5-0.7,8.3-1.1c-0.9,1.1-1.7,2.1-2.5,3.1c-0.3,0.2-0.6,0.5-0.8,0.7c0.3-0.1,0.6-0.1,0.8-0.2
		c1-0.4,1.9-0.8,3.1-1.2c0.1,1.8,0.7,3.3,3.2,3c1.7-0.2,1.4,1.1,1,2.3c-0.3,1.1-0.2,2.4-0.3,3.6c-0.1,2.2-0.2,4.5-0.3,6.7
		c-0.1,1.5-0.1,2.9-0.3,4.4c-0.1,1.3-0.4,2.6-0.6,4.3c2.9,1.1,1.4,4,1.5,6.2c0.3,4.1,0.1,8.3-0.1,12.5c-0.3,4.7-0.8,9.3-1.3,14
		c-0.1,0.6-1.1,1.4-1.7,1.5c-1.6,0.2-3.3,0-4.6,0c-0.8-1.3-1.3-3.1-2-3.2c-2.7-0.3-5.6-0.9-7.8,2c1.1-0.2,2.2-0.6,3.4-0.7
		c0.9-0.1,2-0.2,2.8,0.1c0.3,0.1,0.7,1.7,0.4,1.9c-0.6,0.5-1.5,0.8-2.3,0.8c-3.8,0.1-7.5-0.6-10.7-2.9
		C262.5,247.6,261.3,248,260.3,248c-0.9-0.5-1.8-1-2.7-1.5c-0.2,0.6-0.4,1.1-0.7,2C258.4,248.3,259.3,248.2,260.3,248z M278.5,208.7
		c-3.1-1.3-5.4-0.2-6.7,3C274.3,210.6,276.4,209.7,278.5,208.7z M268.6,206.2c0.8,3,2.8,1.1,4,1.1c0.5,0,1-1.2,1.5-1.9
		c-0.2-0.2-0.4-0.4-0.7-0.6C272,205.3,270.4,205.7,268.6,206.2z M281.6,218.5c-0.6-2.7-2.8-4-5.7-3.8
		C277.8,215.9,279.5,217,281.6,218.5z M258.4,231.8c0.1-0.2,0.2-0.4,0.3-0.7c-0.5-0.3-1.1-0.5-1.6-0.8c-0.1,0.2-0.2,0.4-0.3,0.7
		C257.3,231.2,257.9,231.5,258.4,231.8z M254.7,244.6c-0.4-0.2-0.6-0.4-0.8-0.4c-0.2,0-0.4,0.3-0.5,0.5c0.2,0.1,0.4,0.4,0.6,0.4
		C254.2,245.1,254.4,244.8,254.7,244.6z"/>
	<path class="st23" d="M213.7,245.8c-0.3,1.3-0.5,2.5-1,4.4c-0.6-0.5-1.3-1.2-2.1-1.9c-3.1,0.4-6.5,0.8-9.8,1.2
		c-1.7,0.2-2.4-0.6-2.2-2.2c0.1-1,0.1-2,0-3c-0.1-1.5,0.4-2.4,2.1-2.6c0.8-0.1,2.3-1.3,2.2-1.7c-0.9-4.2,0.9-8,1.3-12
		c0.1-1.4-0.7-2.9-0.9-4.4c-0.3-2.1-0.5-4.2-0.5-6.3c0-1.7-0.5-2.8-2.3-3.3c-0.7-0.2-1.5-1.4-1.5-2.1c-0.1-4.1-0.1-8.1,0.1-12.2
		c0-0.8,1.1-2,1.7-2.1c2.6-0.4,2.7-1.9,2.6-4c-0.1-2.2,0.1-4.4,0-6.5c-0.1-2.4-0.2-4.8-0.5-7.1c-0.1-0.5-0.9-1.1-1.5-1.3
		c-2.2-0.8-2.7-2.3-2.2-6.1c0.3-2.1,1.8-1.8,3.1-1.8c2,0,4,0,6.2,0.1c-0.5,1.5-0.8,2.4-1.1,3.3c0.2,0.7,0.4,1.5,0.5,2.2
		c-0.2,0.4-0.4,0.7-0.6,1.1c-2.5,1.9-4.3,7.4-2.5,9.6c1.4,1.8,1.2,3.5,1.2,5.4c0,3.3-0.1,6.6-0.1,10c-2.5,0.3-2.9,1.8-1.9,6.4
		c0.6-0.1,1.2-0.2,1.8-0.3c-0.1,10.6-0.3,21.1-0.3,31.7c0,0.9,0.6,1.8,1,2.7c0,0.2,0.1,0.3,0.1,0.5c0.3,3.6,1.6,4.4,4.6,2.9
		C212.3,246.1,213,246,213.7,245.8z"/>
	<path class="st24" d="M213.7,245.8c-0.7,0.2-1.4,0.3-2,0.6c-3,1.4-4.3,0.6-4.6-2.9c0.4,0,0.7,0,1.1,0c3.2,0.2,6.5,0.5,9.7,0.6
		c0.3,0,0.7-1.3,1-2l0.2,0c0.1-6.7,0.1-13.4,0.2-20.1c0-0.3,0-0.6,0-1c0.5-0.5,1-1,1.6-1.4c0.8,0,1.5,0,2.3-0.1
		c0.1,0.2,0.3,0.7,0.4,0.6c3.7-0.6,7.4-1.3,11.2-1.9c2.8-1.6,5.6-3.2,8.4-4.8c0.6-0.7,1.2-1.5,1.7-2.2l0,0c0.4-0.6,0.8-1.1,1.1-1.7
		c0,0,0,0,0,0c0.6-1.1,1.2-2.2,1.7-3.3c2.5-6.6,2.5-13.2-0.9-19.5l0,0c-0.2-0.4-0.4-0.8-0.6-1.1l0,0c-0.6-0.8-1.1-1.5-1.7-2.3
		c-2.6-3.1-6-4.8-9.9-5.7c-0.4-0.3-0.7-1-1.1-1c-7.8-0.3-15.6-0.5-23.5-0.7c-0.1,0-0.3,0.2-0.4,0.3c-0.1,0.1-0.2,0.2-0.4,0.1
		c-0.2,0-0.5-0.1-0.7-0.1c-0.2-0.7-0.4-1.5-0.5-2.2c1.8-0.7,3.7-1.4,5.8-2.2c0.8,2.1,3.1,1.8,5.3,1.8c2.4,0.1,4.8,0.3,7.1,0.5
		c0.3,0,0.6,0.1,0.8,0c2.6-1.6,5.4-2,8.4-0.8c-0.1,0.2-0.2,0.7-0.2,0.5c2,1,3.9,1.6,5.5,2.7c2.3,1.6,4.5,3.4,6.7,5.3
		c1.2,1.1,2.2,2.6,3.5,4.1c-1.2,3.3-0.1,6.8,1.3,10.2c0,1.5,0,3-0.1,4.4c-0.4,0.4-0.7,0.7-1.1,1.1c-0.8,2.4-1.5,4.8-2.3,7.2
		c0.4,0.6,0.7,1.1,1.1,1.7c0,0.6,0,1.1,0,1.7c-1.3,0.5-2.8,0.7-3.7,1.6c-1.2,1.1-2.7,1.9-3.8,3.5c-1.1,1.7-4.1,2.4-6.4,3
		c-3.6,1.1-7.3,1.8-10.9,2.6c-0.9,0.2-1.9,0-3.5,0c0,2.9-0.1,6.1-0.1,9.2c0,3.6,0.4,7.2,0.1,10.8c-0.2,1.7-1.6,3.2-2.7,4.7
		c-0.1,0.1-1.5-0.8-2.5-1.3c-0.1,0.2-0.4,0.7-0.7,1.3C214.8,247.1,214.2,246.5,213.7,245.8z"/>
	<path class="st23" d="M248.5,209c0.8-2.4,1.5-4.8,2.3-7.2c0.4-0.4,0.7-0.7,1.1-1.1c0-1.5,0-3,0.1-4.4c0.4-1.1,0.6-2.8,1.3-3.1
		c1.1-0.5,2.7,0,3.8,0.1c1.4,0.4,2.3,0.7,3.3,0.9c-0.5,0.8-0.8,1.7-1.4,2.4c-0.6,0.7-1.3,1.3-2,2c-2.3,2.1-4.2,4.4-4,7.7
		c-2.4,0.5-2.8,1.5-1.6,3.4c0.6,0.9,0.6,2.1,0.9,3.2l0,0c-0.2,0.7-0.4,1.5-0.6,2.2c-2.8,0.7-1.5-1.8-2.2-2.8c0-0.6,0-1.1,0-1.7
		C249.2,210.2,248.9,209.6,248.5,209z"/>
	<path class="st24" d="M269,225.2c-1.7-0.3-3.4-0.6-5-1.1c-2.3-0.7-4.5-1.5-6.8-2.3c0.2-2.1-0.2-3.9-2-5.3c-0.5-0.3-0.5-1.3-0.7-1.9
		c0.5-0.2,0.9-0.4,1.4-0.6c0.6,0.8,1.2,1.6,1.9,2.3c0.8,0.9,1.6,1.8,2.3,2.7c0.5,0.5,0.8,1.2,1.4,1.5
		C264,222.2,266.5,223.7,269,225.2z"/>
	<path class="st24" d="M257,198.6c0.7-0.7,1.4-1.2,2-2c0.6-0.7,0.9-1.6,1.4-2.4c2.7-1,5.5-2,8.3-3c0.2-0.1,0.4,0.2,0.7,0.3
		c0.2,0.7,0.3,1.4,0.5,2.2c-3.4,0.7-7,1-9.4,3.9c-0.9,0.9-1.9,1.8-2.8,2.7C257.3,199.7,257.1,199.1,257,198.6z"/>
	<path class="st24" d="M252.4,213c-0.3-1.1-0.4-2.3-0.9-3.2c-1.2-1.9-0.9-2.9,1.6-3.4c0.5,0.7,1,1.5,1.5,2.2
		c0.1,1.1,0.1,2.2,0.2,3.3c-0.2,0.8-0.5,1.5-0.7,2.3c-0.6,0.8-1.1,1.6-1.9,2.7c-0.1-0.7-0.2-1.1-0.3-1.6
		C252,214.4,252.2,213.7,252.4,213c0.1,0.2,0.3,0.4,0.4,0.6C252.6,213.3,252.5,213.2,252.4,213z"/>
	<path class="st24" d="M242.5,175.4c-0.5-0.7-1.1-1.1-1-1.4c0.1-0.4,0.7-0.7,1.1-0.9c0.1-0.1,0.8,0.6,0.7,0.9
		C243.2,174.3,242.9,174.7,242.5,175.4z"/>
	<path class="st22" d="M254,214.1c0.2-0.8,0.5-1.5,0.7-2.3c0.2,0.1,0.3,0.2,0.5,0.4c0.1,0.3,0.2,0.5,0.3,0.8
		c0.1,0.4,0.3,0.7,0.4,1.1c-0.5,0.2-0.9,0.4-1.4,0.6C254.4,214.5,254.2,214.3,254,214.1z"/>
	<path class="st24" d="M234.9,223.6c-0.2,0.1-0.3,0.2-0.5,0.2c-0.1,0-0.1-0.3-0.2-0.4c0.2-0.1,0.3-0.2,0.5-0.2
		C234.8,223.2,234.8,223.4,234.9,223.6z"/>
	<path class="st24" d="M279.8,192.7c-0.3,0.1-0.6,0.1-0.8,0.2c0.3-0.2,0.6-0.5,0.8-0.7C279.8,192.4,279.8,192.5,279.8,192.7z"/>
	<path class="st25" d="M257.5,200.3c0.9-0.9,1.9-1.8,2.8-2.7c0.5-0.1,1,0,1.3-0.2c4.6-3.1,9.8-2.6,14.9-2.4c4.9,0.2,5.9,1.2,5.9,6
		c0,1.4-0.1,2.8-0.1,4.1c-0.3,0-0.7,0-1,0c-0.7-0.6-1.4-1.6-2.2-1.7c-2.9-0.6-5.8-1-8.6-1.1c-1.4,0-2.9,0.6-4.1,1.3
		c-2.4,1.5-2.5,4.9-0.4,6.6c0,0,0.1,0.1,0.1,0.1c0.2,0.7,0.2,1.7,0.7,2c2.1,1.3,4.4,2.3,6.7,3.5c-1.2,0.6-2.5,1.3-3.7,1.9
		c1,0.5,1.8,0.3,2.7,0.4c0.5,0.1,1,0.6,1.6,0.9l0,0c-2,0.4-2.2,1.7-1.1,3c1.3,1.6,1.3,3.1,0.5,4.8c-3.6-2.3-7.2-4.6-10.9-6.8
		c-0.7-0.4-1.5-0.4-2.3-0.6c-0.8-0.9-1.6-1.8-2.3-2.7c0.1-0.4,0.4-0.9,0.2-1.1c-2.2-4.2-2.8-8.4-0.6-12.8c0.2-0.4,0-1.1,0-1.6
		C257.5,200.6,257.5,200.4,257.5,200.3z"/>
	<path class="st16" d="M274,218.8c-0.5-0.3-1-0.8-1.6-0.9c-0.8-0.1-1.7,0.1-2.7-0.4c1.2-0.6,2.5-1.3,3.7-2c0.2-0.1,0.4-0.1,0.6-0.2
		c0,0,0,0,0,0c2.1,1.4,4.2,2.8,6.3,4.2c0,0,0.1,0.1,0,0.1c0.3,0.3,0.6,0.5,0.9,0.8c0,0,0,0,0,0c0.3,0.3,0.5,0.6,0.8,0.9
		c0,0,0.1,0.1,0.1,0.1c0.5,0.7,1,1.5,1.5,2.2c0,0,0.1,0.1,0.1,0.1c-0.1,0.2-0.2,0.5-0.3,0.7c1.3,4.1,1.5,8.1-0.4,12.1
		c-0.3,0.5-0.2,1.2-0.2,1.9c0,0,0,0,0,0c-0.5,0.6-1,1.2-1.5,1.8c0,0-0.1,0.1-0.1,0.1c-0.8,0.6-1.6,1.3-2.4,1.9c0,0,0,0,0,0
		c-1.9,0.5-3.8,1.3-5.8,1.5c-3.5,0.4-7,0.4-10.5,0.6c-2.1-0.5-4.3-1-6.4-1.7c-0.5-0.2-1.1-1-1.2-1.6c-0.1-2.6,0-5.1,0.1-7.7
		c0-0.2,0.7-0.3,1.1-0.4c2.3,1.1,4.6,2.8,7,3.2c3.1,0.5,6.5,1.4,9.6-0.7c1-1.1,1.9-2.2,2.9-3.3c2.1-0.3,2.9-1.8,2.7-3.6
		c-0.3-2.4-2.2-0.5-3.2-0.9c-0.5-0.4-1.1-0.8-1.6-1.2c0.9-1.7,0.8-3.2-0.5-4.8C271.8,220.4,272,219.1,274,218.8
		c0.1,0,0.1,0.1,0.2,0.1C274.1,218.8,274,218.8,274,218.8z M276.2,224.8c-0.3,0.4-0.6,0.7-0.5,0.9c0.1,0.3,0.4,0.6,0.6,0.7
		c0.2,0,0.6-0.4,0.6-0.6C276.9,225.6,276.6,225.3,276.2,224.8z M275.8,218.5c-0.2-0.1-0.3-0.1-0.4-0.1c0,0.1,0,0.1,0.1,0.2
		C275.6,218.6,275.7,218.6,275.8,218.5z"/>
	<path class="st22" d="M260.6,234.1c0.8-0.4,1.6-1.1,2.3-1.2c3.2-0.1,6.4-0.1,9.4-0.1c1.7-3.3-1.2-3.6-2.7-4.9
		c0.2-0.8,0.3-1.6,0.5-2.4c0.2,0,0.4,0.1,0.5,0.1c0.2,0.2,0.4,0.3,0.6,0.5c4.3,3.5,4.5,5.1,1.1,8.3
		C268.4,234.4,264.5,234.2,260.6,234.1z"/>
	<path class="st15" d="M282.4,205.1c0-1.4,0.1-2.8,0.1-4.1c0.1-4.7-1-5.8-5.9-6c-5.1-0.2-10.3-0.7-14.9,2.4
		c-0.3,0.2-0.9,0.2-1.3,0.2c2.5-3,6.1-3.2,9.4-3.9c3.8,0.4,7.7,0.8,11.5,1.3c1.7,0.2,2.4,1.3,2.3,3.1c-0.1,2,0,4.1-0.2,6.1
		C283.4,204.5,282.8,204.8,282.4,205.1z"/>
	<path class="st26" d="M270.7,225.7c-0.2,0-0.4-0.1-0.5-0.1c-0.3-0.2-0.6-0.4-1-0.6c-2.5-1.5-5.1-3-7.6-4.5c-0.6-0.3-0.9-1-1.4-1.5
		c0.8,0.2,1.7,0.2,2.3,0.6c3.7,2.2,7.3,4.4,10.9,6.6c0.5,0.4,1.1,0.8,1.6,1.2c0.2,1.5,0.4,3,0.6,4.4c-0.9,1.1-1.9,2.2-2.8,3.3
		c-0.2-0.2-0.4-0.4-0.6-0.6c3.5-3.2,3.2-4.9-1.1-8.3C271.1,226.1,270.9,225.9,270.7,225.7z"/>
	<path class="st15" d="M266,210c-2.1-1.7-1.9-5,0.4-6.6c1.2-0.8,2.7-1.4,4.1-1.3c2.9,0.1,5.8,0.6,8.6,1.1c0.8,0.2,1.5,1.1,2.2,1.7
		c-0.8-0.2-1.5-0.4-2.3-0.5c-3.2-0.4-6.5-1.4-9.7-1.1C265.9,203.7,264.9,206.4,266,210z"/>
	<path class="st15" d="M272.3,234.5c0.2,0.2,0.4,0.4,0.6,0.6c-3,2.1-6.4,1.3-9.6,0.8c-2.4-0.4-4.7-2-7-3.1c1.5,0.4,2.9,0.9,4.4,1.3
		C264.5,234.2,268.4,234.4,272.3,234.5z"/>
	<path class="st15" d="M283,238c0.1-0.6-0.1-1.3,0.2-1.9c1.8-4,1.6-8.1,0.2-12.1c0.3,0,0.5-0.1,0.8-0.1
		C286.2,228.8,286.1,233.5,283,238z"/>
	<path class="st26" d="M262.8,244.1c3.5-0.2,7-0.3,10.5-0.7c2-0.2,3.8-1,5.8-1.6c-1.9,0.8-3.8,1.5-5.8,2.3c-0.3,0.1-0.6,0.2-0.9,0.3
		c-0.3,0-0.7,0.1-1,0.1c-0.6,0.1-1.1,0.1-1.7,0.2c-1.6,0-3.2-0.1-4.7-0.1c-0.5,0-1-0.1-1.5-0.1C263.2,244.4,263,244.2,262.8,244.1z"
		/>
	<path class="st3" d="M278.5,208.7c-2.1,0.9-4.2,1.9-6.7,3C273.1,208.5,275.4,207.4,278.5,208.7z"/>
	<path class="st3" d="M268.6,206.2c1.8-0.5,3.4-0.9,4.9-1.4c0.2,0.2,0.4,0.4,0.7,0.6c-0.5,0.7-1,1.9-1.5,1.9
		C271.4,207.3,269.5,209.2,268.6,206.2z"/>
	<path class="st15" d="M274,215.4c-0.2,0.1-0.4,0.1-0.6,0.2c-2.2-1.1-4.5-2.2-6.7-3.5c-0.5-0.3-0.4-1.3-0.7-2
		C268.8,211.8,271.4,213.6,274,215.4z"/>
	<path class="st24" d="M281.6,218.5c-2.1-1.4-3.8-2.6-5.7-3.8C278.8,214.4,281,215.8,281.6,218.5z"/>
	<path class="st26" d="M280.3,219.5c-2.1-1.4-4.2-2.8-6.3-4.2C276.1,216.8,278.2,218.1,280.3,219.5z"/>
	<path class="st3" d="M260.7,247.9c-1,0.1-1.9,0.3-3.4,0.5c0.3-0.9,0.5-1.5,0.7-2C258.8,246.9,259.8,247.4,260.7,247.9
		C260.7,247.9,260.7,247.9,260.7,247.9z"/>
	<path class="st26" d="M279,241.8c0.8-0.6,1.6-1.3,2.4-1.9C280.6,240.5,279.8,241.2,279,241.8z"/>
	<path class="st24" d="M258.6,231.6c-0.5-0.3-1.1-0.5-1.6-0.8c0.1-0.2,0.2-0.4,0.3-0.7c0.5,0.3,1.1,0.5,1.6,0.8
		C258.8,231.2,258.7,231.4,258.6,231.6z"/>
	<path class="st26" d="M283.7,223.2c-0.5-0.7-1-1.5-1.5-2.2C282.7,221.7,283.2,222.4,283.7,223.2z"/>
	<path class="st26" d="M281.5,239.8c0.5-0.6,1-1.2,1.5-1.8C282.5,238.6,282,239.2,281.5,239.8z"/>
	<path class="st3" d="M255,244.5c-0.3,0.2-0.5,0.5-0.7,0.5c-0.2,0-0.4-0.2-0.6-0.4c0.2-0.2,0.3-0.4,0.5-0.5
		C254.4,244.1,254.7,244.3,255,244.5z"/>
	<path class="st15" d="M263.4,244.6c0.5,0,1,0.1,1.5,0.1C264.4,244.6,263.9,244.6,263.4,244.6z"/>
	<path class="st15" d="M269.7,244.7c0.6-0.1,1.1-0.1,1.7-0.2C270.8,244.6,270.2,244.7,269.7,244.7z"/>
	<path class="st26" d="M282.1,220.9c-0.3-0.3-0.5-0.6-0.8-0.9C281.6,220.3,281.8,220.6,282.1,220.9z"/>
	<path class="st26" d="M281.3,220c-0.3-0.3-0.6-0.5-0.9-0.8C280.7,219.5,281,219.8,281.3,220z"/>
	<path class="st15" d="M272.3,244.4c0.3-0.1,0.6-0.2,0.9-0.3C272.9,244.2,272.6,244.3,272.3,244.4z"/>
	<path class="st26" d="M284.2,223.9c-0.3,0-0.5,0.1-0.8,0.1c0.1-0.2,0.2-0.5,0.3-0.7C283.9,223.5,284.1,223.7,284.2,223.9z"/>
	<path class="st24" d="M206.4,202.4c0-3.3,0.1-6.6,0.1-10c0-1.9,0.2-3.6-1.2-5.4c-1.7-2.2,0-7.7,2.5-9.6c0.2,0.6,0.3,1.1,0.5,1.7
		c-0.2,0.8-0.5,1.6-0.5,2.3c-0.2,11.9-0.3,23.9-0.4,35.8c0,0.8,0.3,1.6,0.5,2.3c0,2.8-0.1,5.6-0.1,8.4c-0.1,4.4-0.1,8.8-0.2,13.2
		c-0.2,0.6-0.4,1.1-0.6,1.7c-0.3-0.9-1-1.8-1-2.7c0-10.6,0.2-21.1,0.3-31.7C206.3,206.5,206.4,204.5,206.4,202.4z"/>
	<path class="st19" d="M207,243c0.2-0.6,0.4-1.1,0.6-1.7c0.1-4.4,0.1-8.8,0.2-13.2c0-2.8,0.1-5.6,0.1-8.4c0.2-13.5,0.3-27,0.5-40.5
		c-0.2-0.6-0.3-1.1-0.5-1.7c0.2-0.4,0.4-0.7,0.6-1.1c0.2,0.1,0.5,0.1,0.7,0.1c-0.1,0.9-0.2,1.8-0.2,2.7c-0.3,21.4-0.5,42.9-0.8,64.3
		c-0.4,0-0.7,0-1.1,0C207,243.3,207,243.2,207,243z"/>
	<path class="st3" d="M206.4,202.4c0,2,0,4.1-0.1,6.1c-0.6,0.1-1.2,0.2-1.8,0.3C203.5,204.3,203.9,202.7,206.4,202.4z"/>
	<path class="st7" d="M242.9,213.4c-2.8,1.6-5.6,3.2-8.4,4.8c-1.1-0.1-2.2-0.3-3.3-0.2c-2,0.2-4.1,0.5-6.1,0.8
		c-1.2,0-2.4,0.1-3.6-0.1c-2.6-0.4-3.2,0.8-3.2,3.2c0.1,6.5-0.1,13-0.2,19.5c-0.2-0.9-0.4-1.7-0.4-2.6c0-4.5,0.1-9,0.1-13.5
		c0-0.9-0.1-1.7-0.2-2.7c-0.7,0.2-1.1,0.2-1.4,0.4c-2.6,1.2-3.2,0.8-3.4-2c-0.1-1.3-0.5-2.5-0.5-3.8c0.1-2.1-1-2.5-2.8-2.4
		c0-3.3,0.1-6.7,0.1-10c2.1,2.3,4.6,1.2,7.1,0.9c0-2.7,0.1-5.3,0.1-7.9c-0.1-2.6-0.4-5.1-0.3-7.7c0-0.6,1-1.3,1.6-1.9
		c-0.1,6.3-0.2,12.6-0.1,18.8c0,1.1,1,2.3,1.5,3.4c0.4,0,0.7,0,1.1,0.1c1.5,0,3,0,4.5,0c1.2,0,2.4,0.2,3.5-0.1
		c2.2-0.6,5-0.3,5.9-3.3l0,0c0.3-0.3,0.6-0.5,0.8-0.8l0.1-0.1c2.3-0.2,2.4-1.9,2.5-3.6c0.3-2.4,0.5-4.7,0.8-7.1
		c0.7-1.2,1.3-3.5,2-3.5c2.5-0.1,4.5-0.9,6.3-2.5c0.5,5.6,2,11.1-0.1,16.6c-0.4,1.1-0.8,2.2-1.1,3.4c0,0,0,0,0,0
		c-0.4,0.6-0.8,1.1-1.1,1.7c0,0,0,0,0,0C244.1,212,243.5,212.7,242.9,213.4z M241.9,195.9c0.3,0,0.6,0,0.9,0c0-1,0-2,0-3.1
		c-0.3,0-0.5,0-0.8,0C242,193.8,242,194.8,241.9,195.9z M241.8,197.4c-0.3,0.1-0.6,0.2-1,0.4c0.3,0.6,0.6,1.1,0.9,1.7
		c0.2-0.1,0.5-0.2,0.7-0.4C242.3,198.5,242,197.9,241.8,197.4z"/>
	<path class="st27" d="M247,189.6c-1.8,1.6-3.8,2.4-6.3,2.5c-0.7,0-1.3,2.3-2,3.5c-1.3-2.2-2.6-4.5-3.9-6.7
		c-1.1-0.9-2.2-1.9-3.3-2.8c0.2-0.3,0.3-0.8,0.5-0.9c2.6-1.1,2.9-1.9,1.4-4.2c-1.2-1.9-2.7-2.8-5-2.7c-1,0-2-0.7-3-1
		c1.7,0,3.4,0,5,0c1.3,0.2,2.6,0.4,3.8,0.5c3.9,0.9,7.3,2.6,9.9,5.7c0.6,0.8,1.1,1.5,1.7,2.3c0,0,0,0,0,0c0.2,0.4,0.4,0.8,0.6,1.1
		c0,0,0,0,0,0C246.7,187.7,246.9,188.6,247,189.6z"/>
	<path class="st26" d="M230.6,177.2c-1.7,0-3.4,0-5,0c-4.7,0.1-9.3,0.2-14,0.4c-0.6,0-1.1,1-1.6,1.6c-0.2,0.8-0.5,1.5-0.5,2.3
		c-0.1,5.1-0.1,10.3-0.2,15.4c0,1.3,0,2.6-0.1,3.9c-0.2,13.1-0.3,26.2-0.5,39.3c0,0.8,0.3,1.6,0.5,2.3c3-0.2,5.9-0.3,8.9-0.5
		c0.2,0,0.4,0,0.7,0.1c-0.3,0.7-0.7,2-1,2c-3.2-0.1-6.5-0.3-9.7-0.6c0.3-21.4,0.5-42.9,0.8-64.3c0-0.9,0.1-1.8,0.2-2.7
		c0.1,0,0.3,0,0.4-0.1c5.6,0,11.3,0,16.9,0.1C227.8,176.5,229.2,176.9,230.6,177.2z"/>
	<path class="st15" d="M247,189.6c-0.2-0.9-0.3-1.9-0.5-2.8c3.4,6.4,3.4,12.9,0.9,19.5c-0.2,0-0.4,0-0.6,0
		C249,200.7,247.5,195.1,247,189.6z"/>
	<path class="st17" d="M219.1,242.4c-0.2,0-0.4,0-0.7-0.1c0-0.2,0-0.4,0-0.6c0-6.5,0.1-13,0-19.5c-0.1-2.4,0.5-3.6,3.2-3.3
		c1.2,0.2,2.4,0,3.6,0.1c-0.7,0.2-1.4,0.5-2.1,0.7c-0.8,0-1.5,0.1-2.3,0.1c-1.5-0.6-2,0-1.6,1.4c0,0.3,0,0.6,0,1
		c0,6.7,0,13.4,0,20.1L219.1,242.4z"/>
	<path class="st19" d="M230.6,177.2c-1.4-0.2-2.8-0.7-4.2-0.7c-5.6-0.1-11.3,0-16.9-0.1c0.1-0.1,0.3-0.4,0.4-0.3
		c7.8,0.2,15.6,0.4,23.5,0.7c0.4,0,0.7,0.7,1.1,1C233.2,177.5,231.9,177.3,230.6,177.2z"/>
	<path class="st15" d="M223.1,219.8c0.7-0.2,1.4-0.5,2.1-0.7c2-0.3,4.1-0.6,6.1-0.8c1.1-0.1,2.2,0.1,3.3,0.2
		c-3.7,0.7-7.4,1.4-11.1,2C223.3,220.4,223.2,220,223.1,219.8z"/>
	<path class="st18" d="M219.3,242.4c0-6.7,0-13.4,0-20.1C219.3,229,219.3,235.7,219.3,242.4z"/>
	<path class="st26" d="M246.9,206.2c0.2,0,0.4,0,0.6,0c-0.6,1.1-1.2,2.2-1.7,3.3C246.1,208.5,246.5,207.3,246.9,206.2z"/>
	<path class="st26" d="M242.9,213.4c0.6-0.7,1.2-1.5,1.7-2.2C244.1,212,243.5,212.7,242.9,213.4z"/>
	<path class="st15" d="M246,185.7c-0.6-0.8-1.1-1.5-1.7-2.3C244.9,184.1,245.5,184.9,246,185.7z"/>
	<path class="st3" d="M248.5,209c0.4,0.6,0.7,1.1,1.1,1.7C249.2,210.2,248.9,209.6,248.5,209z"/>
	<path class="st26" d="M244.6,211.2c0.4-0.6,0.8-1.1,1.1-1.7C245.4,210.1,245,210.7,244.6,211.2z"/>
	<path class="st18" d="M219.2,221.3c-0.4-1.5,0-2.1,1.6-1.4C220.3,220.3,219.8,220.8,219.2,221.3z"/>
	<path class="st3" d="M251.9,200.7c-0.4,0.4-0.7,0.7-1.1,1.1C251.2,201.5,251.6,201.1,251.9,200.7z"/>
	<path class="st15" d="M246.6,186.8c-0.2-0.4-0.4-0.8-0.6-1.1C246.2,186,246.4,186.4,246.6,186.8z"/>
	<path class="st22" d="M257.5,200.3c0,0.2,0,0.3-0.1,0.5c-2.4,2.1-2.9,4.8-2.9,7.8c-0.5-0.7-1-1.5-1.5-2.2c-0.2-3.4,1.7-5.7,4-7.7
		C257.1,199.1,257.3,199.7,257.5,200.3z"/>
	<path class="st15" d="M254.5,208.5c0-2.9,0.5-5.7,2.9-7.8c0,0.6,0.3,1.2,0,1.6c-2.2,4.4-1.6,8.6,0.6,12.8c0.1,0.3-0.1,0.7-0.2,1.1
		c-0.6-0.8-1.2-1.6-1.9-2.3c-0.1-0.4-0.3-0.7-0.4-1.1c-0.1-0.3-0.2-0.5-0.3-0.8c-0.2-0.1-0.3-0.2-0.5-0.4
		C254.7,210.7,254.6,209.6,254.5,208.5z"/>
	<path class="st23" d="M252.4,213c0.1,0.2,0.3,0.4,0.4,0.6C252.6,213.3,252.5,213.2,252.4,213C252.4,213,252.4,213,252.4,213z"/>
	<path class="st24" d="M255.2,212.2c0.1,0.3,0.2,0.5,0.3,0.8C255.4,212.7,255.3,212.4,255.2,212.2z"/>
	<path class="st25" d="M275.7,231.8c-0.2-1.5-0.4-3-0.6-4.4c1.1,0.4,2.9-1.6,3.3,0.8C278.5,229.9,277.8,231.5,275.7,231.8z"/>
	<path class="st25" d="M276.3,224.5c0.4,0.5,0.7,0.7,0.7,1c0,0.2-0.4,0.6-0.6,0.6c-0.3,0-0.6-0.4-0.7-0.7
		C275.7,225.2,276.1,224.9,276.3,224.5z"/>
	<path class="st25" d="M275.9,218.2c-0.1,0-0.2,0.1-0.3,0.1c0-0.1,0-0.1-0.1-0.2C275.6,218.1,275.7,218.2,275.9,218.2z"/>
	<path class="st25" d="M274,218.4c0.1,0,0.1,0.1,0.2,0.1C274.1,218.5,274.1,218.5,274,218.4C274,218.5,274,218.4,274,218.4z"/>
	<path class="st23" d="M270.7,225.7c0.2,0.2,0.4,0.3,0.6,0.5C271.1,226.1,270.9,225.9,270.7,225.7z"/>
	<path class="st21" d="M208.3,179.2c-0.2,13.5-0.3,27-0.5,40.5c-0.2-0.8-0.5-1.6-0.5-2.3c0.1-11.9,0.2-23.9,0.4-35.8
		C207.8,180.7,208.1,179.9,208.3,179.2z"/>
	<path class="st21" d="M207.9,228.5c0,4.4,0,8.8,0,13.3C207.9,237.3,207.9,232.9,207.9,228.5z"/>
	<path class="st6" d="M210,179.1c0.5-0.5,1-1.5,1.6-1.6c4.7-0.2,9.3-0.3,14-0.4c1,0.4,2,1.1,3,1c2.3-0.1,3.8,0.9,5,2.7
		c1.5,2.4,1.2,3.1-1.4,4.2c-0.3,0.1-0.4,0.6-0.5,0.9c-3.2-0.4-6.5-0.9-9.7-1.1c-0.6,0-1.3,0.7-2,1.1c-0.1,0.2-0.3,0.3-0.4,0.5
		c-0.2,0-0.5,0-0.7,0c-0.2,0.6-0.4,1.1-0.6,1.7c-0.6,0.6-1.6,1.2-1.6,1.9c-0.1,2.6,0.2,5.1,0.3,7.7c0.1,2.6,0,5.1-0.1,7.9
		c-2.6,0.4-5,1.4-7.1-0.9c-0.2-1.3-0.3-2.6-0.5-3.9c0-1.3,0-2.6,0.1-3.9c0.2-0.9,0.5-1.7,0.5-2.6C209.9,189.3,209.9,184.2,210,179.1
		z"/>
	<path class="st12" d="M218.1,241.4c0,0.2,0,0.4,0,0.6c-3,0.2-5.9,0.3-8.9,0.5c0.1-9.3,0.2-18.5,0.3-27.8c1.7-0.1,2.8,0.3,2.8,2.4
		c0,1.3,0.4,2.5,0.5,3.8c0.2,2.8,0.7,3.2,3.4,2c0.3-0.1,0.7-0.2,1.4-0.4c0.1,1,0.2,1.9,0.2,2.7c0,4.5-0.1,9-0.1,13.5
		C217.7,239.7,217.9,240.6,218.1,241.4z"/>
	<path class="st28" d="M219.5,186.5c0.1-0.2,0.3-0.3,0.4-0.5c5.3-0.5,10.3,0.2,15,2.8c1.3,2.2,2.6,4.5,3.9,6.7
		c-0.3,2.4-0.5,4.7-0.8,7.1c-0.8,1.2-1.7,2.4-2.5,3.6c0,0-0.1,0.1-0.1,0.1c-0.3,0.3-0.6,0.5-0.9,0.8c0,0,0,0,0,0
		c-4.6,3.1-9.8,2.8-15,2.7c-0.1-1-0.4-2-0.4-2.9c0-6.2,0.1-12.5,0.1-18.7C219.4,187.6,219.4,187,219.5,186.5z M225.5,206.6
		c0.1-0.2,0.2-0.5,0.3-0.7c1.3,0.4,2.6,0.7,3.9,1.1c1.8-0.7,0.9-6.5,5.2-2.8c0.3-3.5,0.7-6.8-0.4-10.4c-0.8-2.3-1.7-3.4-3.8-3.9
		c-1.3-0.3-2.7-0.7-3.9-1.2c-3.7-1.7-5.8-0.6-5.7,3.4c0.1,4.9,0.5,9.7,0.7,14.9c1.4,0.3,3.3,0.8,5.3,1.3c0.1-0.2,0.1-0.5,0.2-0.7
		C226.6,207.2,226,206.9,225.5,206.6z M233.4,205.2c-0.1,0.2-0.2,0.3-0.2,0.4c0,0.1,0.3,0.1,0.4,0.2c0.1-0.2,0.2-0.3,0.2-0.4
		C233.8,205.3,233.6,205.3,233.4,205.2z"/>
	<path class="st17" d="M219.4,188.2c0,6.2-0.1,12.5-0.1,18.7c0,1,0.2,2,0.4,2.9c0,0.2,0,0.4,0,0.5c-0.5-1.1-1.5-2.2-1.5-3.4
		c-0.1-6.3,0.1-12.6,0.1-18.8c0.2-0.6,0.4-1.1,0.6-1.7C219,187,219.2,187.6,219.4,188.2z"/>
	<path class="st20" d="M209.6,214.7c-0.1,9.3-0.2,18.5-0.3,27.8c-0.2-0.8-0.5-1.6-0.5-2.3c0.1-13.1,0.3-26.2,0.5-39.3
		c0.2,1.3,0.3,2.6,0.5,3.9C209.7,208,209.6,211.4,209.6,214.7z"/>
	<path class="st26" d="M219.6,210.4c0-0.2,0-0.4,0-0.5c5.2,0.1,10.4,0.4,15-2.7c-0.9,3-3.7,2.7-5.9,3.3c-1.1,0.3-2.3,0.1-3.5,0.1
		c-1.5,0-3,0-4.5,0C220.3,210.4,220,210.4,219.6,210.4z"/>
	<path class="st27" d="M241.9,195.9c0.1-1,0.1-2.1,0.2-3.1c0.3,0,0.5,0,0.8,0c0,1,0,2,0,3.1C242.5,195.8,242.2,195.9,241.9,195.9z"
		/>
	<path class="st26" d="M235.5,206.3c0.8-1.2,1.7-2.4,2.5-3.6C237.9,204.4,237.8,206.1,235.5,206.3z"/>
	<path class="st27" d="M241.8,197.4c0.2,0.6,0.4,1.1,0.7,1.7c-0.2,0.1-0.5,0.2-0.7,0.4c-0.3-0.6-0.6-1.1-0.9-1.7
		C241.2,197.6,241.5,197.5,241.8,197.4z"/>
	<path class="st17" d="M220.7,210.4c1.5,0,3,0,4.5,0C223.7,210.5,222.2,210.4,220.7,210.4z"/>
	<path class="st26" d="M234.6,207.1c0.3-0.3,0.6-0.5,0.9-0.8C235.1,206.6,234.8,206.9,234.6,207.1z"/>
	<path class="st15" d="M234.9,188.8c-4.7-2.7-9.7-3.3-15-2.8c0.7-0.4,1.3-1.2,2-1.1c3.2,0.3,6.5,0.7,9.7,1.1
		C232.7,187,233.8,187.9,234.9,188.8z"/>
	<path class="st20" d="M210,179.1c-0.1,5.1-0.1,10.1-0.2,15.2c0,0.9-0.3,1.7-0.5,2.6c0-5.1,0.1-10.3,0.2-15.4
		C209.4,180.7,209.8,179.9,210,179.1z"/>
	<path class="st15" d="M219.4,188.2c-0.2-0.6-0.4-1.1-0.6-1.7c0.2,0,0.5,0,0.7,0C219.4,187,219.4,187.6,219.4,188.2z"/>
	<path class="st23" d="M225.5,206.6c0.6,0.3,1.1,0.6,1.7,0.9c-0.1,0.2-0.1,0.5-0.2,0.7c-1.9-0.5-3.9-1-5.3-1.3
		c-0.3-5.2-0.6-10-0.7-14.9c-0.1-3.9,2-5.1,5.7-3.4c1.2,0.6,2.6,0.9,3.9,1.2c2.1,0.5,3.1,1.5,3.8,3.9c1.1,3.5,0.7,6.9,0.4,10.4
		c-4.3-3.7-3.4,2.1-5.2,2.8c-1.4-0.4-2.7-0.8-3.9-1.1C225.6,206.1,225.5,206.4,225.5,206.6z"/>
	<path class="st23" d="M233.4,205.2c0.2,0.1,0.4,0.1,0.4,0.2c0,0.1-0.1,0.3-0.2,0.4c-0.2-0.1-0.4-0.1-0.4-0.2
		C233.2,205.5,233.3,205.3,233.4,205.2z"/>
</g>
</svg>
