<?xml version="1.0" encoding="utf-8"?>
<!-- Generator: Adobe Illustrator 22.1.0, SVG Export Plug-In . SVG Version: 6.00 Build 0)  -->
<svg version="1.1" id="Layer_1" xmlns="http://www.w3.org/2000/svg" xmlns:xlink="http://www.w3.org/1999/xlink" x="0px" y="0px"
	 viewBox="0 0 512 512" style="enable-background:new 0 0 512 512;" xml:space="preserve">
<style type="text/css">
	.st0{fill:#F4F4F4;}
	.st1{fill:#E8E8E8;}
	.st2{fill:#347AB4;}
	.st3{fill:#FEC91E;}
	.st4{fill:#DEDCDD;}
	.st5{fill:#FEC91E;stroke:#FFFFFF;stroke-miterlimit:10;}
	.st6{fill:#FCFDFD;}
</style>
<path class="st0" d="M61,487.5v-398L155.1,0l272.8,0c12.4,0,22.5,10.1,22.5,22.5v467c0,12.4-10.1,22.5-22.5,22.5H85.5
	C72,512,61,501,61,487.5z"/>
<path class="st1" d="M61,89.5v400.1c0,12.4,10.1,22.5,22.5,22.5h40.4c-12.4,0-22.5-10.1-22.5-22.5V89.5L195.5,0l-40.4,0L61,89.5z"/>
<path class="st2" d="M450.4,51V22.5c0-12.4-10.1-22.5-22.5-22.5L155.1,0l-53.6,51H450.4z"/>
<path class="st3" d="M184.6,0l-29.5,0l-53.6,51h83.2V0z"/>
<path class="st4" d="M61,89.5h71.6c12.4,0,22.5-10.1,22.5-22.5V0L61,89.5z"/>
<path class="st2" d="M61,369.5v120c0,12.4,10.1,22.5,22.5,22.5h344.4c12.4,0,22.5-10.1,22.5-22.5v-120H61z"/>
<path class="st5" d="M101.4,489.5v-120H61v120c0,1.9,0.2,3.8,0.7,5.6c0.2,0.7,0.4,1.4,0.7,2.1c0.8,2.1,1.8,4,3.1,5.7
	c0.2,0.3,0.4,0.6,0.7,0.9c0.5,0.6,0.9,1.1,1.5,1.6c1.8,1.8,3.9,3.3,6.2,4.4c0.7,0.3,1.3,0.6,2,0.9c0.7,0.2,1.4,0.5,2.1,0.7
	c1.4,0.4,2.9,0.6,4.5,0.7c0.4,0,0.8,0,1.2,0h40.4C111.5,512,101.5,501.9,101.4,489.5L101.4,489.5z"/>
<g>
	<path class="st3" d="M309.2,179.1c4.8,0,9.3-0.2,13.8,0.1c6.1,0.4,9.9,4.1,12.4,9.3c2.2,4.7,3.2,9.8,4.1,15
		c2,10.9,0.7,21.3-3.8,31.3c-0.3,0.8-0.7,1.5-1,2.3c-2.9,5.9-7.5,8.7-14.1,8.6c-15.4-0.1-30.8,0-46.1,0c-0.6,0-1.2,0-1.9,0
		c0,3.4,0,6.6,0,10c10.8,0,21.6,0,32.4,0c2.4,8.9-1.6,17.2-10.2,21c-14.3,6.2-28.8,6.4-43.3,0.5c-2.7-1.1-5.1-2.9-7.4-4.8
		c-3-2.6-4.4-6.1-4.4-10.1c0-10.4-0.1-20.8,0-31.2c0.1-9.5,7.4-16.7,16.9-16.7c10.4,0,20.8-0.2,31.2,0c11.6,0.3,21.8-9.5,21.5-21.5
		C309.2,188.4,309.2,183.8,309.2,179.1z M287.9,273.8c3.2,0,6-2.7,6-5.9c0-3.2-2.6-6-5.9-6c-3.3,0-5.9,2.6-5.9,5.9
		C282.1,271.1,284.7,273.8,287.9,273.8z"/>
	<path class="st2" d="M266.7,174.1c0-3.4,0-6.6,0-10c-10.9,0-21.7,0-33,0c0.3-4.5,0.4-8.9,1.1-13.1c0.7-4.3,3.8-6.8,7.6-8.4
		c4.7-1.9,9.7-2.6,14.7-3.1c8.7-0.8,17.4-0.6,26.1,0.9c6.4,1.1,11.5,4.2,14.7,10.1c1.3,2.4,1.7,5,1.7,7.7c0,9.9,0,19.7,0,29.6
		c0,9-5.4,15.7-13.8,17.2c-1.2,0.2-2.4,0.2-3.6,0.2c-10.4,0-20.8,0-31.2,0c-9.1,0-16.9,5.4-19.9,14c-0.8,2.3-1.1,4.8-1.2,7.2
		c-0.2,4.7-0.1,9.3-0.1,14.2c-2,0-3.8,0-5.7,0c-2.9-0.1-5.9,0.1-8.7-0.4c-5.2-0.8-8.8-4-11.3-8.5c-2.5-4.4-3.3-9.2-4.3-14.1
		c-1.9-9.4-0.9-18.7,1.6-27.9c2.6-9.8,10.3-15.8,20.5-15.8c14.2,0,28.5,0,42.7,0C265.3,174.1,265.9,174.1,266.7,174.1z M254.1,152.3
		c0-3.3-2.7-6-5.9-5.9c-3.2,0.1-5.9,2.8-5.9,6.1c0,3.2,2.8,6,6,5.9C251.6,158.3,254.2,155.6,254.1,152.3z"/>
	<path class="st6" d="M254.1,152.3c0,3.3-2.6,6-5.8,6.1c-3.2,0-6-2.7-6-5.9c0-3.2,2.6-6,5.9-6.1C251.4,146.3,254.1,149,254.1,152.3z
		"/>
</g>
</svg>
