<?xml version="1.0" encoding="utf-8"?>
<!-- Generator: Adobe Illustrator 22.1.0, SVG Export Plug-In . SVG Version: 6.00 Build 0)  -->
<svg version="1.1" id="Layer_1" xmlns="http://www.w3.org/2000/svg" xmlns:xlink="http://www.w3.org/1999/xlink" x="0px" y="0px"
	 viewBox="0 0 512 512" style="enable-background:new 0 0 512 512;" xml:space="preserve">
<style type="text/css">
	.st0{fill:#F4F4F4;}
	.st1{fill:#E8E8E8;}
	.st2{fill:#61DAFB;}
	.st3{fill:#1D6677;}
	.st4{fill:#DEDCDD;}
</style>
<path class="st0" d="M427.9,512H83.5C71.1,512,61,501.9,61,489.5v-467C61,10.1,71.1,0,83.5,0h272.8l94.1,89.5v400.1
	C450.4,501.9,440.3,512,427.9,512z"/>
<path class="st1" d="M356.3,0h-40.4L410,89.5v400.1c0,12.4-10.1,22.5-22.5,22.5h40.4c12.4,0,22.5-10.1,22.5-22.5V89.5L356.3,0z"/>
<path class="st2" d="M409.9,51L356.3,0H83.5C71.1,0,61,10.1,61,22.5V51H409.9z"/>
<path class="st3" d="M326.8,51H410L356.3,0h-29.5V51z"/>
<path class="st4" d="M356.3,0v67c0,12.4,10.1,22.5,22.5,22.5h71.6L356.3,0z"/>
<path class="st2" d="M61,369.5v120c0,12.4,10.1,22.5,22.5,22.5h344.4c12.4,0,22.5-10.1,22.5-22.5v-120H61z"/>
<path class="st3" d="M409.9,489.5c0,12.4-10.1,22.5-22.5,22.5h40.4c12.4,0,22.5-10.1,22.5-22.5v-120h-40.4V489.5z"/>
<g>
	<path class="st2" d="M363.1,217.3c0-15.1-18.9-29.4-47.9-38.3c6.7-29.5,3.7-53-9.4-60.6c-3-1.8-6.5-2.6-10.4-2.6v10.4
		c2.1,0,3.9,0.4,5.3,1.2c6.3,3.6,9.1,17.4,6.9,35.2c-0.5,4.4-1.3,9-2.4,13.7c-9.1-2.2-19-3.9-29.5-5.1c-6.3-8.6-12.8-16.4-19.3-23.2
		c15.1-14.1,29.4-21.8,39-21.8v-10.4l0,0c-12.8,0-29.5,9.1-46.4,24.9c-16.9-15.7-33.6-24.7-46.4-24.7v10.4c9.6,0,23.9,7.7,39,21.6
		c-6.5,6.8-13,14.6-19.2,23.2c-10.5,1.1-20.4,2.8-29.5,5.1c-1.1-4.6-1.9-9.1-2.4-13.5c-2.2-17.7,0.5-31.5,6.8-35.2
		c1.4-0.8,3.2-1.2,5.3-1.2v-10.4l0,0c-3.9,0-7.4,0.8-10.5,2.6c-13.1,7.5-16,31-9.2,60.4c-28.9,8.9-47.7,23.2-47.7,38.2
		c0,15.1,18.9,29.4,47.9,38.3c-6.7,29.5-3.7,53,9.4,60.6c3,1.8,6.5,2.6,10.4,2.6c12.8,0,29.5-9.1,46.4-24.9
		c16.9,15.7,33.6,24.7,46.4,24.7c3.9,0,7.4-0.8,10.5-2.6c13.1-7.5,16-31,9.2-60.4C344.3,246.7,363.1,232.4,363.1,217.3z
		 M302.7,186.4c-1.7,6-3.9,12.2-6.3,18.3c-1.9-3.7-3.9-7.4-6.1-11.1c-2.1-3.7-4.4-7.3-6.7-10.9C290.2,183.7,296.6,184.9,302.7,186.4
		z M281.4,235.8c-3.6,6.3-7.3,12.2-11.2,17.7c-6.9,0.6-13.9,0.9-21,0.9c-7,0-14-0.3-20.9-0.9c-3.9-5.5-7.6-11.4-11.2-17.6
		c-3.5-6.1-6.7-12.3-9.7-18.5c2.9-6.2,6.1-12.4,9.6-18.5c3.6-6.3,7.3-12.2,11.2-17.7c6.9-0.6,13.9-0.9,21-0.9c7,0,14,0.3,20.9,0.9
		c3.9,5.5,7.6,11.4,11.2,17.6c3.5,6.1,6.7,12.3,9.7,18.5C288.1,223.5,284.9,229.7,281.4,235.8z M296.4,229.8
		c2.5,6.2,4.6,12.4,6.4,18.5c-6.1,1.5-12.5,2.7-19.1,3.7c2.3-3.6,4.6-7.2,6.7-11C292.5,237.3,294.5,233.5,296.4,229.8z M249.3,279.3
		c-4.3-4.5-8.6-9.4-12.9-14.9c4.2,0.2,8.5,0.3,12.8,0.3c4.4,0,8.7-0.1,12.9-0.3C257.9,269.9,253.6,274.9,249.3,279.3z M214.8,252
		c-6.6-1-13-2.2-19-3.7c1.7-6,3.9-12.2,6.3-18.3c1.9,3.7,3.9,7.4,6.1,11.1C210.3,244.8,212.5,248.4,214.8,252z M249.1,155.3
		c4.3,4.5,8.6,9.4,12.9,14.9c-4.2-0.2-8.5-0.3-12.8-0.3c-4.4,0-8.7,0.1-12.9,0.3C240.5,164.8,244.8,159.8,249.1,155.3z M214.7,182.7
		c-2.3,3.6-4.6,7.2-6.7,11c-2.1,3.7-4.1,7.4-6,11.1c-2.5-6.2-4.6-12.4-6.4-18.5C201.7,184.9,208.1,183.7,214.7,182.7z M172.7,240.8
		c-16.4-7-27.1-16.2-27.1-23.5c0-7.3,10.6-16.5,27.1-23.5c4-1.7,8.4-3.3,12.9-4.7c2.6,9.1,6.1,18.6,10.4,28.3
		c-4.3,9.7-7.7,19.1-10.3,28.1C181.1,244.1,176.7,242.5,172.7,240.8z M197.7,307.2c-6.3-3.6-9.1-17.4-6.9-35.2
		c0.5-4.4,1.3-9,2.4-13.7c9.1,2.2,19,3.9,29.5,5.1c6.3,8.6,12.8,16.4,19.3,23.2c-15.1,14.1-29.4,21.8-39,21.8
		C200.8,308.4,199.1,308,197.7,307.2z M307.8,271.8c2.2,17.7-0.5,31.5-6.8,35.2c-1.4,0.8-3.2,1.2-5.3,1.2c-9.6,0-23.9-7.7-39-21.6
		c6.5-6.8,13-14.6,19.2-23.2c10.5-1.1,20.4-2.8,29.5-5.1C306.5,263,307.3,267.5,307.8,271.8z M325.7,240.8c-4,1.7-8.4,3.3-12.9,4.7
		c-2.6-9.1-6.1-18.6-10.4-28.3c4.3-9.7,7.7-19.1,10.3-28.1c4.6,1.4,9,3,13.1,4.7c16.4,7,27.1,16.2,27.1,23.5
		C352.8,224.6,342.1,233.9,325.7,240.8z"/>
	<path class="st2" d="M202.7,116L202.7,116L202.7,116z"/>
	<circle class="st2" cx="249.2" cy="217.3" r="21.2"/>
	<path class="st2" d="M295.4,115.9L295.4,115.9L295.4,115.9z"/>
</g>
</svg>
