<?xml version="1.0" encoding="utf-8"?>
<!-- Generator: Adobe Illustrator 22.1.0, SVG Export Plug-In . SVG Version: 6.00 Build 0)  -->
<svg version="1.1" id="Layer_1" xmlns="http://www.w3.org/2000/svg" xmlns:xlink="http://www.w3.org/1999/xlink" x="0px" y="0px"
	 viewBox="0 0 512 512" style="enable-background:new 0 0 512 512;" xml:space="preserve">
<style type="text/css">
	.st0{fill:#F4F4F4;}
	.st1{fill:#E8E8E8;}
	.st2{fill:#CC2222;}
	.st3{fill:#991111;}
	.st4{fill:#DEDCDD;}
	.st5{fill:#BB1111;}
	.st6{fill:#881111;}
	.st7{fill:#DD4444;}
	.st8{fill:#AA0000;}
	.st9{fill:#990000;}
	.st10{fill:#880000;}
	.st11{fill:#EEBBBB;}
</style>
<path class="st0" d="M427.9,512H83.5C71.1,512,61,501.9,61,489.5v-467C61,10.1,71.1,0,83.5,0h272.8l94.1,89.5v400.1
	C450.4,501.9,440.3,512,427.9,512z"/>
<path class="st1" d="M356.3,0h-40.4L410,89.5v400.1c0,12.4-10.1,22.5-22.5,22.5h40.4c12.4,0,22.5-10.1,22.5-22.5V89.5L356.3,0z"/>
<path class="st2" d="M409.9,51L356.3,0H83.5C71.1,0,61,10.1,61,22.5V51H409.9z"/>
<path class="st3" d="M326.8,51H410L356.3,0h-29.5V51z"/>
<path class="st4" d="M356.3,0v67c0,12.4,10.1,22.5,22.5,22.5h71.6L356.3,0z"/>
<path class="st2" d="M61,369.5v120c0,12.4,10.1,22.5,22.5,22.5h344.4c12.4,0,22.5-10.1,22.5-22.5v-120H61z"/>
<path class="st3" d="M409.9,489.5c0,12.4-10.1,22.5-22.5,22.5h40.4c12.4,0,22.5-10.1,22.5-22.5v-120h-40.4V489.5z"/>
<g>
	<path class="st5" d="M185.2,304.2l128.8-8.7L324.4,165L185.2,304.2z M256.6,191.1l64.4-3.5l-50.5-41.8L256.6,191.1z"/>
	<path class="st6" d="M187,304.2l128.8-8.7l-81.8-7L187,304.2z M320.9,187.6c7-20.9,8.7-50.5-24.4-57.4l-26.1,15.7L320.9,187.6z"/>
	<path class="st7" d="M162.6,246.8l24.4,57.4l19.1-66.1L162.6,246.8z"/>
	<path class="st2" d="M200.9,236.4L274,259l-17.4-73.1L200.9,236.4z M247.9,130.2h48.7l-27.8,17.4L247.9,130.2z M152.2,218.9
		l-1.7,50.5l12.2-22.6L152.2,218.9z"/>
	<path class="st8" d="M206.1,236.4L274,259c-24.4,22.6-52.2,41.8-87,45.2L206.1,236.4z"/>
	<path class="st9" d="M256.6,191.1L274,259l29.6-40L256.6,191.1z M206.1,236.4l27.8,52.2c15.7-8.7,27.8-19.1,40-29.6L206.1,236.4z"
		/>
	<path class="st10" d="M256.6,191.1l47,29.6l17.4-34.8L256.6,191.1z"/>
	<path class="st3" d="M274,259l40,36.5l-10.4-76.6L274,259z M150.4,269.4c1.7,33.1,26.1,34.8,36.5,34.8l-24.4-57.4L150.4,269.4z
		 M162.6,246.8l-3.5,45.2c7,10.4,15.7,12.2,26.1,10.4C178.3,283.3,162.6,246.8,162.6,246.8z M270.5,145.9l52.2,7
		c-1.7-12.2-10.4-19.1-26.1-22.6L270.5,145.9z"/>
	<path class="st11" d="M152.2,218.9l10.4,27.8l43.5-8.7l50.5-47l13.9-45.2l-22.6-15.7l-38.3,13.9c-10.4,12.2-34.8,33.1-34.8,33.1
		C173,178.9,159.1,205,152.2,218.9z"/>
	<path class="st5" d="M187,166.8c26.1-24.4,59.2-40,73.1-27.8c12.2,13.9-1.7,45.2-27.8,69.6c-24.4,26.1-57.4,41.8-71.3,29.6
		C148.7,225.9,162.6,192.9,187,166.8z"/>
</g>
</svg>
