<?xml version="1.0" encoding="utf-8"?>
<!-- Generator: Adobe Illustrator 24.0.3, SVG Export Plug-In . SVG Version: 6.00 Build 0)  -->
<svg version="1.1" id="Layer_1" xmlns="http://www.w3.org/2000/svg" xmlns:xlink="http://www.w3.org/1999/xlink" x="0px" y="0px"
	 viewBox="0 0 100 100" style="enable-background:new 0 0 100 100;" xml:space="preserve">
<style type="text/css">
	.st0{fill:#FEDE9A;}
	.st1{fill:#A6A6AD;}
	.st2{fill:#3E3E42;}
	.st3{opacity:0.1;enable-background:new    ;}
	.st4{fill:#D2D2D6;}
	.st5{fill:#57575E;}
	.st6{fill:#3E5159;}
	.st7{fill:#293439;}
	.st8{fill:#FED233;}
	.st9{fill:#FDA822;}
	.st10{fill:#FDA722;}
	.st11{fill:#FC7C28;}
</style>
<path class="st0" d="M50,0C22.4,0,0,22.4,0,50c0,27.6,22.4,50,50,50c27.6,0,50-22.4,50-50C100,22.4,77.6,0,50,0z"/>
<polygon class="st1" points="57.1,75.8 43.8,75.8 45,69.1 55.8,69.1 "/>
<path class="st2" d="M76.3,71H24.5c-2,0-4.2-2.2-4.2-4.2V31.2c0-2,1.6-3.6,3.6-3.6h53c2,0,3.6,1.6,3.6,3.6v35.5
	C80.5,68.7,78.3,71,76.3,71z"/>
<polygon class="st3" points="56.5,72.8 55.8,69.1 45,69.1 44.3,72.8 "/>
<path class="st4" d="M20.3,63.9v3.4c0,2,1.6,3.6,3.6,3.6h53c2,0,3.6-1.6,3.6-3.6v-3.4c0-0.1-0.1-0.2-0.2-0.2H20.5
	C20.4,63.7,20.3,63.8,20.3,63.9z"/>
<rect x="23.3" y="30.6" class="st5" width="54.2" height="30.1"/>
<circle class="st1" cx="50.4" cy="67.3" r="1.8"/>
<path class="st4" d="M60.1,76.4c0,0.4-0.2,0.6-0.6,0.6H41.4c-0.4,0-0.6-0.2-0.6-0.6v-0.6c0-0.4,0.2-0.6,0.6-0.6h18.1
	c0.4,0,0.6,0.2,0.6,0.6V76.4z"/>
<g>
	<path class="st6" d="M47.1,44.8c-0.2,0-0.3,0-0.4-0.1c-0.1-0.1-0.4-0.1-0.5,0C46,44.8,46,45,46.1,45.2c0.2,0.2,0.1,0.4-0.1,0.6
		c-0.2,0.2-0.4,0.3-0.6,0.5c-0.5,0.4-1.2,0.3-1.6-0.2c-0.3-0.3-0.5-0.7-0.8-1c-0.1-0.2-0.2-0.4-0.3-0.6c0-0.1,0-0.3,0-0.4
		c0,0,0,0,0,0c0.1-0.3,0.2-0.5,0.4-0.6c0.2-0.1,0.4-0.3,0.6-0.4c0.2-0.2,0.4-0.2,0.6,0c0.1,0.1,0.4,0.2,0.5,0
		c0.2-0.1,0.2-0.3,0.1-0.5c-0.1-0.2-0.1-0.4,0.1-0.5c0.3-0.3,0.7-0.5,1-0.8c0,0.1,0.1,0.1,0.1,0.2c0.3,0.4,0.6,0.8,0.9,1.2
		c0.4,0.5,0.8,1,1.2,1.5c0,0,0,0,0,0c0,0-0.1,0.1-0.1,0.1C47.8,44.3,47.4,44.6,47.1,44.8z"/>
	<path class="st7" d="M48.2,44c-0.4-0.5-0.8-1-1.2-1.5c-0.3-0.4-0.6-0.8-0.9-1.2c0-0.1-0.1-0.1-0.1-0.2c0.1-0.1,0.2-0.2,0.3-0.3
		c0.5-0.4,1.1-0.8,1.7-0.9c0.2,0,0.3-0.1,0.5-0.1c0.3,0,0.5,0,0.8,0c0.2,0,0.3,0.1,0.5,0.1c0.6,0.1,1.2,0.4,1.7,0.7
		c0.2,0.1,0.2,0.2,0.2,0.4c0,0.2-0.1,0.3-0.3,0.3c-0.3,0-0.5,0-0.8,0.1c-0.7,0.1-1.3,0.3-1.8,0.8c0.1,0.2,0.3,0.3,0.4,0.5
		c0.1,0.1,0.2,0.3,0.1,0.5C48.9,43.4,48.6,43.7,48.2,44z"/>
	<path class="st8" d="M54.7,51.9c-0.6,0.5-1.5,0.4-2-0.2c-0.8-1-1.6-1.9-2.3-2.9c-0.6-0.8-1.3-1.6-1.9-2.4c0,0,0-0.1-0.1-0.1
		c0.2-0.2,0.5-0.4,0.7-0.6c0.1-0.1,0.3-0.2,0.4-0.3c0,0,0,0,0,0c0.2,0.2,0.4,0.5,0.6,0.7c0.3,0.4,0.6,0.7,0.9,1.1
		c0.4,0.4,0.7,0.9,1.1,1.3c0.4,0.5,0.8,1,1.2,1.5c0.3,0.4,0.7,0.8,1,1.2C54.3,51.5,54.5,51.7,54.7,51.9z"/>
	<path class="st9" d="M54.7,51.9c-0.2-0.2-0.4-0.4-0.5-0.6c-0.3-0.4-0.7-0.8-1-1.2c-0.4-0.5-0.8-1-1.2-1.5c-0.4-0.4-0.7-0.9-1.1-1.3
		c-0.3-0.4-0.6-0.7-0.9-1.1c-0.2-0.2-0.4-0.5-0.6-0.7c0.2-0.2,0.5-0.4,0.7-0.6c0.1-0.1,0.2-0.2,0.3-0.2c0.3,0.3,0.5,0.7,0.8,1
		c1.1,1.4,2.3,2.8,3.4,4.2c0.5,0.6,0.5,1.4,0,1.9C54.7,51.8,54.7,51.9,54.7,51.9z"/>
	<path class="st8" d="M47.1,44.8c0.3-0.3,0.7-0.5,1-0.8c0,0,0.1-0.1,0.1-0.1c0.1,0.2,0.3,0.3,0.4,0.5c0.1,0.2,0.3,0.3,0.4,0.5
		c0,0,0,0,0,0c0,0-0.1,0-0.1,0.1c-0.2,0.2-0.4,0.3-0.6,0.5c-0.1,0.1-0.3,0.2-0.4,0.3C47.6,45.5,47.4,45.2,47.1,44.8z"/>
	<path class="st10" d="M49,44.9c-0.1-0.2-0.3-0.3-0.4-0.5c-0.1-0.2-0.3-0.3-0.4-0.5c0,0,0,0,0,0c0.4-0.3,0.7-0.6,1.1-0.9
		c0.3,0.3,0.5,0.7,0.8,1c-0.2,0.1-0.4,0.3-0.6,0.4C49.4,44.7,49.2,44.8,49,44.9z"/>
	<path class="st10" d="M47.9,45.8c0.1-0.1,0.3-0.2,0.4-0.3c0.2-0.2,0.4-0.3,0.6-0.5c0,0,0.1,0,0.1-0.1c0.1,0.2,0.3,0.4,0.4,0.5
		c-0.1,0.1-0.3,0.2-0.4,0.3c-0.2,0.2-0.5,0.4-0.7,0.6C48.2,46.2,48.1,46,47.9,45.8z"/>
	<path class="st11" d="M49.5,45.5c-0.1-0.2-0.3-0.4-0.4-0.5c0,0,0,0,0,0c0.2-0.1,0.3-0.3,0.5-0.4c0.2-0.1,0.4-0.3,0.6-0.4
		c0.2,0.2,0.3,0.4,0.5,0.6c-0.1,0.1-0.2,0.1-0.3,0.2C50,45.1,49.7,45.3,49.5,45.5C49.5,45.5,49.5,45.5,49.5,45.5z"/>
</g>
</svg>
