<?xml version="1.0" encoding="utf-8"?>
<!-- Generator: Adobe Illustrator 25.2.3, SVG Export Plug-In . SVG Version: 6.00 Build 0)  -->
<svg version="1.1" id="Layer_1" xmlns="http://www.w3.org/2000/svg" xmlns:xlink="http://www.w3.org/1999/xlink" x="0px" y="0px"
	 viewBox="0 0 100 100" style="enable-background:new 0 0 100 100;" xml:space="preserve">
<style type="text/css">
	.st0{fill:#FFFFFF;}
	.st1{fill:#3D697A;}
	.st2{fill:#81BCDA;}
</style>
<path class="st0" d="M50,0c27.6,0,50,22.4,50,50s-22.4,50-50,50S0,77.6,0,50S22.4,0,50,0z"/>
<ellipse transform="matrix(0.4417 -0.8972 0.8972 0.4417 -25.2726 70.8269)" class="st1" cx="44.3" cy="55.7" rx="22.8" ry="22.8"/>
<path class="st2" d="M53.4,41.2c-3,0-6-0.4-8.8-1.2c-3.9-1-7.5-2.6-10.8-4.9c-4.6-3.4-4.6-6.6-4.2-8.2c0.4-1.6,2-4.3,7.7-5.1
	c4-0.4,8,0,11.8,1c3.9,0.9,7.5,2.6,10.8,4.9c4.6,3.5,4.6,6.6,4.2,8.2s-2,4.3-7.6,5.1C55.4,41.1,54.4,41.2,53.4,41.2z M35,28.3
	c0,0.3,0.6,1.3,2.6,2.7c2.6,1.7,5.4,2.9,8.4,3.7c3,0.8,6.1,1.2,9.1,1c1.3,0,2.5-0.4,3.6-1.1c0-0.3-0.6-1.3-2.6-2.7
	c-2.6-1.7-5.4-2.9-8.4-3.7l0,0c-3-0.8-6-1.2-9.1-1C37.2,27.1,36,27.5,35,28.3z"/>
<path class="st2" d="M72,70.6c-1.7,0-4.2-0.8-6.8-4.2c-2.3-3.2-4-6.9-5-10.7C59,51.9,58.6,47.9,59,44c0.7-5.7,3.4-7.3,5-7.7
	s4.7-0.5,8.2,4.1c2.3,3.2,4,6.8,5,10.6c1.1,3.8,1.5,7.8,1.2,11.8c-0.7,5.7-3.4,7.3-5,7.7C72.9,70.6,72.4,70.6,72,70.6z M65.4,41.5
	c-0.7,1.1-1.1,2.3-1.1,3.6c-0.2,3.1,0.2,6.2,1.1,9.1c0.8,3,2,5.8,3.7,8.4c1.4,2,2.5,2.5,2.7,2.6c0.7-1.1,1.1-2.3,1.1-3.6
	c0.2-3.1-0.2-6.2-1.1-9.1c-0.8-3-2-5.8-3.7-8.4C66.8,42.1,65.7,41.6,65.4,41.5z"/>
<path class="st2" d="M58.8,41.2l0,8.8c0,4.9-3.9,8.8-8.8,8.8c-4.9,0-8.8-3.9-8.8-8.8s3.9-8.8,8.8-8.8L58.8,41.2 M64.2,35.7l-14.3,0
	c-7.9,0-14.3,6.4-14.3,14.3c0,0,0,0,0,0l0,0c-0.2,7.9,6,14.5,13.8,14.7s14.5-6,14.7-13.8c0-0.3,0-0.6,0-0.9L64.2,35.7L64.2,35.7z"/>
<path class="st2" d="M68.7,26.9c2.5,0,4.5,2,4.5,4.5c0,2.5-2,4.5-4.5,4.5c0,0,0,0,0,0l-4.5,0l0-4.5C64.2,28.9,66.2,26.9,68.7,26.9
	 M68.7,21.5c-5.4,0-9.8,4.4-9.8,9.8l0,9.8l9.8,0c5.4,0,9.8-4.4,9.8-9.8l0,0C78.5,25.9,74.1,21.5,68.7,21.5z"/>
<path class="st2" d="M53.9,45.4c-0.2,0-0.4,0.1-0.6,0.2l-4,4l-1.9-1.9c-0.1-0.1-0.3-0.2-0.5-0.2c-0.2,0-0.4,0.1-0.6,0.2l-1.6,1.6
	c-0.3,0.3-0.3,0.8,0,1.1l4.1,4.1c0.3,0.3,0.8,0.3,1.1,0c0,0,0,0,0,0l6.2-6.2c0.3-0.3,0.3-0.8,0-1.1l-1.6-1.6
	C54.3,45.4,54.1,45.4,53.9,45.4z"/>
</svg>
